<?xml version="1.0" encoding="UTF-8" standalone="no"?>
<!-- Created with Inkscape (http://www.inkscape.org/) -->

<svg
   xmlns:dc="http://purl.org/dc/elements/1.1/"
   xmlns:cc="http://creativecommons.org/ns#"
   xmlns:rdf="http://www.w3.org/1999/02/22-rdf-syntax-ns#"
   xmlns:svg="http://www.w3.org/2000/svg"
   xmlns="http://www.w3.org/2000/svg"
   xmlns:sodipodi="http://sodipodi.sourceforge.net/DTD/sodipodi-0.dtd"
   xmlns:inkscape="http://www.inkscape.org/namespaces/inkscape"
   width="744.09448819"
   height="1052.3622047"
   id="svg2"
   version="1.1"
   inkscape:version="0.48.4 r9939"
   sodipodi:docname="4w2b.svg">
  <defs
     id="defs4">
    <marker
       inkscape:stockid="CurveIn"
       orient="auto"
       refY="0.0"
       refX="0.0"
       id="CurveIn"
       style="overflow:visible">
      <path
         id="path4065"
         d="M 4.6254930,-5.0456926 C 1.8654930,-5.0456926 -0.37450702,-2.8056926 -0.37450702,-0.045692580 C -0.37450702,2.7143074 1.8654930,4.9543074 4.6254930,4.9543074"
         style="fill-rule:evenodd;stroke:#000000;stroke-width:1.0pt;fill:none"
         transform="scale(0.6)" />
    </marker>
    <marker
       inkscape:stockid="CurveOut"
       orient="auto"
       refY="0.0"
       refX="0.0"
       id="CurveOut"
       style="overflow:visible">
      <path
         id="path4068"
         d="M -5.4129913,-5.0456926 C -2.6529913,-5.0456926 -0.41299131,-2.8056926 -0.41299131,-0.045692580 C -0.41299131,2.7143074 -2.6529913,4.9543074 -5.4129913,4.9543074"
         style="fill:none;fill-rule:evenodd;stroke:#000000;stroke-width:1.0pt"
         transform="scale(0.6)" />
    </marker>
    <filter
       id="filter3847"
       x="-0.15"
       width="1.3"
       y="-0.15"
       height="1.3"
       inkscape:menu-tooltip="Stone wall texture to use with not too saturated colors"
       inkscape:menu="Textures"
       inkscape:label="Stone wall"
       color-interpolation-filters="sRGB">
      <feTurbulence
         id="feTurbulence3849"
         type="turbulence"
         numOctaves="5"
         baseFrequency="0.08 0.175"
         seed="25" />
      <feColorMatrix
         id="feColorMatrix3851"
         result="result5"
         values="1 0 0 0 0 0 1 0 0 0 0 0 1 0 0 0 0 0 2 0 " />
      <feComposite
         id="feComposite3853"
         in2="result5"
         in="SourceGraphic"
         operator="in" />
      <feMorphology
         id="feMorphology3855"
         operator="dilate"
         radius="0.65"
         result="result3" />
      <feTurbulence
         id="feTurbulence3857"
         numOctaves="7"
         baseFrequency="0.05 0.09"
         type="fractalNoise"
         seed="25" />
      <feGaussianBlur
         id="feGaussianBlur3859"
         stdDeviation="2"
         result="result7" />
      <feDisplacementMap
         id="feDisplacementMap3861"
         in2="result7"
         in="result3"
         xChannelSelector="R"
         yChannelSelector="G"
         scale="5"
         result="result4" />
      <feFlood
         id="feFlood3863"
         flood-opacity="1"
         flood-color="rgb(255,255,255)"
         result="result8" />
      <feComposite
         id="feComposite3865"
         in2="result4"
         k3="0.7"
         k1="0.7"
         result="result2"
         operator="arithmetic" />
      <feComposite
         id="feComposite3867"
         in2="SourceAlpha"
         k2="1"
         in="result2"
         operator="arithmetic"
         k1="1"
         result="result6" />
      <feBlend
         id="feBlend3869"
         in2="result6"
         mode="multiply"
         in="result6" />
    </filter>
    <marker
       inkscape:stockid="CurveOut"
       orient="auto"
       refY="0"
       refX="0"
       id="CurveOut-9"
       style="overflow:visible">
      <path
         inkscape:connector-curvature="0"
         id="path4068-0"
         d="m -5.4129913,-5.0456926 c 2.76,0 4.99999999,2.24 4.99999999,5.00000002 0,2.75999998 -2.23999999,4.99999998 -4.99999999,4.99999998"
         style="fill:none;stroke:#000000;stroke-width:1pt"
         transform="scale(0.6,0.6)" />
    </marker>
    <marker
       inkscape:stockid="CurveIn"
       orient="auto"
       refY="0"
       refX="0"
       id="CurveIn-8"
       style="overflow:visible">
      <path
         inkscape:connector-curvature="0"
         id="path4065-8"
         d="m 4.625493,-5.0456926 c -2.76,0 -5.00000002,2.24 -5.00000002,5.00000002 0,2.75999998 2.24000002,4.99999998 5.00000002,4.99999998"
         style="fill:none;stroke:#000000;stroke-width:1pt"
         transform="scale(0.6,0.6)" />
    </marker>
  </defs>
  <sodipodi:namedview
     id="base"
     pagecolor="#ffffff"
     bordercolor="#666666"
     borderopacity="1.0"
     inkscape:pageopacity="0.0"
     inkscape:pageshadow="2"
     inkscape:zoom="0.7"
     inkscape:cx="312.85254"
     inkscape:cy="568.09264"
     inkscape:document-units="px"
     inkscape:current-layer="layer1"
     showgrid="false"
     inkscape:window-width="1366"
     inkscape:window-height="701"
     inkscape:window-x="0"
     inkscape:window-y="0"
     inkscape:window-maximized="1" />
  <metadata
     id="metadata7">
    <rdf:RDF>
      <cc:Work
         rdf:about="">
        <dc:format>image/svg+xml</dc:format>
        <dc:type
           rdf:resource="http://purl.org/dc/dcmitype/StillImage" />
        <dc:title></dc:title>
      </cc:Work>
    </rdf:RDF>
  </metadata>
  <g
     inkscape:label="Layer 1"
     inkscape:groupmode="layer"
     id="layer1">
    <path
       sodipodi:type="star"
       style="opacity:0.01000001;fill:#0000ff;fill-opacity:1;stroke:#00ffa6;stroke-width:4;stroke-linecap:round;stroke-linejoin:round;stroke-miterlimit:4;stroke-opacity:1;stroke-dasharray:none"
       id="path2995"
       sodipodi:sides="160"
       sodipodi:cx="307.14285"
       sodipodi:cy="236.6479"
       sodipodi:r1="24.285713"
       sodipodi:r2="36.874027"
       sodipodi:arg1="0.48995726"
       sodipodi:arg2="0.50959226"
       inkscape:flatsided="true"
       inkscape:rounded="0"
       inkscape:randomized="1.523"
       d="m 276.45621,278.94392 29.94346,-55.16359 48.63976,55.07285 -44.98145,-59.32853 24.38998,71.51899 -12.61301,-67.57771 18.18582,71.71935 -45.05028,-60.59255 48.42204,-6.46689 -8.76244,-11.92991 -60.00825,12.30866 57.79568,9.11995 -44.94236,30.01276 -8.36923,-30.49262 38.09783,69.04119 -49.16324,-5.03865 -2.32956,-29.66462 63.59069,-23.16013 -45.36378,65.7795 32.77933,-76.27609 15.73832,76.75841 -12.37727,-1.01975 45.47988,-56.84137 -15.15044,50.42828 -51.55931,-84.20758 18.41397,88.40859 6.3382,-91.10262 -17.83889,12.40262 -23.96872,12.22135 38.63491,16.02212 -5.83336,-56.18312 41.24829,72.30238 -57.50801,35.80952 -15.18691,-86.35395 45.29885,46.89066 -12.47167,25.67833 9.67916,-0.54579 20.52965,-15.04178 -39.35822,5.74478 0.84796,25.46327 -64.16655,-92.67649 0.38148,56.66872 15.17389,-76.18484 36.02256,67.44093 12.48149,12.19247 -58.85193,-60.4221 90.52745,23.64536 -20.99284,-39.16605 -70.05904,-7.1784 54.94719,76.47234 17.99483,-0.0541 -2.07951,-34.32805 18.19268,58.95768 -63.3755,-98.65513 36.33862,-8.24215 29.79202,34.13219 -33.60162,-30.52354 27.66671,40.34838 -85.24774,-37.58882 -18.03341,0.41577 105.9208,73.17752 -51.49686,23.73943 -33.91526,-48.68432 45.30782,-54.27475 8.35429,72.65088 30.03561,-50.69512 3.11893,55.00944 -91.60396,-42.67039 -0.14176,39.87005 73.27646,13.89829 -9.4448,-52.36877 -42.40203,-11.32576 -24.78884,15.36596 54.57543,-31.03357 21.62655,72.19591 -73.07399,-88.43536 0.12949,-9.43874 5.6418,100.51297 73.02595,-40.25094 -34.00507,-12.27505 21.2715,-7.21082 14.56671,-48.34041 -40.73518,39.69851 0.47129,50.51425 -24.38998,-71.51899 34.30852,4.43809 -24.24082,-11.24304 45.05028,60.59255 -48.42204,6.46689 14.81744,-48.5464 15.49809,-21.12295 48.58139,48.62293 -12.60353,-60.32578 -48.36654,20.60969 -21.33818,63.38901 -0.36427,-45.55472 51.97087,-34.79373 -57.64949,77.73555 45.36379,-65.7795 17.78402,12.17764 -66.30167,-12.65996 62.94243,61.67601 -45.36428,-45.77393 15.15044,61.89 51.44371,-37.81368 -41.22862,-48.04422 61.46812,69.85193 -94.362,9.73677 17.91372,-64.06333 17.86966,-25.54514 -44.73181,-4.47314 87.82966,60.12783 -60.74968,34.36977 15.18509,-38.40076 -33.30263,-52.79155 56.98183,95.45424 -54.18933,-8.26849 17.92552,-27.98591 45.41322,46.09719 -51.41313,-86.11953 64.16656,-19.6418 -6.32269,1.07415 -37.98674,16.66736 -30.08315,87.01636 99.83679,-12.19247 -45.44618,-59.74014 15.62024,27.12797 14.93784,-12.67592 -36.09045,56.28693 57.3711,-76.47234 -18.10863,2.78752 -42.91396,2.77796 -12.02207,2.58727 6.63972,-23.54609 -38.1882,77.63106 26.94375,-24.24926 27.43102,-31.02142 40.14141,63.15562 17.43962,-65.91519 -26.47675,-9.23005 12.45248,90.98275 -66.76082,-65.87843 -21.78467,36.42785 60.84167,5.16622 -56.95428,31.64351 14.47456,-52.80889 64.5736,38.79158 -82.46745,-8.99162 6.19495,-0.4645 94.85736,8.06116 -96.93409,-17.81052 36.34702,-40.51622 -38.81386,2.36092 51.68786,-20.80841 40.12657,91.7844 -39.12869,-14.17994 5.80991,-60.74056 -5.64181,11.80531 33.35294,-1.88805 -72.37381,54.41405 z"
       inkscape:transform-center-x="-1.7742397"
       inkscape:transform-center-y="-5.3335354" />
    <path
       sodipodi:type="arc"
       style="fill:#ffff00;fill-rule:evenodd;stroke:#ffff00;stroke-width:1px;stroke-linecap:butt;stroke-linejoin:miter;stroke-opacity:1;fill-opacity:1"
       id="path3871"
       sodipodi:cx="367.85715"
       sodipodi:cy="160.21933"
       sodipodi:rx="242.14285"
       sodipodi:ry="62.142857"
       d="m 609.35508,164.7518 a 242.14285,62.142857 0 1 1 0.0753,-0.2727 l -241.57328,-4.25977 z"
       sodipodi:start="0.073001135"
       sodipodi:end="6.3517872" />
    <path
       sodipodi:type="arc"
       style="fill:#4ba1ff;fill-opacity:1;fill-rule:evenodd;stroke:#4ba1ff;stroke-width:1px;stroke-linecap:butt;stroke-linejoin:miter;stroke-opacity:1"
       id="path3873"
       sodipodi:cx="412.85715"
       sodipodi:cy="593.79077"
       sodipodi:rx="121.42857"
       sodipodi:ry="48.57143"
       d="m 533.96231,597.33339 a 121.42857,48.57143 0 1 1 0.0378,-0.21314 l -121.14295,-3.32948 z"
       sodipodi:start="0.073001135"
       sodipodi:end="6.3517872"
       transform="matrix(1.0028485,0.05031256,-0.1488084,0.98969389,37.184997,49.633478)" />
    <path
       style="fill:none;stroke:#00ff00;stroke-width:3;stroke-linecap:butt;stroke-linejoin:miter;stroke-miterlimit:4;stroke-opacity:1;stroke-dasharray:none;marker-start:url(#CurveOut);marker-end:url(#CurveIn)"
       d="M 218.57143,163.79075 357.14286,646.64789"
       id="path3875"
       inkscape:connector-curvature="0"
       sodipodi:nodetypes="cc" />
    <path
       style="fill:none;stroke:#00ff00;stroke-width:3;stroke-linecap:butt;stroke-linejoin:miter;stroke-miterlimit:4;stroke-opacity:1;stroke-dasharray:none;marker-start:url(#CurveOut-9);marker-end:url(#CurveIn-8)"
       d="m 561.42857,163.79075 -192.85714,480"
       id="path4537"
       inkscape:connector-curvature="0"
       sodipodi:nodetypes="cc" />
    <path
       style="fill:none;stroke:#00ff00;stroke-width:3;stroke-linecap:butt;stroke-linejoin:miter;stroke-miterlimit:4;stroke-opacity:1;stroke-dasharray:none;marker-start:url(#CurveOut-9);marker-end:url(#CurveIn-8)"
       d="M 381.42857,112.36218 364.28571,643.79075"
       id="path4915"
       inkscape:connector-curvature="0"
       sodipodi:nodetypes="cc" />
    <path
       style="fill:none;stroke:#00ff00;stroke-width:3;stroke-linecap:butt;stroke-linejoin:miter;stroke-miterlimit:4;stroke-opacity:1;stroke-dasharray:none;marker-start:url(#CurveOut-9);marker-end:url(#CurveIn-8)"
       d="M 420,203.79075 365.71429,643.79076"
       id="path5293"
       inkscape:connector-curvature="0"
       sodipodi:nodetypes="cc" />
  </g>
</svg>
