<?xml version="1.0" encoding="UTF-8" standalone="no"?>
<!-- Created with Inkscape (http://www.inkscape.org/) -->

<svg
   xmlns:dc="http://purl.org/dc/elements/1.1/"
   xmlns:cc="http://creativecommons.org/ns#"
   xmlns:rdf="http://www.w3.org/1999/02/22-rdf-syntax-ns#"
   xmlns:svg="http://www.w3.org/2000/svg"
   xmlns="http://www.w3.org/2000/svg"
   xmlns:sodipodi="http://sodipodi.sourceforge.net/DTD/sodipodi-0.dtd"
   xmlns:inkscape="http://www.inkscape.org/namespaces/inkscape"
   width="744.09448819"
   height="1052.3622047"
   id="svg2"
   version="1.1"
   inkscape:version="0.48.4 r9939"
   sodipodi:docname="closedchain02.svg">
  <defs
     id="defs4" />
  <sodipodi:namedview
     id="base"
     pagecolor="#ffffff"
     bordercolor="#666666"
     borderopacity="1.0"
     inkscape:pageopacity="0.0"
     inkscape:pageshadow="2"
     inkscape:zoom="0.98994949"
     inkscape:cx="203.27407"
     inkscape:cy="174.73192"
     inkscape:document-units="px"
     inkscape:current-layer="layer1"
     showgrid="false"
     inkscape:window-width="1366"
     inkscape:window-height="701"
     inkscape:window-x="0"
     inkscape:window-y="0"
     inkscape:window-maximized="1" />
  <metadata
     id="metadata7">
    <rdf:RDF>
      <cc:Work
         rdf:about="">
        <dc:format>image/svg+xml</dc:format>
        <dc:type
           rdf:resource="http://purl.org/dc/dcmitype/StillImage" />
        <dc:title></dc:title>
      </cc:Work>
    </rdf:RDF>
  </metadata>
  <g
     inkscape:label="Layer 1"
     inkscape:groupmode="layer"
     id="layer1">
    <path
       style="fill:#000000;fill-opacity:1;fill-rule:nonzero;stroke:none"
       id="path2991"
       d="m 584.48828,656.32463 c -3.76812,2.3622 -6.75519,5.67266 -9.86005,8.80351 -3.26815,3.32368 -7.05424,6.06012 -10.94162,8.60476 -0.61521,0.37583 -1.22046,0.76848 -1.84564,1.12749 -4.85923,2.79039 -9.71628,5.5851 -14.60682,8.32025 -2.76045,1.54385 -5.74577,2.73889 -8.56327,4.18074 -4.63867,2.39016 -9.21479,4.894 -13.86712,7.25718 -2.29364,1.17937 -4.63629,2.26151 -6.88737,3.52303 -0.64445,0.36116 -2.55085,1.49164 -1.90979,1.1245 10.59802,-6.06965 14.43903,-8.4571 9.13237,-5.1898 -0.58336,0.35113 -1.16044,0.71291 -1.75007,1.0534 -4.8082,2.77658 -9.6089,5.56655 -14.44308,8.29762 -1.99051,1.12455 -4.21097,1.90247 -6.29055,2.85167 0.90133,-0.57564 -2.65858,1.51936 -1.99478,1.13804 31.51421,-18.10377 -0.35375,0.17671 -1.35018,0.71211 -4.02263,2.16144 15.82496,-9.12247 11.88352,-6.81631 -1.539,1.71817 -1.14323,6.12133 -1.21072,8.26784 -0.17584,8.69396 -0.19206,17.39043 -0.20659,26.08589 0.0753,9.92583 0.007,19.85172 -0.008,29.77759 0.18075,9.53021 -0.43912,19.0379 -1.06244,28.53984 -0.53225,6.17758 -1.32885,12.34285 -2.42408,18.44687 -0.31355,1.85661 -0.7482,3.69469 -1.03399,5.55603 0.36579,5.68017 -13.79374,13.16999 -14.09681,6.74021 -0.0204,-0.43357 0.13288,-0.85788 0.19932,-1.28681 0.22385,-0.53261 0.38845,-1.0942 0.67153,-1.59783 2.46882,-4.39213 8.16973,-8.86934 11.9763,-12.16435 5.34327,-4.38665 10.34448,-9.16991 15.68253,-13.5601 4.01956,-3.35019 8.48571,-6.10515 12.95035,-8.81273 4.82135,-2.77102 9.63065,-5.56312 14.46406,-8.31305 0.60842,-0.34616 1.24445,-0.64157 1.86018,-0.97453 0.58172,-0.31458 2.30471,-1.29835 1.73185,-0.96792 -20.30088,11.70966 -12.37479,7.21697 -8.00159,4.46739 3.13351,-2.10107 6.0967,-4.43887 9.10496,-6.71177 2.04223,-1.53459 4.03154,-3.14132 6.10132,-4.63892 0.64212,-0.45269 1.32395,-0.58288 1.37232,-1.42605 0.0786,-0.0396 0.15728,-0.0793 0.23593,-0.11893 0,0 13.89241,-5.90333 13.89241,-5.90333 l 0,0 c -0.0448,0.10864 -0.0896,0.21727 -0.13441,0.32591 -0.1,-0.0575 -0.18913,-0.20437 -0.29997,-0.17247 -0.10388,0.0299 -0.43774,1.90595 -1.10612,1.80954 -2.19333,1.43563 -4.23723,3.0672 -6.32126,4.65282 -3.00964,2.28286 -6.00954,4.57661 -9.05405,6.81306 -5.5779,3.67011 -11.51995,6.85717 -17.27829,10.16766 -0.56777,0.32642 -1.15111,0.62499 -1.72708,0.93671 -0.6105,0.33041 -2.43044,1.34202 -1.83234,0.98967 3.55513,-2.09434 7.13629,-4.14418 10.70443,-6.21627 -4.53253,2.61701 -9.02135,5.38562 -13.11602,8.65357 -5.4914,4.31044 -10.5207,9.16564 -15.91039,13.60129 -2.96077,2.51964 -2.97134,2.47815 -5.80965,5.09206 -2.08198,1.91737 -4.41615,3.91719 -5.99785,6.30498 -0.27672,0.41774 -0.44082,0.90001 -0.66122,1.35001 -2.3266,4.53166 -11.86071,6.83656 -13.70949,7.85535 -0.0792,0.0436 0.17835,0.0299 0.2672,0.0465 0.095,0.0178 0.2131,0.12238 0.28434,0.057 0.0874,-0.0802 0.0261,-0.23587 0.0392,-0.35381 0.26837,-1.95971 0.93619,-3.83804 1.29947,-5.78156 1.39152,-6.06873 2.19877,-12.26515 2.86098,-18.45092 0.73355,-9.50205 1.52782,-19.01171 1.315,-28.55364 -0.0176,-9.91852 -0.0898,-19.83699 -0.0329,-29.75554 -0.0299,-8.63062 -0.0892,-17.26116 -0.2097,-25.89105 -0.0273,-2.19913 -0.36447,-6.35803 0.12024,-8.51278 0.0437,-0.19449 0.16974,-0.36076 0.2546,-0.54114 2.77211,-5.20753 -0.34538,0.38803 13.69655,-8.39641 3.99488,-2.49914 -16.33026,9.41265 -12.23945,7.07382 5.10918,-2.92106 10.13502,-6.27061 15.51665,-8.78757 1.4548,-0.64136 2.93135,-1.24923 4.35736,-1.95329 0.58756,-0.29009 2.30609,-1.24441 1.74196,-0.91103 -3.60293,2.12925 -15.64745,9.05068 -9.03247,5.24772 7.99023,-5.13048 16.31338,-9.73318 24.82406,-13.93409 4.65351,-2.3939 9.23765,-4.91932 13.90816,-7.28093 2.15751,-1.07551 4.33953,-2.0988 6.4974,-3.17324 0.69718,-0.34713 2.74955,-1.4613 2.08257,-1.05919 -0.44684,0.2694 -16.00752,9.34953 -8.72381,5.09904 3.9339,-2.44936 7.77533,-5.10444 11.12273,-8.32693 3.05661,-3.08416 5.92608,-6.38886 9.45016,-8.9606 0,0 13.94901,-5.45786 13.94901,-5.45786 z"
       inkscape:connector-curvature="0" />
    <path
       style="fill:none;stroke:#000000;stroke-width:3;stroke-linecap:butt;stroke-linejoin:miter;stroke-opacity:1;stroke-miterlimit:4;stroke-dasharray:none"
       d="M 49.395949,965.42815 207.9899,963.40784"
       id="path2993"
       inkscape:connector-curvature="0" />
    <path
       style="fill:none;stroke:#000000;stroke-width:3;stroke-linecap:butt;stroke-linejoin:miter;stroke-opacity:1;stroke-miterlimit:4;stroke-dasharray:none"
       d="m 187.88837,971.54998 -33.33503,57.57872"
       id="path2995"
       inkscape:connector-curvature="0" />
    <path
       style="fill:none;stroke:#000000;stroke-width:3;stroke-linecap:butt;stroke-linejoin:miter;stroke-opacity:1;stroke-miterlimit:4;stroke-dasharray:none"
       d="M 158.69303,971.55046 125.358,1029.1292"
       id="path2995-4"
       inkscape:connector-curvature="0" />
    <path
       style="fill:none;stroke:#000000;stroke-width:3;stroke-linecap:butt;stroke-linejoin:miter;stroke-opacity:1;stroke-miterlimit:4;stroke-dasharray:none"
       d="M 128.55103,971.55045 95.216,1029.1292"
       id="path2995-4-1"
       inkscape:connector-curvature="0" />
    <path
       style="fill:none;stroke:#000000;stroke-width:3;stroke-linecap:butt;stroke-linejoin:miter;stroke-opacity:1;stroke-miterlimit:4;stroke-dasharray:none"
       d="M 98.15503,971.55042 64.82,1029.1292"
       id="path2995-4-1-0"
       inkscape:connector-curvature="0" />
    <path
       style="fill:none;stroke:#000000;stroke-width:3;stroke-linecap:butt;stroke-linejoin:miter;stroke-opacity:1;stroke-miterlimit:4;stroke-dasharray:none"
       d="M 68.06303,971.55042 34.728,1029.1292"
       id="path2995-4-1-5"
       inkscape:connector-curvature="0" />
    <path
       sodipodi:type="arc"
       style="fill:none;stroke:#000000;stroke-width:3;stroke-linecap:butt;stroke-linejoin:miter;stroke-miterlimit:4;stroke-opacity:1;stroke-dasharray:none"
       id="path3058"
       sodipodi:cx="133.34013"
       sodipodi:cy="908.41547"
       sodipodi:rx="30.304579"
       sodipodi:ry="65.154839"
       d="m 163.64471,908.41547 a 30.304579,65.154839 0 1 1 -60.60916,0 30.304579,65.154839 0 1 1 60.60916,0 z"
       transform="matrix(0.92475907,0.3805531,-0.3805531,0.92475907,363.73296,31.607023)" />
    <path
       sodipodi:type="arc"
       style="fill:#000000;fill-opacity:1;fill-rule:evenodd;stroke:#000000;stroke-width:1px;stroke-linecap:butt;stroke-linejoin:miter;stroke-opacity:1"
       id="path3828"
       sodipodi:cx="183.34268"
       sodipodi:cy="825.07788"
       sodipodi:rx="12.626906"
       sodipodi:ry="14.142136"
       d="m 195.96959,825.07788 a 12.626906,14.142136 0 1 1 -0.79766,-4.94676 l -11.82925,4.94676 z"
       transform="matrix(0.82637025,-0.96422496,0.94226855,0.80755293,-759.34977,364.27553)"
       sodipodi:start="0"
       sodipodi:end="5.9258395" />
    <path
       sodipodi:type="arc"
       style="fill:none;stroke:#000000;stroke-width:3;stroke-linecap:butt;stroke-linejoin:miter;stroke-miterlimit:4;stroke-opacity:1;stroke-dasharray:none"
       id="path3058-1"
       sodipodi:cx="133.34013"
       sodipodi:cy="908.41547"
       sodipodi:rx="30.304579"
       sodipodi:ry="65.154839"
       d="m 163.64471,908.41547 a 30.304579,65.154839 0 1 1 -60.60916,0 30.304579,65.154839 0 1 1 60.60916,0 z"
       transform="matrix(-0.14037994,0.99009771,-0.99009771,-0.14037994,1153.504,867.04845)" />
    <path
       sodipodi:type="arc"
       style="fill:none;stroke:#000000;stroke-width:3;stroke-linecap:butt;stroke-linejoin:miter;stroke-miterlimit:4;stroke-opacity:1;stroke-dasharray:none"
       id="path3058-3"
       sodipodi:cx="133.34013"
       sodipodi:cy="908.41547"
       sodipodi:rx="30.304579"
       sodipodi:ry="65.154839"
       d="m 163.64471,908.41547 a 30.304579,65.154839 0 1 1 -60.60916,0 30.304579,65.154839 0 1 1 60.60916,0 z"
       transform="matrix(0.71777625,0.69627384,-0.69627384,0.71777625,876.14788,96.40061)" />
    <path
       sodipodi:type="arc"
       style="fill:none;stroke:#000000;stroke-width:3;stroke-linecap:butt;stroke-linejoin:miter;stroke-miterlimit:4;stroke-opacity:1;stroke-dasharray:none"
       id="path3058-7"
       sodipodi:cx="133.34013"
       sodipodi:cy="908.41547"
       sodipodi:rx="30.304579"
       sodipodi:ry="65.154839"
       d="m 163.64471,908.41547 a 30.304579,65.154839 0 1 1 -60.60916,0 30.304579,65.154839 0 1 1 60.60916,0 z"
       transform="matrix(0.63964794,0.76866802,-0.76866802,0.63964794,822.08074,117.27383)" />
    <path
       sodipodi:type="arc"
       style="fill:none;stroke:#000000;stroke-width:3;stroke-linecap:butt;stroke-linejoin:miter;stroke-miterlimit:4;stroke-opacity:1;stroke-dasharray:none"
       id="path3058-6"
       sodipodi:cx="133.34013"
       sodipodi:cy="908.41547"
       sodipodi:rx="30.304579"
       sodipodi:ry="65.154839"
       d="m 163.64471,908.41547 a 30.304579,65.154839 0 1 1 -60.60916,0 30.304579,65.154839 0 1 1 60.60916,0 z"
       transform="matrix(-0.18159912,0.98337265,-0.98337265,-0.18159912,1230.6728,800.33343)" />
    <path
       sodipodi:type="arc"
       style="fill:none;stroke:#000000;stroke-width:3;stroke-linecap:butt;stroke-linejoin:miter;stroke-miterlimit:4;stroke-opacity:1;stroke-dasharray:none"
       id="path3058-12"
       sodipodi:cx="133.34013"
       sodipodi:cy="908.41547"
       sodipodi:rx="30.304579"
       sodipodi:ry="65.154839"
       d="m 163.64471,908.41547 a 30.304579,65.154839 0 1 1 -60.60916,0 30.304579,65.154839 0 1 1 60.60916,0 z"
       transform="matrix(0.24484707,0.96956171,-0.96956171,0.24484707,1292.584,418.82527)" />
    <path
       sodipodi:type="arc"
       style="fill:#000000;fill-opacity:1;fill-rule:evenodd;stroke:#000000;stroke-width:1px;stroke-linecap:butt;stroke-linejoin:miter;stroke-opacity:1"
       id="path3828-9"
       sodipodi:cx="183.34268"
       sodipodi:cy="825.07788"
       sodipodi:rx="12.626906"
       sodipodi:ry="14.142136"
       d="m 195.96959,825.07788 a 12.626906,14.142136 0 1 1 -0.79766,-4.94676 l -11.82925,4.94676 z"
       transform="matrix(0.14533611,1.2615447,-1.232818,0.14202666,1370.3419,442.25464)"
       sodipodi:start="0"
       sodipodi:end="5.9258395" />
    <path
       sodipodi:type="arc"
       style="fill:#000000;fill-opacity:1;fill-rule:evenodd;stroke:#000000;stroke-width:1px;stroke-linecap:butt;stroke-linejoin:miter;stroke-opacity:1"
       id="path3828-3"
       sodipodi:cx="183.34268"
       sodipodi:cy="825.07788"
       sodipodi:rx="12.626906"
       sodipodi:ry="14.142136"
       d="m 195.96959,825.07788 a 12.626906,14.142136 0 1 1 -0.79766,-4.94676 l -11.82925,4.94676 z"
       transform="matrix(1.2698888,0,0,1.2409721,22.74378,-262.46039)"
       sodipodi:start="0"
       sodipodi:end="5.9258395" />
    <path
       sodipodi:type="arc"
       style="fill:#000000;fill-opacity:1;fill-rule:evenodd;stroke:#000000;stroke-width:1px;stroke-linecap:butt;stroke-linejoin:miter;stroke-opacity:1"
       id="path3828-6"
       sodipodi:cx="183.34268"
       sodipodi:cy="825.07788"
       sodipodi:rx="12.626906"
       sodipodi:ry="14.142136"
       d="m 195.96959,825.07788 a 12.626906,14.142136 0 1 1 -0.79766,-4.94676 l -11.82925,4.94676 z"
       transform="matrix(-1.1617419,0.51280933,-0.50113212,-1.1352878,917.39383,1720.2868)"
       sodipodi:start="0"
       sodipodi:end="5.9258395" />
    <path
       style="fill:#000000;fill-opacity:1;fill-rule:nonzero;stroke:none"
       id="path3934"
       d="m 521.25323,700.81494 c -0.23306,2.75525 -0.1395,5.52268 -0.25428,8.28261 -0.17967,3.15709 -0.96498,6.2197 -1.40176,9.34032 -0.37835,2.84 -0.45701,5.70233 -0.48032,8.5631 -0.0688,2.97432 -0.0837,5.94946 -0.11691,8.92441 -0.0701,4.05187 -0.48958,8.08621 -0.73852,12.12961 -0.15068,3.53676 -0.25014,7.07556 -0.30155,10.61517 -0.0865,4.23608 -0.0959,8.47466 -0.0291,12.71111 0.10031,2.96935 0.11277,5.93953 0.14788,8.90995 0.0464,2.63021 -0.004,5.26075 -0.0355,7.89092 -4.8e-4,2.57209 0.0461,5.14387 0.0716,7.71578 -0.009,1.91484 0.0556,3.82852 0.0593,5.74306 0.0239,1.34567 0.0257,2.69175 0.0535,4.03731 -0.0127,1.183 -0.0307,2.36639 0.0226,3.54864 0.002,0.72222 0.0264,1.44253 0.0337,2.16421 0.003,0.0862 0.0824,0.30421 0.009,0.25864 -0.44594,-0.27749 -0.0758,-0.59638 -0.0282,-0.86985 -1.9286,-8.55799 0.0492,-0.71392 -21.32919,11.44964 -0.1963,0.11169 0.39708,-0.2179 0.57943,-0.35116 0.93936,-0.68651 1.61788,-1.62797 2.35091,-2.51694 1.79184,-2.47895 4.35649,-4.16184 6.62835,-6.15051 2.50951,-1.96978 4.85829,-4.11355 7.14067,-6.3398 2.32517,-2.17639 4.26258,-4.70687 6.4991,-6.96759 2.43393,-2.38928 5.31413,-4.2363 8.1634,-6.08032 13.80105,-8.27099 44.89834,-25.97919 3.70318,-2.27099 -0.42143,0.24254 0.84187,-0.48729 1.2529,-0.74707 1.3742,-0.86851 1.18416,-0.77897 2.44388,-1.81889 1.97654,-1.75352 3.86896,-3.6013 5.70906,-5.49686 1.79286,-1.69781 3.64735,-3.31986 5.6081,-4.81959 0.97465,-0.76404 0.99595,-0.81508 2.07345,-1.51091 7.57927,-4.89456 15.60979,-9.05223 23.42082,-13.56773 6.25191,-3.61419 -12.51597,7.20732 -18.77103,10.81606 1.75876,-1.1098 3.44637,-2.32226 5.17558,-3.47763 0.50365,-0.20284 0.782,-0.71684 1.23737,-0.9807 7.31839,-4.24071 14.70064,-8.37045 22.02575,-12.59954 0.41547,-0.23987 1.65059,-0.9787 1.23592,-0.73745 -6.90077,4.01485 -13.82925,7.98187 -20.74388,11.97281 0.57392,-0.13397 0.76484,-0.65686 1.15805,-0.97736 0.48579,-0.39597 0.64027,-0.23427 1.00628,-0.84467 0.0953,-0.10423 0.16134,-0.24623 0.28598,-0.31269 0.11411,-0.0609 0.27633,0.0243 0.38531,-0.0453 0.3731,-0.23838 0.73765,-0.80599 1.1044,-1.1115 21.99256,-12.48501 13.50794,-12.88195 22.25982,-12.40231 0,0 -19.92748,15.2816 -19.92748,15.2816 l 0,0 c -6.52119,5.38206 -0.29525,0.22337 21.06891,-12.0196 -0.33081,0.17145 -1.11882,0.41071 -1.34041,0.67498 -0.11916,0.14211 -0.0669,0.38449 -0.19054,0.52274 -0.0892,0.0997 -0.25549,0.0793 -0.38323,0.11897 -0.7509,0.14517 -0.44544,0.54613 -0.97228,0.9654 -0.1217,0.0969 -0.32291,0.0236 -0.45417,0.10698 -0.3393,0.21564 -0.43501,0.71442 -0.8074,0.89595 -7.29394,4.25881 -14.59067,8.51284 -21.88182,12.77642 -0.41407,0.24213 -1.69915,0.88969 -1.28505,0.64761 6.8672,-4.0145 13.78144,-7.94809 20.65494,-11.95178 0.46673,-0.27186 -2.09128,0.97248 -1.369,0.86689 -1.6774,1.35901 -3.5638,2.40816 -5.27703,3.71716 -71.63358,41.69805 14.53419,-8.52148 -6.77648,4.00963 -1.91046,1.52817 -3.92232,2.904 -5.6807,4.61914 -2.06434,1.73855 -3.7547,3.86411 -5.83947,5.5809 -7.21284,7.21814 -16.68823,10.76031 -25.76311,15.90991 -6.61976,3.75641 13.17286,-7.6291 19.75704,-11.44754 0.41411,-0.24017 -0.83122,0.47512 -1.24682,0.71268 -2.78201,1.9115 -5.77507,3.51317 -8.3741,5.68763 -2.33624,2.16284 -4.33689,4.57092 -6.46292,6.92918 -2.27788,2.26587 -4.51018,4.64065 -7.13676,6.50287 -0.41153,0.35538 -0.82306,0.71076 -1.23459,1.06614 -0.36809,0.36621 -0.71306,0.75725 -1.10428,1.09865 -1.05867,0.92388 -2.38974,1.55904 -3.42082,2.50461 -0.33047,0.30306 -0.58069,0.6834 -0.87103,1.0251 -5.7437,7.14858 -13.78816,23.25848 -24.91564,15.45063 -0.74897,-0.53436 -1.70322,-1.37586 -1.72485,-2.35221 0.007,-0.73307 0.0319,-1.46494 0.0337,-2.19854 0.0513,-1.19001 0.0369,-2.38099 0.0226,-3.57171 0.0276,-1.36371 0.0298,-2.72798 0.0535,-4.09181 0.004,-1.93469 0.0682,-3.86855 0.0593,-5.80353 0.0255,-2.59622 0.0719,-5.19232 0.0716,-7.78873 -0.0317,-2.61784 -0.0818,-5.236 -0.0361,-7.85389 0.0341,-3.0189 0.0448,-6.0376 0.14004,-9.05558 0.0607,-4.23486 0.0422,-8.47112 -0.0169,-12.70592 -0.008,-3.58384 -0.0462,-7.17075 0.24974,-10.74628 0.26227,-3.97615 0.79709,-7.95133 0.71146,-11.9384 -0.0405,-2.95762 -0.0796,-5.91514 -0.0883,-8.87299 0.0818,-2.97118 0.19316,-5.94836 0.53696,-8.90219 0.38255,-3.0847 0.98082,-6.10978 1.36653,-9.18883 0.33593,-2.62317 0.15032,-5.28654 -0.0126,-7.92007 0,0 22.25239,-11.33816 22.25239,-11.33816 z"
       inkscape:connector-curvature="0" />
    <path
       style="fill:#000000;fill-opacity:1;fill-rule:nonzero;stroke:none"
       id="path3936"
       d="m 571.67107,669.26668 c -1.90717,1.81118 -3.6607,3.766 -5.54377,5.60445 -1.76956,1.89599 -3.79938,3.46819 -5.94124,4.91177 -7.91348,5.57769 -2.06889,1.50177 -23.20829,13.56654 -0.38523,0.21986 -0.82576,0.32551 -1.22831,0.51178 -1.10335,0.51056 -2.1578,1.10286 -3.1746,1.76528 0.57001,-0.48903 -2.48921,1.40135 -1.87025,1.04513 6.74281,-3.8806 13.46169,-7.80271 20.20916,-11.67518 0.59457,-0.34123 -1.13701,0.76851 -1.73238,1.10833 -7.36015,4.2009 -14.7317,8.3818 -22.09755,12.57271 -13.41557,6.49522 25.51111,-15.06041 16.89325,-9.9755 -1.3424,0.92905 -2.82104,1.62215 -4.08229,2.66844 -1.02818,0.65347 -2.0583,1.34239 -3.05423,2.06231 -7.41048,5.85936 -6.95707,4.61565 -23.08018,13.73915 -1.44713,0.81888 0.11861,-0.80471 -0.93784,0.42103 -0.49348,0.58767 -1.60982,0.22819 -2.14339,0.60441 -0.13816,0.0974 -0.15975,0.29799 -0.23962,0.44698 -0.14591,0.0752 -0.29182,0.15046 -0.43773,0.22568 -7.44586,3.95853 -15.5036,8.74321 20.32648,-11.98662 0.13366,-0.0773 -0.15812,0.28151 -0.29068,0.36072 -21.38164,12.77588 -13.59817,10.82427 -22.26489,12.94092 -0.20261,0.19076 -0.56703,0.0422 -0.78177,0.20486 -0.10851,0.0822 -0.33882,0.411 -0.22047,0.34375 6.96444,-3.95763 27.7341,-16.04607 20.79309,-12.04751 -7.27649,4.19182 -14.54853,8.39136 -21.82279,12.58704 -8.48227,1.2696 -11.575,6.12328 20.5808,-12.08086 0.11789,-0.0667 -0.1656,0.22524 -0.28443,0.29029 -0.84363,0.46184 0.0216,-0.48342 -0.75128,0.54793 -0.80157,0.14306 -0.84099,1.21276 -1.42676,1.55921 -11.0793,6.55265 -46.12006,26.72132 -0.82767,0.60093 -7.21868,5.98059 -15.08096,11.7974 -24.25802,13.22472 -1.62671,-1.3162 -1.81681,-3.11463 -1.40802,-5.02225 0.49535,-1.4207 1.35181,-2.6998 2.25774,-3.8875 0.5798,-0.46859 0.98612,-1.34054 1.62996,-1.72484 7.2777,-4.344 14.96902,-8.02769 21.95033,-12.83359 0.71019,-0.48889 -58.00433,33.61629 1.37355,-0.85388 1.32565,-0.51582 2.57341,-1.13487 3.9469,-1.54472 0.31655,-0.2783 0.72482,-0.0608 1.06855,-0.16997 0.17175,-0.0546 0.28601,-0.22542 0.45069,-0.29859 0.644,-0.28612 1.43735,-0.32578 2.12153,-0.46657 1.35167,0.20966 2.21687,-0.89545 3.4317,-1.13222 1.13089,0.0269 2.25979,-0.15168 3.38894,-0.11216 10.37722,-0.60917 -28.39016,16.92465 -20.15377,11.51185 7.0875,-4.76399 9.04842,-6.0898 22.08448,-12.60898 7.29004,-3.64566 -14.13408,8.12237 -21.22489,12.14182 -0.14472,0.082 0.23492,-0.24139 0.3787,-0.32507 21.76501,-12.66787 13.45064,-11.9138 22.37034,-12.63708 10.76261,-1.35685 -4.43572,3.58128 -19.1997,11.70016 0.56602,0.46843 0.23845,-0.35571 0.65759,-0.47091 0.56854,-0.15627 0.41495,0.57011 0.74389,-0.53495 0.65253,-1.54044 1.03048,0.4278 1.17328,-1.02833 0.0907,-0.2774 0.26429,-0.49157 0.44787,-0.70952 0,0 23.48478,-9.03442 23.48478,-9.03442 l 0,0 c -0.24327,0.0465 -0.4848,0.10835 -0.73481,0.10132 -0.98919,-0.43375 0.42719,1.24945 -1.15349,1.15426 -0.76272,-0.0663 -0.27296,0.44575 -0.54619,0.94911 -0.26726,0.49236 -0.85673,-0.62411 -0.62668,0.53783 -13.40507,7.38454 -15.15859,9.40444 -23.92293,12.79709 -7.72539,6.748 63.39908,-38.77905 -1.57603,0.88068 -6.89831,4.21061 28.38384,-16.93477 21.03033,-12.0652 -7.33039,4.97078 -14.51745,12.32237 -23.4389,12.45363 -0.99508,0.12771 -2.02867,0.14295 -2.9108,0.68877 -1.09629,0.60918 -2.34341,0.47401 -3.51208,0.87287 -1.19484,0.34281 -2.35051,0.76544 -3.50942,1.1788 -1.23482,0.54452 -2.46729,1.10704 -3.60754,1.82798 6.85435,-3.98093 27.36,-16.02098 20.56306,-11.9428 -7.2567,4.35402 -14.4433,8.8487 -21.94244,12.77043 -7.02002,3.67117 13.6755,-8.00084 20.50348,-12.01792 0.84954,-0.49981 -2.63647,1.50918 -1.76661,1.3326 -0.33623,0.28743 -0.74758,0.50261 -1.0147,0.85518 -0.15064,0.19884 -0.19272,0.46349 -0.33057,0.6714 -0.36254,0.54684 -0.97757,0.90844 -1.25986,1.51938 -0.64033,0.82095 -0.67646,2.00773 -1.25641,0.25313 0.35163,-0.11998 0.72574,-0.23657 1.04229,-0.436 0.1483,-0.0934 0.56946,-0.40699 0.41733,-0.31992 -21.55772,12.33857 -28.46741,14.98993 -20.4587,11.88299 7.2772,-4.22403 14.201,-9.12609 21.83159,-12.67209 7.33652,-3.40935 -13.97029,8.16235 -20.94557,12.26036 -0.13435,0.0789 0.27922,-0.13853 0.42138,-0.20233 0.60107,-0.26975 0.78853,-0.63075 1.0705,-1.23745 0.92544,-0.47583 -0.065,0.15517 0.59496,-0.76569 0.0664,-0.0927 0.21415,-0.0812 0.31298,-0.13811 5.61085,-3.22878 15.27625,-8.10346 22.31738,-12.92939 -7.04016,4.08211 -14.06771,8.18604 -21.12047,12.24633 -0.10939,0.063 0.17489,-0.18694 0.28386,-0.25065 7.24406,-4.23491 14.47992,-8.48461 21.769,-12.64155 0.29077,-0.16582 0.85678,-0.0139 1.09395,-0.38741 6.77035,-5.21763 0.60841,-0.44516 -20.55487,12.05479 -0.11102,0.0656 0.23104,-0.11508 0.34177,-0.18114 7.57114,-4.51649 14.72109,-9.15443 22.33109,-13.30886 0.92082,-0.53417 -0.0904,-0.0441 1.00372,-0.25756 0.66315,-0.12938 1.18088,-0.78977 1.80509,-1.01975 0.18951,-0.0357 0.39404,-0.025 0.56852,-0.10715 0.15029,-0.0707 0.51343,-0.41723 0.36944,-0.33441 -7.00127,4.02674 -13.96728,8.1145 -20.95092,12.17175 0.60095,-0.16786 0.91156,-0.45452 1.31475,-0.93876 1.0194,-0.79335 2.11739,-1.46423 3.06376,-2.3105 1.5114,-0.65722 2.58558,-2.07933 4.1799,-2.62927 7.96459,-5.79489 16.69906,-10.54569 25.67178,-14.54453 -43.71321,25.18554 -7.72512,4.53169 5.29554,-3.13112 1.06436,-0.53103 2.15363,-1.02698 3.20548,-1.58166 0.3826,-0.20177 1.503,-0.85702 1.12896,-0.63978 -19.35727,11.24215 -26.70882,15.38072 -18.91677,10.98822 2.06308,-1.50762 4.38342,-2.67761 6.14408,-4.57065 1.81994,-1.76114 3.69882,-3.45813 5.26454,-5.45097 0,0 23.03946,-9.54325 23.03946,-9.54325 z"
       inkscape:connector-curvature="0" />
  </g>
</svg>
