<?xml version="1.0" encoding="UTF-8" standalone="no"?>
<!-- Created with Inkscape (http://www.inkscape.org/) -->

<svg
   xmlns:dc="http://purl.org/dc/elements/1.1/"
   xmlns:cc="http://creativecommons.org/ns#"
   xmlns:rdf="http://www.w3.org/1999/02/22-rdf-syntax-ns#"
   xmlns:svg="http://www.w3.org/2000/svg"
   xmlns="http://www.w3.org/2000/svg"
   xmlns:sodipodi="http://sodipodi.sourceforge.net/DTD/sodipodi-0.dtd"
   xmlns:inkscape="http://www.inkscape.org/namespaces/inkscape"
   width="744.09448819"
   height="1052.3622047"
   id="svg2"
   version="1.1"
   inkscape:version="0.48.4 r9939"
   sodipodi:docname="corobot04.svg">
  <defs
     id="defs4">
    <marker
       inkscape:stockid="CurveIn"
       orient="auto"
       refY="0.0"
       refX="0.0"
       id="CurveIn"
       style="overflow:visible">
      <path
         id="path7475"
         d="M 4.6254930,-5.0456926 C 1.8654930,-5.0456926 -0.37450702,-2.8056926 -0.37450702,-0.045692580 C -0.37450702,2.7143074 1.8654930,4.9543074 4.6254930,4.9543074"
         style="fill-rule:evenodd;stroke:#000000;stroke-width:1.0pt;fill:none"
         transform="scale(0.6)" />
    </marker>
    <marker
       inkscape:stockid="DotS"
       orient="auto"
       refY="0.0"
       refX="0.0"
       id="DotS"
       style="overflow:visible">
      <path
         id="path7928"
         d="M -2.5,-1.0 C -2.5,1.7600000 -4.7400000,4.0 -7.5,4.0 C -10.260000,4.0 -12.5,1.7600000 -12.5,-1.0 C -12.5,-3.7600000 -10.260000,-6.0 -7.5,-6.0 C -4.7400000,-6.0 -2.5,-3.7600000 -2.5,-1.0 z "
         style="fill-rule:evenodd;stroke:#000000;stroke-width:1.0pt"
         transform="scale(0.2) translate(7.4, 1)" />
    </marker>
    <marker
       inkscape:stockid="Arrow2Sstart"
       orient="auto"
       refY="0.0"
       refX="0.0"
       id="Arrow2Sstart"
       style="overflow:visible">
      <path
         id="path7891"
         style="fill-rule:evenodd;stroke-width:0.62500000;stroke-linejoin:round"
         d="M 8.7185878,4.0337352 L -2.2072895,0.016013256 L 8.7185884,-4.0017078 C 6.9730900,-1.6296469 6.9831476,1.6157441 8.7185878,4.0337352 z "
         transform="scale(0.3) translate(-2.3,0)" />
    </marker>
    <marker
       inkscape:stockid="Arrow1Mstart"
       orient="auto"
       refY="0.0"
       refX="0.0"
       id="Arrow1Mstart"
       style="overflow:visible">
      <path
         id="path7867"
         d="M 0.0,0.0 L 5.0,-5.0 L -12.5,0.0 L 5.0,5.0 L 0.0,0.0 z "
         style="fill-rule:evenodd;stroke:#000000;stroke-width:1.0pt"
         transform="scale(0.4) translate(10,0)" />
    </marker>
    <inkscape:perspective
       sodipodi:type="inkscape:persp3d"
       inkscape:vp_x="-15.714286 : 611.89538 : 1"
       inkscape:vp_y="0 : 1000 : 0"
       inkscape:vp_z="491.23733 : 369.03824 : 1"
       inkscape:persp3d-origin="356.33295 : 436.50168 : 1"
       id="perspective2985" />
    <filter
       id="filter3015"
       inkscape:menu-tooltip="3D warped, fibered wood texture"
       inkscape:menu="Materials"
       inkscape:label="3D wood"
       height="1.5"
       y="-0.25"
       width="1.5"
       x="-0.25"
       color-interpolation-filters="sRGB">
      <feGaussianBlur
         id="feGaussianBlur3017"
         result="result8"
         stdDeviation="4" />
      <feTurbulence
         id="feTurbulence3019"
         baseFrequency="0.025 0.2"
         numOctaves="3"
         type="fractalNoise"
         result="result7"
         seed="22" />
      <feComposite
         id="feComposite3021"
         in2="result8"
         operator="in"
         in="SourceGraphic"
         result="result6" />
      <feDisplacementMap
         id="feDisplacementMap3023"
         in2="result6"
         result="result4"
         scale="50"
         yChannelSelector="A"
         xChannelSelector="A"
         in="result7" />
      <feFlood
         id="feFlood3025"
         flood-color="rgb(230,211,138)"
         flood-opacity="1"
         in="result4"
         result="result9" />
      <feComposite
         id="feComposite3027"
         in2="result4"
         operator="atop"
         result="result2" />
      <feComposite
         id="feComposite3029"
         in2="SourceGraphic"
         operator="atop"
         in="result2"
         result="result9" />
      <feGaussianBlur
         id="feGaussianBlur3031"
         result="result0"
         in="result9"
         stdDeviation="8" />
      <feSpecularLighting
         id="feSpecularLighting3033"
         specularExponent="15"
         specularConstant="0.7"
         surfaceScale="5"
         lighting-color="rgb(255,255,255)"
         result="result1"
         in="result0">
        <feDistantLight
           id="feDistantLight3035"
           azimuth="235"
           elevation="50" />
      </feSpecularLighting>
      <feComposite
         id="feComposite3037"
         in2="result9"
         operator="in"
         result="result2"
         in="result1" />
      <feComposite
         id="feComposite3039"
         in2="result2"
         k3="0.5"
         k2="0.5"
         operator="arithmetic"
         result="result4"
         in="result9" />
      <feConvolveMatrix
         id="feConvolveMatrix3041"
         order="3 3"
         kernelMatrix="2 0 0 0 2 0 0 0 -2 "
         targetX="2"
         targetY="2"
         result="result10" />
      <feBlend
         id="feBlend3043"
         in2="result10"
         mode="multiply"
         in="result10" />
    </filter>
    <marker
       inkscape:stockid="DotS"
       orient="auto"
       refY="0"
       refX="0"
       id="DotS-1"
       style="overflow:visible">
      <path
         inkscape:connector-curvature="0"
         id="path7928-3"
         d="m -2.5,-1 c 0,2.76 -2.24,5 -5,5 -2.76,0 -5,-2.24 -5,-5 0,-2.76 2.24,-5 5,-5 2.76,0 5,2.24 5,5 z"
         style="fill-rule:evenodd;stroke:#000000;stroke-width:1pt"
         transform="matrix(0.2,0,0,0.2,1.48,0.2)" />
    </marker>
    <marker
       inkscape:stockid="DotS"
       orient="auto"
       refY="0"
       refX="0"
       id="marker9057"
       style="overflow:visible">
      <path
         inkscape:connector-curvature="0"
         id="path9059"
         d="m -2.5,-1 c 0,2.76 -2.24,5 -5,5 -2.76,0 -5,-2.24 -5,-5 0,-2.76 2.24,-5 5,-5 2.76,0 5,2.24 5,5 z"
         style="fill-rule:evenodd;stroke:#000000;stroke-width:1pt"
         transform="matrix(0.2,0,0,0.2,1.48,0.2)" />
    </marker>
  </defs>
  <sodipodi:namedview
     id="base"
     pagecolor="#ffffff"
     bordercolor="#666666"
     borderopacity="1.0"
     inkscape:pageopacity="0.0"
     inkscape:pageshadow="2"
     inkscape:zoom="0.7"
     inkscape:cx="293.99824"
     inkscape:cy="396.68288"
     inkscape:document-units="px"
     inkscape:current-layer="layer1"
     showgrid="false"
     inkscape:window-width="1280"
     inkscape:window-height="733"
     inkscape:window-x="0"
     inkscape:window-y="0"
     inkscape:window-maximized="1" />
  <metadata
     id="metadata7">
    <rdf:RDF>
      <cc:Work
         rdf:about="">
        <dc:format>image/svg+xml</dc:format>
        <dc:type
           rdf:resource="http://purl.org/dc/dcmitype/StillImage" />
        <dc:title />
      </cc:Work>
    </rdf:RDF>
  </metadata>
  <g
     inkscape:label="Layer 1"
     inkscape:groupmode="layer"
     id="layer1">
    <g
       id="g4808">
      <g
         inkscape:corner7="-0.11717604 : 0.045080355 : 0.25 : 1"
         inkscape:corner0="0.50539346 : 0.1510348 : 0 : 1"
         inkscape:perspectiveID="#perspective2985"
         id="g2987"
         style="opacity:0.01000001;fill:#fdd99b;fill-opacity:1;stroke:#0000ff;stroke-width:3;stroke-miterlimit:4;stroke-opacity:1;stroke-dasharray:none"
         sodipodi:type="inkscape:box3d">
        <path
           d="m 268.43007,488.93069 156.15807,26.63444 0,93.53125 -156.15807,-59.80632 z"
           inkscape:box3dsidetype="11"
           style="fill:#e9e9ff;fill-rule:evenodd;stroke:none"
           id="path2999"
           sodipodi:type="inkscape:box3dside" />
        <path
           d="m 231.42857,456.64789 0,70.38322 37.0015,22.25895 0,-60.35937 z"
           inkscape:box3dsidetype="6"
           style="fill:#353564;fill-rule:evenodd;stroke:none"
           id="path2989"
           sodipodi:type="inkscape:box3dside" />
        <path
           d="m 231.42857,456.64789 174.28571,11.41094 18.87386,47.5063 -156.15807,-26.63444 z"
           inkscape:box3dsidetype="5"
           style="fill:#d40000"
           id="path2991"
           sodipodi:type="inkscape:box3dside" />
        <path
           d="m 231.42857,527.03111 174.28571,61.04535 18.87386,21.01992 -156.15807,-59.80632 z"
           inkscape:box3dsidetype="13"
           style="fill:#afafde;fill-rule:evenodd;stroke:none"
           id="path2997"
           sodipodi:type="inkscape:box3dside" />
        <path
           d="m 405.71428,468.05883 0,120.01763 18.87386,21.01992 0,-93.53125 z"
           inkscape:box3dsidetype="14"
           style="fill:#f44800"
           id="path2995"
           sodipodi:type="inkscape:box3dside" />
        <path
           d="m 231.42857,456.64789 174.28571,11.41094 0,120.01763 -174.28571,-61.04535 z"
           inkscape:box3dsidetype="3"
           style="fill:#015a01"
           id="path2993"
           sodipodi:type="inkscape:box3dside" />
      </g>
      <path
         inkscape:connector-curvature="0"
         d="m 228.63067,466.51716 c -0.63152,12.0667 -0.5082,24.15014 -0.26207,36.22496 1.11436,19.13434 1.7703,38.26148 1.77927,57.42805 -0.29244,26.7837 -0.0654,53.56989 0.6935,80.34384 0.66636,11.3751 -1.67595,22.5099 -3.36894,33.6774 -2.13574,16.99621 -2.22391,34.16696 -2.3838,51.27083 -0.077,12.12129 0.17966,24.2404 0.44751,36.3578 0.10947,3.82996 0.35054,7.63898 -0.30229,11.42841 -0.3916,1.66219 -0.55708,3.3598 -1.0417,4.99815 0,0 -19.20337,9.04999 -19.20337,9.04999 l 0,0 c 0.54865,-1.60058 0.91274,-3.1432 1.1444,-4.83179 1.00142,-3.69236 0.95867,-7.42265 0.9422,-11.23479 0.2272,-12.31034 0.50566,-24.61986 0.62814,-36.93194 0.18826,-17.04176 0.0568,-34.13537 1.50723,-51.12595 1.5056,-11.22284 4.14874,-22.31225 4.07491,-33.7107 0.68536,-26.87507 0.84401,-53.76996 -0.0412,-80.64326 -0.62644,-19.03317 -1.36583,-38.06158 -2.41886,-57.07667 -0.41021,-11.868 -0.66221,-23.73771 -1.0756,-35.60412 0,0 18.88072,-9.62021 18.88072,-9.62021 z"
         id="path3045-3"
         style="opacity:0.01000001;fill:#fdd99b;fill-opacity:1;stroke:#0000ff;stroke-width:3;stroke-miterlimit:4;stroke-opacity:1;stroke-dasharray:none" />
      <path
         inkscape:connector-curvature="0"
         d="m 239.95457,315.22356 c -0.1869,1.48135 -0.42759,2.9569 -0.56069,4.44405 -1.40272,15.67302 -1.69966,31.45001 -2.07409,47.17029 -0.59371,24.92678 -0.52868,26.4017 -0.82366,52.04277 -0.43716,60.26122 -0.61058,120.52247 -0.43463,180.78492 -0.0135,39.04358 0.95522,78.07522 1.55084,117.11032 0.0496,7.4417 0.41675,14.9435 -1.01443,22.2874 -0.29372,1.3587 -0.58582,2.7186 -0.73624,4.101 -0.12648,2.3128 -0.12497,4.6317 -0.13073,6.9475 0.0165,2.0967 0.0479,4.1932 0.0836,6.2896 0,0 -18.96434,9.6651 -18.96434,9.6651 l 0,0 c 0.0315,-2.1207 0.0555,-4.2415 0.0636,-6.3625 -0.0144,-2.3225 -0.06,-4.6443 -0.0901,-6.9666 0.008,-1.5411 0.2936,-3.023 0.70222,-4.5095 2.07365,-7.4094 2.53495,-15.0607 2.8944,-22.7262 1.81387,-39.57388 1.28068,-79.22386 1.87985,-118.82456 0.18931,-60.17439 0.0117,-120.34737 -0.0942,-180.52178 -0.14613,-33.86252 -0.29741,-67.73064 -1.26451,-101.58154 0,0 19.01316,-9.35027 19.01316,-9.35027 z"
         id="path3047-0"
         style="fill:#000000;fill-opacity:1;fill-rule:nonzero;stroke:none" />
      <path
         inkscape:connector-curvature="0"
         d="m 196.25812,752.48484 c 6.87319,0.17777 13.75021,0.15369 20.62522,0.14729 7.371,-0.025 14.74204,-0.006 22.11305,-0.0125 7.28398,0.0167 14.56786,0.005 21.85176,-0.022 4.86618,-0.0235 9.73231,-0.0552 14.59847,-0.084 2.61963,-0.0144 5.23943,-0.0193 7.85881,-0.0613 0.94398,0.009 1.88766,-0.0282 2.83152,-0.021 0,0 -17.26312,12.54238 -17.26312,12.54238 l 0,0 c -0.92459,0.007 -1.84898,-0.0298 -2.7737,-0.021 -2.56309,-0.043 -5.12665,-0.0465 -7.69001,-0.0613 -4.78905,-0.0288 -9.57808,-0.0606 -14.36716,-0.084 -7.26377,-0.0272 -14.52752,-0.0385 -21.79135,-0.0219 -7.35954,-0.007 -14.71909,0.0126 -22.07861,-0.0125 -7.01021,-0.007 -14.02217,-0.0265 -21.03068,0.14729 0,0 17.1158,-12.43536 17.1158,-12.43536 z"
         id="path3049-2"
         style="fill:#000000;fill-opacity:1;fill-rule:nonzero;stroke:none" />
      <path
         inkscape:connector-curvature="0"
         d="m 272.62105,768.21551 c -1.97751,3.38066 -3.89685,6.79744 -5.90239,10.16223 -0.99495,1.69829 -1.8583,3.46514 -2.85742,5.16182 -3.76644,6.60522 -11.88953,11.22322 -19.47654,11.67552 0,0 16.92442,-13.01457 16.92442,-13.01457 l 0,0 c 6.78495,-4.13245 -22.34086,16.46807 -16.96109,9.90897 1.16703,-1.6513 2.20218,-3.37287 3.05488,-5.20932 2.10273,-3.23439 3.95901,-6.6165 5.90279,-9.94577 0,0 19.31535,-8.73888 19.31535,-8.73888 z"
         id="path3051-2"
         style="fill:#000000;fill-opacity:1;fill-rule:nonzero;stroke:none" />
      <path
         inkscape:connector-curvature="0"
         d="m 232.23185,766.63131 c -1.97751,3.38066 -3.89685,6.79744 -5.90239,10.16223 -0.99495,1.69829 -1.8583,3.46514 -2.85742,5.16182 -3.76645,6.60522 -11.88955,11.22322 -19.47656,11.67552 0,0 16.92444,-13.01457 16.92444,-13.01457 l 0,0 c 6.78495,-4.13245 -22.34088,16.46807 -16.96111,9.90897 1.16703,-1.6513 2.20218,-3.37287 3.05488,-5.20932 2.10273,-3.23439 3.95901,-6.6165 5.90279,-9.94577 0,0 19.31537,-8.73888 19.31537,-8.73888 z"
         id="path3051-7-3"
         style="fill:#000000;fill-opacity:1;fill-rule:nonzero;stroke:none" />
      <path
         inkscape:connector-curvature="0"
         d="m 252.23185,766.63131 c -1.97751,3.38066 -3.89685,6.79744 -5.90239,10.16223 -0.99495,1.69829 -1.8583,3.46514 -2.85742,5.16182 -3.76644,6.60522 -11.88954,11.22322 -19.47655,11.67552 0,0 16.92443,-13.01457 16.92443,-13.01457 l 0,0 c 6.78495,-4.13245 -22.34088,16.46807 -16.9611,9.90897 1.16703,-1.6513 2.20218,-3.37287 3.05488,-5.20932 2.10273,-3.23439 3.95901,-6.6165 5.90279,-9.94577 0,0 19.31536,-8.73888 19.31536,-8.73888 z"
         id="path3051-1-9"
         style="fill:#000000;fill-opacity:1;fill-rule:nonzero;stroke:none" />
      <path
         inkscape:connector-curvature="0"
         d="m 209.08899,766.91702 c -1.97751,3.38066 -3.89685,6.79744 -5.90239,10.16223 -0.99495,1.69829 -1.8583,3.46514 -2.85742,5.16182 -3.76644,6.60521 -11.88954,11.22321 -19.47655,11.67551 0,0 16.92443,-13.01456 16.92443,-13.01456 l 0,0 c 6.78495,-4.13245 -22.34087,16.46806 -16.9611,9.90896 1.16703,-1.6513 2.20218,-3.3729 3.05488,-5.2093 2.10273,-3.2344 3.95901,-6.61651 5.90279,-9.94578 0,0 19.31536,-8.73888 19.31536,-8.73888 z"
         id="path3051-8-3"
         style="fill:#000000;fill-opacity:1;fill-rule:nonzero;stroke:none" />
      <path
         inkscape:connector-curvature="0"
         d="m 186.80327,766.63128 c -1.97751,3.3807 -3.89685,6.7975 -5.90239,10.1623 -0.99495,1.6982 -1.8583,3.4651 -2.85742,5.1618 -3.76644,6.6052 -11.88954,11.2232 -19.47655,11.6755 0,0 16.92443,-13.0146 16.92443,-13.0146 l 0,0 c 6.78495,-4.1324 -22.34087,16.4681 -16.9611,9.909 1.16703,-1.6513 2.20218,-3.3729 3.05488,-5.2093 2.10273,-3.2344 3.95901,-6.6165 5.90279,-9.9458 0,0 19.31536,-8.7389 19.31536,-8.7389 z"
         id="path3051-72-0"
         style="fill:#000000;fill-opacity:1;fill-rule:nonzero;stroke:none" />
      <path
         inkscape:connector-curvature="0"
         d="m 561.20209,679.37431 c -0.63152,12.0667 -0.5082,24.15014 -0.26207,36.22496 1.11436,19.13434 1.7703,38.26148 1.77927,57.42805 -0.29244,26.7837 -0.0654,53.56989 0.6935,80.34384 0.66636,11.3751 -1.67595,22.5099 -3.36894,33.6774 -2.13574,16.99621 -2.22391,34.16696 -2.3838,51.27083 -0.077,12.12129 0.17966,24.2404 0.44751,36.3578 0.10947,3.82996 0.35054,7.63898 -0.30229,11.42841 -0.3916,1.66219 -0.55708,3.3598 -1.0417,4.99815 0,0 -19.20336,9.04995 -19.20336,9.04995 l 0,0 c 0.54865,-1.60054 0.91274,-3.14316 1.1444,-4.83175 1.00141,-3.69236 0.95867,-7.42265 0.9422,-11.23479 0.2272,-12.31034 0.50566,-24.61986 0.62814,-36.93194 0.18826,-17.04176 0.0568,-34.13537 1.50722,-51.12595 1.50561,-11.22284 4.14874,-22.31225 4.07492,-33.7107 0.68535,-26.87507 0.844,-53.76996 -0.0413,-80.64326 -0.62644,-19.03317 -1.36583,-38.06158 -2.41886,-57.07667 -0.41021,-11.868 -0.66222,-23.73771 -1.07561,-35.60412 0,0 18.88072,-9.62021 18.88072,-9.62021 z"
         id="path3045-9"
         style="opacity:0.01000001;fill:#fdd99b;fill-opacity:1;stroke:#0000ff;stroke-width:3;stroke-miterlimit:4;stroke-opacity:1;stroke-dasharray:none" />
      <path
         inkscape:connector-curvature="0"
         d="m 528.82954,965.34199 c 6.8732,0.17777 13.75022,0.15369 20.62522,0.14729 7.371,-0.025 14.74204,-0.006 22.11305,-0.0125 7.28398,0.0167 14.56786,0.005 21.85177,-0.022 4.86618,-0.0235 9.73231,-0.0552 14.59847,-0.084 2.61963,-0.0144 5.23943,-0.0193 7.85881,-0.0613 0.94398,0.009 1.88766,-0.0282 2.83152,-0.021 0,0 -17.26312,12.54238 -17.26312,12.54238 l 0,0 c -0.92459,0.007 -1.84898,-0.0298 -2.7737,-0.021 -2.56309,-0.043 -5.12665,-0.0465 -7.69001,-0.0613 -4.78906,-0.0288 -9.57809,-0.0606 -14.36717,-0.084 -7.26377,-0.0272 -14.52752,-0.0385 -21.79135,-0.0219 -7.35953,-0.007 -14.71909,0.0126 -22.07861,-0.0125 -7.0102,-0.007 -14.02217,-0.0265 -21.03068,0.14729 0,0 17.1158,-12.43536 17.1158,-12.43536 z"
         id="path3049-9"
         style="fill:#000000;fill-opacity:1;fill-rule:nonzero;stroke:none" />
      <path
         inkscape:connector-curvature="0"
         d="m 605.19248,981.07266 c -1.97751,3.38066 -3.89685,6.79744 -5.90239,10.16223 -0.99495,1.69829 -1.8583,3.46514 -2.85742,5.16182 -3.76644,6.60519 -11.88954,11.22319 -19.47655,11.67549 0,0 16.92443,-13.01454 16.92443,-13.01454 l 0,0 c 6.78495,-4.13245 -22.34087,16.46804 -16.9611,9.90894 1.16703,-1.6513 2.20218,-3.3728 3.05488,-5.20929 2.10273,-3.23439 3.95901,-6.6165 5.90279,-9.94577 0,0 19.31536,-8.73888 19.31536,-8.73888 z"
         id="path3051-6"
         style="fill:#000000;fill-opacity:1;fill-rule:nonzero;stroke:none" />
      <path
         inkscape:connector-curvature="0"
         d="m 564.80327,979.48846 c -1.97751,3.38066 -3.89685,6.79744 -5.90239,10.16223 -0.99495,1.69829 -1.8583,3.46514 -2.85742,5.16182 -3.76644,6.60519 -11.88954,11.22319 -19.47655,11.67549 0,0 16.92443,-13.01454 16.92443,-13.01454 l 0,0 c 6.78495,-4.13245 -22.34087,16.46804 -16.9611,9.90894 1.16703,-1.6513 2.20218,-3.3728 3.05488,-5.20929 2.10273,-3.23439 3.95901,-6.6165 5.90279,-9.94577 0,0 19.31536,-8.73888 19.31536,-8.73888 z"
         id="path3051-7-4"
         style="fill:#000000;fill-opacity:1;fill-rule:nonzero;stroke:none" />
      <path
         inkscape:connector-curvature="0"
         d="m 584.80327,979.48846 c -1.97751,3.38066 -3.89685,6.79744 -5.90239,10.16223 -0.99495,1.69829 -1.8583,3.46514 -2.85742,5.16182 -3.76644,6.60519 -11.88954,11.22319 -19.47655,11.67549 0,0 16.92443,-13.01454 16.92443,-13.01454 l 0,0 c 6.78495,-4.13245 -22.34087,16.46804 -16.9611,9.90894 1.16703,-1.6513 2.20218,-3.3728 3.05488,-5.20929 2.10273,-3.23439 3.95901,-6.6165 5.90279,-9.94577 0,0 19.31536,-8.73888 19.31536,-8.73888 z"
         id="path3051-1-3"
         style="fill:#000000;fill-opacity:1;fill-rule:nonzero;stroke:none" />
      <path
         inkscape:connector-curvature="0"
         d="m 541.66041,979.77417 c -1.97751,3.38066 -3.89685,6.79744 -5.90239,10.16223 -0.99495,1.69829 -1.8583,3.46514 -2.85742,5.16182 -3.76644,6.60518 -11.88954,11.22318 -19.47655,11.67548 0,0 16.92443,-13.01453 16.92443,-13.01453 l 0,0 c 6.78495,-4.13245 -22.34087,16.46803 -16.9611,9.90893 1.16703,-1.6513 2.20218,-3.3729 3.05488,-5.20927 2.10273,-3.2344 3.95901,-6.61651 5.90279,-9.94578 0,0 19.31536,-8.73888 19.31536,-8.73888 z"
         id="path3051-8-7"
         style="fill:#000000;fill-opacity:1;fill-rule:nonzero;stroke:none" />
      <path
         inkscape:connector-curvature="0"
         d="m 519.3747,979.48843 c -1.97751,3.3807 -3.89685,6.7975 -5.90239,10.1623 -0.99495,1.6982 -1.8583,3.4651 -2.85742,5.1618 -3.76644,6.60517 -11.88954,11.22317 -19.47655,11.67547 0,0 16.92443,-13.01457 16.92443,-13.01457 l 0,0 c 6.78495,-4.1324 -22.34087,16.46807 -16.9611,9.90897 1.16703,-1.6513 2.20218,-3.3729 3.05488,-5.20927 2.10273,-3.2344 3.95901,-6.6165 5.90279,-9.9458 0,0 19.31536,-8.7389 19.31536,-8.7389 z"
         id="path3051-72-5"
         style="fill:#000000;fill-opacity:1;fill-rule:nonzero;stroke:none" />
      <path
         inkscape:connector-curvature="0"
         d="m 680.63067,466.51717 c -0.63152,12.0667 -0.5082,24.15014 -0.26207,36.22496 1.11436,19.13434 1.7703,38.26148 1.77927,57.42805 -0.29244,26.7837 -0.0654,53.56989 0.6935,80.34384 0.66636,11.3751 -1.67595,22.5099 -3.36894,33.6774 -2.13574,16.99621 -2.22391,34.16696 -2.3838,51.27078 -0.077,12.1213 0.17966,24.2404 0.44751,36.3578 0.10947,3.83 0.35054,7.639 -0.30229,11.4285 -0.3916,1.6621 -0.55708,3.3598 -1.0417,4.9981 0,0 -19.20337,9.05 -19.20337,9.05 l 0,0 c 0.54865,-1.6006 0.91274,-3.1432 1.1444,-4.8318 1.00142,-3.6924 0.95867,-7.4226 0.9422,-11.2348 0.2272,-12.3103 0.50566,-24.6198 0.62814,-36.9319 0.18826,-17.0418 0.0568,-34.13539 1.50723,-51.12597 1.5056,-11.22284 4.14874,-22.31225 4.07491,-33.7107 0.68536,-26.87507 0.84401,-53.76996 -0.0412,-80.64326 -0.62644,-19.03317 -1.36583,-38.06158 -2.41886,-57.07667 -0.41021,-11.868 -0.66221,-23.73771 -1.0756,-35.60412 0,0 18.88072,-9.62021 18.88072,-9.62021 z"
         id="path3045-3-2"
         style="opacity:0.01000001;fill:#fdd99b;fill-opacity:1;stroke:#0000ff;stroke-width:3;stroke-miterlimit:4;stroke-opacity:1;stroke-dasharray:none" />
      <path
         inkscape:connector-curvature="0"
         d="m 691.95457,315.22357 c -0.1869,1.48135 -0.42759,2.9569 -0.56069,4.44405 -1.40272,15.67302 -1.69966,31.45001 -2.07409,47.17029 -0.59371,24.92678 -0.52868,26.4017 -0.82366,52.04277 -0.43716,60.26122 -0.61058,120.52247 -0.43463,180.78492 -0.0135,39.04358 0.95522,78.07522 1.55084,117.1103 0.0496,7.4417 0.41675,14.9435 -1.01443,22.2874 -0.29372,1.3587 -0.58582,2.7186 -0.73624,4.101 -0.12648,2.3128 -0.12497,4.6317 -0.13073,6.9475 0.0165,2.0967 0.0479,4.1932 0.0836,6.2896 0,0 -18.96434,9.6651 -18.96434,9.6651 l 0,0 c 0.0315,-2.1207 0.0555,-4.2415 0.0636,-6.3625 -0.0144,-2.3225 -0.06,-4.6443 -0.0901,-6.9666 0.008,-1.5411 0.2936,-3.023 0.70222,-4.5095 2.07365,-7.4094 2.53495,-15.0607 2.8944,-22.7262 1.81387,-39.57386 1.28068,-79.22384 1.87985,-118.82454 0.18931,-60.17439 0.0117,-120.34737 -0.0942,-180.52178 -0.14613,-33.86252 -0.29741,-67.73064 -1.26451,-101.58154 0,0 19.01316,-9.35027 19.01316,-9.35027 z"
         id="path3047-0-0"
         style="fill:#000000;fill-opacity:1;fill-rule:nonzero;stroke:none" />
      <path
         inkscape:connector-curvature="0"
         d="m 648.25812,752.4848 c 6.87319,0.1778 13.75021,0.1537 20.62522,0.1473 7.371,-0.025 14.74204,-0.01 22.11305,-0.013 7.28398,0.017 14.56786,0.01 21.85176,-0.022 4.86618,-0.024 9.73231,-0.055 14.59847,-0.084 2.61963,-0.014 5.23943,-0.019 7.85881,-0.061 0.94398,0.01 1.88766,-0.028 2.83152,-0.021 0,0 -17.26312,12.5424 -17.26312,12.5424 l 0,0 c -0.92459,0.01 -1.84898,-0.03 -2.7737,-0.021 -2.56309,-0.043 -5.12665,-0.047 -7.69001,-0.061 -4.78905,-0.029 -9.57808,-0.061 -14.36716,-0.084 -7.26377,-0.027 -14.52752,-0.038 -21.79135,-0.022 -7.35954,-0.01 -14.71909,0.013 -22.07861,-0.013 -7.01021,-0.01 -14.02217,-0.026 -21.03068,0.1473 0,0 17.1158,-12.4354 17.1158,-12.4354 z"
         id="path3049-2-4"
         style="fill:#000000;fill-opacity:1;fill-rule:nonzero;stroke:none" />
      <path
         inkscape:connector-curvature="0"
         d="m 724.62105,768.2155 c -1.97751,3.3807 -3.89685,6.7975 -5.90239,10.1622 -0.99495,1.6983 -1.8583,3.4652 -2.85742,5.1619 -3.76644,6.6052 -11.88953,11.2232 -19.47654,11.6755 0,0 16.92442,-13.0146 16.92442,-13.0146 l 0,0 c 6.78495,-4.1324 -22.34086,16.4681 -16.96109,9.909 1.16703,-1.6513 2.20218,-3.3729 3.05488,-5.2093 2.10273,-3.2344 3.95901,-6.6165 5.90279,-9.9458 0,0 19.31535,-8.7389 19.31535,-8.7389 z"
         id="path3051-2-3"
         style="fill:#000000;fill-opacity:1;fill-rule:nonzero;stroke:none" />
      <path
         inkscape:connector-curvature="0"
         d="m 684.23185,766.6313 c -1.97751,3.3807 -3.89685,6.7975 -5.90239,10.1622 -0.99495,1.6983 -1.8583,3.4652 -2.85742,5.1619 -3.76645,6.6052 -11.88955,11.2232 -19.47656,11.6755 0,0 16.92444,-13.0146 16.92444,-13.0146 l 0,0 c 6.78495,-4.1324 -22.34088,16.4681 -16.96111,9.909 1.16703,-1.6513 2.20218,-3.3729 3.05488,-5.2093 2.10273,-3.2344 3.95901,-6.6165 5.90279,-9.9458 0,0 19.31537,-8.7389 19.31537,-8.7389 z"
         id="path3051-7-3-7"
         style="fill:#000000;fill-opacity:1;fill-rule:nonzero;stroke:none" />
      <path
         inkscape:connector-curvature="0"
         d="m 704.23185,766.6313 c -1.97751,3.3807 -3.89685,6.7975 -5.90239,10.1622 -0.99495,1.6983 -1.8583,3.4652 -2.85742,5.1619 -3.76644,6.6052 -11.88954,11.2232 -19.47655,11.6755 0,0 16.92443,-13.0146 16.92443,-13.0146 l 0,0 c 6.78495,-4.1324 -22.34088,16.4681 -16.9611,9.909 1.16703,-1.6513 2.20218,-3.3729 3.05488,-5.2093 2.10273,-3.2344 3.95901,-6.6165 5.90279,-9.9458 0,0 19.31536,-8.7389 19.31536,-8.7389 z"
         id="path3051-1-9-9"
         style="fill:#000000;fill-opacity:1;fill-rule:nonzero;stroke:none" />
      <path
         inkscape:connector-curvature="0"
         d="m 661.08899,766.917 c -1.97751,3.3807 -3.89685,6.7975 -5.90239,10.1623 -0.99495,1.6982 -1.8583,3.4651 -2.85742,5.1618 -3.76644,6.6052 -11.88954,11.2232 -19.47655,11.6755 0,0 16.92443,-13.0146 16.92443,-13.0146 l 0,0 c 6.78495,-4.1324 -22.34087,16.4681 -16.9611,9.909 1.16703,-1.6513 2.20218,-3.3729 3.05488,-5.2093 2.10273,-3.2344 3.95901,-6.6165 5.90279,-9.9458 0,0 19.31536,-8.7389 19.31536,-8.7389 z"
         id="path3051-8-3-0"
         style="fill:#000000;fill-opacity:1;fill-rule:nonzero;stroke:none" />
      <path
         inkscape:connector-curvature="0"
         d="m 638.80327,766.6313 c -1.97751,3.3807 -3.89685,6.7975 -5.90239,10.1623 -0.99495,1.6982 -1.8583,3.4651 -2.85742,5.1618 -3.76644,6.6052 -11.88954,11.2232 -19.47655,11.6755 0,0 16.92443,-13.0146 16.92443,-13.0146 l 0,0 c 6.78495,-4.1324 -22.34087,16.4681 -16.9611,9.909 1.16703,-1.6513 2.20218,-3.3729 3.05488,-5.2093 2.10273,-3.2344 3.95901,-6.6165 5.90279,-9.9458 0,0 19.31536,-8.7389 19.31536,-8.7389 z"
         id="path3051-72-0-4"
         style="fill:#000000;fill-opacity:1;fill-rule:nonzero;stroke:none" />
      <path
         inkscape:connector-curvature="0"
         id="path7087"
         d="m 231.93932,318.07339 450.11846,4.29188"
         style="fill:none;stroke:#000000;stroke-width:11.97226048;stroke-linecap:butt;stroke-linejoin:miter;stroke-miterlimit:4;stroke-opacity:1;stroke-dasharray:none;marker-start:url(#DotS);marker-end:url(#DotS)" />
      <g
         transform="translate(106.66765,-203.1612)"
         id="g9917">
        <path
           inkscape:connector-curvature="0"
           id="path9899"
           style="fill:#afafde;fill-rule:evenodd;stroke:none"
           d="m 284.86301,758.60689 58.49563,33.9191 92.72877,-45.64864 -53.07697,-25.75515 z" />
        <path
           inkscape:connector-curvature="0"
           id="path9901"
           style="fill:#353564;fill-rule:evenodd;stroke:none"
           d="m 284.86301,724.37992 0,34.22697 98.14743,-37.48469 0,-28.3157 z" />
        <path
           inkscape:connector-curvature="0"
           id="path9903"
           style="fill:#e9e9ff;fill-rule:evenodd;stroke:none"
           d="m 383.01044,692.8065 53.07697,24.24875 0,29.8221 -53.07697,-25.75515 z" />
        <path
           inkscape:connector-curvature="0"
           id="path9905"
           style="fill:#525252;fill-opacity:1;fill-rule:evenodd;stroke:none"
           d="m 284.86301,724.37992 58.49563,31.69336 92.72877,-39.01803 -53.07697,-24.24875 z" />
        <path
           inkscape:connector-curvature="0"
           id="path9907"
           style="fill:#b6b6b6;fill-opacity:0.71372549;fill-rule:evenodd;stroke:none"
           d="m 343.35864,756.07328 0,36.45271 92.72877,-45.64864 0,-29.8221 z" />
        <path
           inkscape:connector-curvature="0"
           id="path9909"
           style="fill:#b6b6b6;fill-opacity:0.71372549;fill-rule:evenodd;stroke:none"
           d="m 284.86301,724.37992 58.49563,31.69336 0,36.45271 -58.49563,-33.9191 z" />
      </g>
      <path
         sodipodi:nodetypes="cc"
         inkscape:connector-curvature="0"
         id="path6297-5"
         d="M 561.42857,540.21933 464.28571,515.93361"
         style="fill:none;stroke:#ff0000;stroke-width:6;stroke-linecap:butt;stroke-linejoin:miter;stroke-miterlimit:4;stroke-opacity:1;stroke-dasharray:none;marker-end:none" />
      <path
         inkscape:connector-curvature="0"
         d="m 572.52599,528.08071 c -0.1869,1.48135 -0.42759,2.9569 -0.56069,4.44405 -1.40272,15.67302 -1.69966,31.45001 -2.07409,47.17029 -0.59371,24.92678 -0.52868,26.4017 -0.82366,52.04277 -0.43716,60.26122 -0.61058,120.52247 -0.43463,180.78492 -0.0135,39.04358 0.95522,78.07522 1.55084,117.11032 0.0496,7.4417 0.41675,14.9435 -1.01443,22.2874 -0.29372,1.3587 -0.58582,2.7186 -0.73624,4.101 -0.12648,2.3128 -0.12497,4.6317 -0.13073,6.9475 0.0165,2.0967 0.0479,4.1932 0.0836,6.2896 0,0 -18.96433,9.6651 -18.96433,9.6651 l 0,0 c 0.0315,-2.1207 0.0555,-4.2415 0.0636,-6.3625 -0.0144,-2.3225 -0.06,-4.6443 -0.0901,-6.9666 0.008,-1.5411 0.2936,-3.023 0.70221,-4.5095 2.07365,-7.4094 2.53496,-15.0607 2.89441,-22.7262 1.81386,-39.57388 1.28067,-79.22386 1.87984,-118.82456 0.18931,-60.17439 0.0117,-120.34737 -0.0942,-180.52178 -0.14613,-33.86252 -0.29741,-67.73064 -1.26451,-101.58154 0,0 19.01316,-9.35027 19.01316,-9.35027 z"
         id="path3047-4"
         style="fill:#000000;fill-opacity:1;fill-rule:nonzero;stroke:none" />
      <path
         sodipodi:nodetypes="cc"
         inkscape:connector-curvature="0"
         id="path6297"
         d="M 232.85714,318.07647 464.28571,513.79075"
         style="fill:none;stroke:#ff0000;stroke-width:6;stroke-linecap:butt;stroke-linejoin:miter;stroke-miterlimit:4;stroke-opacity:1;stroke-dasharray:none;marker-end:none" />
      <path
         sodipodi:nodetypes="cc"
         inkscape:connector-curvature="0"
         id="path7958-2"
         d="m 470,517.9882 c -235.9216,2.75535 88.49687,17.33434 27.14285,-30.00001"
         style="fill:none;stroke:#ff8200;stroke-width:6;stroke-linecap:butt;stroke-linejoin:miter;stroke-miterlimit:4;stroke-opacity:1;stroke-dasharray:24, 48;stroke-dashoffset:0" />
      <path
         sodipodi:nodetypes="cc"
         inkscape:connector-curvature="0"
         id="path6297-7"
         d="m 680,324.50504 -214.28571,190"
         style="fill:none;stroke:#ff0000;stroke-width:6;stroke-linecap:butt;stroke-linejoin:miter;stroke-miterlimit:4;stroke-opacity:1;stroke-dasharray:none;marker-end:none" />
      <path
         sodipodi:nodetypes="ccccc"
         inkscape:connector-curvature="0"
         id="path9376"
         d="M 230,315.21933 558.57143,538.07647 554.28572,966.64787 227.14286,752.36219 z"
         style="fill:#10ccba;fill-opacity:0.49056624;stroke:#0000ca;stroke-width:6;stroke-linecap:butt;stroke-linejoin:miter;stroke-miterlimit:4;stroke-opacity:1;stroke-dasharray:none" />
      <path
         inkscape:connector-curvature="0"
         id="path9079-2"
         d="M 679.85714,320.21932 561.28571,538.79075"
         style="fill:none;stroke:#000000;stroke-width:12;stroke-linecap:butt;stroke-linejoin:miter;stroke-miterlimit:4;stroke-opacity:1;stroke-dasharray:none" />
      <path
         sodipodi:nodetypes="cc"
         inkscape:connector-curvature="0"
         id="path7958"
         d="M 407.14286,522.36218 C 171.22127,525.11753 177.0683,495.41081 115.71429,448.07646"
         style="fill:none;stroke:#ff8200;stroke-width:6;stroke-linecap:butt;stroke-linejoin:miter;stroke-miterlimit:4;stroke-opacity:1;stroke-dasharray:24, 48;stroke-dashoffset:0" />
      <flowRoot
         style="font-size:40px;font-style:normal;font-weight:normal;line-height:125%;letter-spacing:0px;word-spacing:0px;fill:#000000;fill-opacity:1;stroke:none;font-family:Sans"
         id="flowRoot7960"
         xml:space="preserve"><flowRegion
           id="flowRegion7962"><rect
             y="542.36218"
             x="580"
             height="55.714268"
             width="128.57144"
             id="rect7964" /></flowRegion><flowPara
           id="flowPara7966">$A_1$</flowPara></flowRoot>      <flowRoot
         style="font-size:40px;font-style:normal;font-weight:normal;line-height:125%;letter-spacing:0px;word-spacing:0px;fill:#000000;fill-opacity:1;stroke:none;font-family:Sans"
         id="flowRoot7968"
         xml:space="preserve"><flowRegion
           id="flowRegion7970"><rect
             y="259.50504"
             x="602.85718"
             height="51.428589"
             width="128.57149"
             id="rect7972" /></flowRegion><flowPara
           id="flowPara7974">$A_2$</flowPara></flowRoot>      <flowRoot
         style="font-size:40px;font-style:normal;font-weight:normal;line-height:125%;letter-spacing:0px;word-spacing:0px;fill:#000000;fill-opacity:1;stroke:none;font-family:Sans"
         id="flowRoot7976"
         xml:space="preserve"><flowRegion
           id="flowRegion7978"><rect
             y="248.07646"
             x="172.85715"
             height="52.857143"
             width="124.28571"
             id="rect7980" /></flowRegion><flowPara
           id="flowPara7982">$A_3$</flowPara></flowRoot>    </g>
  </g>
</svg>
