<?xml version="1.0" encoding="UTF-8" standalone="no"?>
<!-- Created with Inkscape (http://www.inkscape.org/) -->

<svg
   xmlns:dc="http://purl.org/dc/elements/1.1/"
   xmlns:cc="http://creativecommons.org/ns#"
   xmlns:rdf="http://www.w3.org/1999/02/22-rdf-syntax-ns#"
   xmlns:svg="http://www.w3.org/2000/svg"
   xmlns="http://www.w3.org/2000/svg"
   xmlns:sodipodi="http://sodipodi.sourceforge.net/DTD/sodipodi-0.dtd"
   xmlns:inkscape="http://www.inkscape.org/namespaces/inkscape"
   width="744.09448819"
   height="1052.3622047"
   id="svg2"
   version="1.1"
   inkscape:version="0.48.4 r9939"
   sodipodi:docname="robotdiag0102plateforme.svg">
  <defs
     id="defs4">
    <marker
       inkscape:stockid="DotM"
       orient="auto"
       refY="0.0"
       refX="0.0"
       id="DotM"
       style="overflow:visible">
      <path
         id="path4109"
         d="M -2.5,-1.0 C -2.5,1.7600000 -4.7400000,4.0 -7.5,4.0 C -10.260000,4.0 -12.5,1.7600000 -12.5,-1.0 C -12.5,-3.7600000 -10.260000,-6.0 -7.5,-6.0 C -4.7400000,-6.0 -2.5,-3.7600000 -2.5,-1.0 z "
         style="fill-rule:evenodd;stroke:#000000;stroke-width:1.0pt"
         transform="scale(0.4) translate(7.4, 1)" />
    </marker>
    <marker
       inkscape:stockid="EmptyDiamondL"
       orient="auto"
       refY="0.0"
       refX="0.0"
       id="EmptyDiamondL"
       style="overflow:visible">
      <path
         id="path4151"
         d="M 0,-7.0710768 L -7.0710894,0 L 0,7.0710589 L 7.0710462,0 L 0,-7.0710768 z "
         style="fill-rule:evenodd;fill:#FFFFFF;stroke:#000000;stroke-width:1.0pt"
         transform="scale(0.8)" />
    </marker>
    <inkscape:perspective
       sodipodi:type="inkscape:persp3d"
       inkscape:vp_x="-36.033774 : 393.84302 : 1"
       inkscape:vp_y="-134.15811 : 785.34702 : 0"
       inkscape:vp_z="586.7393 : 393.84302 : 1"
       inkscape:persp3d-origin="298.88325 : 256.0981 : 1"
       id="perspective4004" />
  </defs>
  <sodipodi:namedview
     id="base"
     pagecolor="#ffffff"
     bordercolor="#666666"
     borderopacity="1.0"
     inkscape:pageopacity="0.0"
     inkscape:pageshadow="2"
     inkscape:zoom="0.7"
     inkscape:cx="203.27407"
     inkscape:cy="236.04967"
     inkscape:document-units="px"
     inkscape:current-layer="layer1"
     showgrid="false"
     inkscape:window-width="1366"
     inkscape:window-height="701"
     inkscape:window-x="0"
     inkscape:window-y="0"
     inkscape:window-maximized="1" />
  <metadata
     id="metadata7">
    <rdf:RDF>
      <cc:Work
         rdf:about="">
        <dc:format>image/svg+xml</dc:format>
        <dc:type
           rdf:resource="http://purl.org/dc/dcmitype/StillImage" />
        <dc:title></dc:title>
      </cc:Work>
    </rdf:RDF>
  </metadata>
  <g
     inkscape:label="Layer 1"
     inkscape:groupmode="layer"
     id="layer1">
    <path
       style="fill:#000000;fill-opacity:1;fill-rule:nonzero;stroke:none"
       id="path3086"
       d="m 63.035058,1003.5305 c -1.188892,2.6878 -2.641963,5.2022 -4.4057,7.5494 -1.117299,1.4948 -2.314941,2.9254 -3.537134,4.3347 -0.480104,0.5268 -0.860576,1.1289 -1.351959,1.6593 -0.292411,0.2441 -0.607926,0.4322 -0.906773,0.7121 -0.550078,0.5747 -1.206533,0.9739 -1.765616,1.5565 -3.280439,4.5032 -0.255774,0.4608 -13.479697,8.1003 -0.177109,0.1023 -0.766409,0.2734 -0.589216,0.1713 10.36801,-5.9783 16.99166,-9.5663 12.352654,-7.0514 -0.08728,0.057 -0.174552,0.1136 -0.261828,0.1704 0,0 -14.019642,5.5772 -14.019642,5.5772 l 0,0 c 0.08396,-0.072 0.167929,-0.1439 0.251893,-0.2158 4.086376,-3.6259 0.138328,-0.1565 13.532693,-7.8356 0.15695,-0.09 0.606893,-0.3936 0.450543,-0.3026 -4.181555,2.4343 -8.372537,4.8528 -12.53062,7.3269 -0.117985,0.07 0.265069,-0.072 0.397603,-0.1075 0.525231,-0.6079 0.9558,-1.3436 1.691119,-1.636 0.292007,-0.2874 0.516273,-0.6658 0.84513,-0.845 0.619296,-0.3473 1.281367,-0.7669 1.510704,-1.4601 1.311187,-1.3665 2.569634,-2.7831 3.738326,-4.2744 1.739215,-2.2571 3.529388,-4.4855 4.419499,-7.2504 0,0 13.658021,-6.1793 13.658021,-6.1793 z"
       inkscape:connector-curvature="0" />
    <path
       style="fill:#000000;fill-opacity:1;fill-rule:nonzero;stroke:none"
       id="path3088"
       d="m 78.267829,1009.4929 c -0.723538,2.3369 -1.614794,4.6027 -2.700877,6.7932 -0.689389,1.266 -1.499449,2.5026 -2.585673,3.4626 -0.741246,0.5829 -1.525023,1.1105 -2.298363,1.6582 -0.556514,0.4533 -1.111806,0.8739 -1.709247,1.2642 -0.213204,0.154 -0.115548,0.084 -0.292853,0.211 0,0 -13.900903,5.9436 -13.900903,5.9436 l 0,0 c 0.134889,-0.2625 0.0564,-0.1246 0.241343,-0.4105 0.47586,-0.6212 1.10724,-0.8856 1.674794,-1.4214 0.746193,-0.6281 1.630297,-1.0486 2.280282,-1.758 1.281195,-0.6312 2.153984,-1.6177 2.933395,-2.8186 1.1927,-2.0595 2.267213,-4.2065 2.780779,-6.5479 0,0 13.577323,-6.3764 13.577323,-6.3764 z"
       inkscape:connector-curvature="0" />
    <path
       style="fill:#000000;fill-opacity:1;fill-rule:nonzero;stroke:none"
       id="path3090"
       d="m 97.269163,1012.6769 c -2.143973,1.6882 -4.244047,3.4381 -6.109255,5.4333 -1.065481,1.4322 -2.211729,2.7608 -3.47748,4.0118 -0.569205,0.7054 -1.252419,1.3599 -1.735076,2.1352 -2.15286,4.9392 -9.76474,7.4561 -13.814787,8.4747 -4.717738,1.1864 8.403459,-4.9032 12.605188,-7.3547 0,0 -13.82273,6.0123 -13.82273,6.0123 l 0,0 c 13.177755,-8.0757 21.312279,-12.8883 0.415317,-0.7469 -0.471281,0.2738 1.126148,-0.4873 0.869523,-0.1835 0.471765,-1.099 0.979062,-1.601 1.605628,-2.5622 1.2309,-1.3269 2.74264,-2.3661 3.622226,-4.012 1.790197,-2.0741 3.8026,-3.8848 5.922262,-5.6221 0,0 13.919184,-5.5859 13.919184,-5.5859 z"
       inkscape:connector-curvature="0" />
    <path
       style="fill:#000000;fill-opacity:1;fill-rule:nonzero;stroke:none"
       id="path3092"
       d="m 108.57919,1020.0311 c -4.55311,2.4382 -11.419209,6.4026 9.11639,-5.3151 2.83567,-1.618 -2.47112,1.5358 -2.99178,1.9115 -1.12745,0.8548 -2.30383,1.6533 -3.23672,2.726 -0.69892,0.5226 -1.27227,1.1218 -1.86827,1.7521 -0.47223,0.4477 -0.71184,0.9421 -0.80738,1.5837 -0.11057,0.8732 0.0349,1.7476 -0.2372,2.592 -0.2015,0.9685 -0.91555,1.6374 -1.34523,2.4967 -0.46861,0.3129 -0.81659,0.7601 -1.16882,1.1917 -0.23117,0.3296 -0.56864,1.0548 -1.02017,1.0012 -0.0368,0.049 -0.0737,0.098 -0.1105,0.1474 0,0 -13.644541,6.4758 -13.644541,6.4758 l 0,0 c 0.0087,-0.1085 0.01731,-0.2169 0.02596,-0.3253 -0.02241,-0.6095 0.365844,-0.9375 0.87556,-1.2771 0.332748,-0.5301 0.730879,-1.0145 1.078306,-1.5347 0.620807,-0.1343 1.275143,-1.3243 1.658357,-1.8203 0.09224,-0.2151 0.314192,-0.3609 0.394883,-0.5805 0.174023,-0.4738 -0.140413,-1.1496 -0.0056,-1.6384 0.03112,-0.7923 0.02807,-1.6871 0.456461,-2.3743 0.170451,-0.2617 0.271323,-0.5799 0.500478,-0.7922 0.09477,-0.088 0.262405,-0.062 0.357372,-0.1499 0.363836,-0.3355 0.320881,-0.982 0.926861,-1.0899 1.209798,-0.7656 1.912346,-2.2387 3.28616,-2.8405 0.97516,-0.8006 1.91255,-1.4748 3.00757,-2.1065 5.47345,-3.1579 10.86036,-6.4658 16.45824,-9.3975 0,0 -11.70642,9.3641 -11.70642,9.3641 z"
       inkscape:connector-curvature="0" />
    <path
       style="fill:#000000;fill-opacity:1;fill-rule:nonzero;stroke:none"
       id="path3082-6"
       d="m 237.66474,540.88654 c -0.14539,6.02453 -0.23626,12.04578 -0.49802,18.06718 -0.3433,6.57232 -0.52442,13.15056 -0.62174,19.73059 -0.0572,5.83967 -0.0527,11.67985 -0.0586,17.51977 -0.005,5.96403 -0.004,11.92806 -0.005,17.8921 -0.0666,7.56268 -0.0957,15.12554 -0.0818,22.68849 0.0574,6.42123 0.0424,12.84286 0.11481,19.26393 0.33292,5.26736 -0.53729,10.48188 -1.03952,15.70963 -0.88044,12.10982 -1.52305,24.23496 -2.46259,36.3405 -0.59849,8.17301 -1.55176,16.31313 -2.14873,24.48625 -0.50199,4.90002 -0.8897,9.8101 -1.46646,14.70195 -0.48105,4.09056 -0.68224,8.20124 -1.12173,12.29583 -0.36969,4.77401 -0.96322,9.52581 -1.36874,14.29641 -0.32995,4.34252 -0.39665,8.69774 -0.3994,13.05076 -0.008,2.27553 0.0428,4.55052 0.0568,6.82584 0.0159,1.25941 0.0375,2.51895 0.035,3.77849 0.004,1.30681 -0.02,2.61369 -0.0111,3.92049 0.002,1.39751 -0.01,2.79515 0.003,4.19261 -0.004,1.59907 -0.0169,3.19811 -0.0232,4.79718 0.024,1.65956 -0.005,3.31924 0.0112,4.97881 0.0213,1.41737 -0.002,2.83489 0.009,4.25227 -0.0113,1.33091 0.009,2.66174 0.007,3.99262 0.0193,0.76856 0.0154,1.5372 0.0289,2.30578 0.003,0.19116 0.0106,0.38223 0.0183,0.57323 0,0 -13.48688,6.8719 -13.48688,6.8719 l 0,0 c 0.008,-0.1972 0.015,-0.3945 0.0183,-0.5919 0.0134,-0.7783 0.01,-1.5568 0.0289,-2.3352 -0.002,-1.3333 0.0185,-2.6666 0.007,-4 0.0113,-1.42045 -0.0122,-2.84105 0.009,-4.26151 0.0164,-1.66339 -0.0127,-3.32689 0.0112,-4.99027 -0.006,-1.5912 -0.0193,-3.18237 -0.0232,-4.77357 0.0123,-1.39841 6.3e-4,-2.79699 0.003,-4.19544 0.009,-1.30242 -0.0145,-2.60491 -0.0122,-3.90733 -0.004,-1.26846 0.0131,-2.53695 0.0223,-3.80537 0.004,-2.30621 0.045,-4.6123 0.0799,-6.91822 0.0981,-4.40668 0.21765,-8.81465 0.50419,-13.21375 0.34391,-4.77431 0.98604,-9.51635 1.29064,-14.29364 0.38643,-4.10992 0.65583,-8.22804 1.12226,-12.33043 0.61636,-4.89737 1.00932,-9.81419 1.62704,-14.71216 0.69891,-8.26643 1.9984,-16.46712 2.64062,-24.7397 1.08346,-12.04746 1.84304,-24.12261 2.24898,-36.21254 0.2268,-5.15554 0.67369,-10.2941 0.75272,-15.45129 0.0721,-6.46007 0.0577,-12.92068 0.1148,-19.3809 0.0137,-7.53455 -0.015,-15.06902 -0.0848,-22.60327 -0.003,-5.96077 -0.008,-11.92153 -0.016,-17.88228 -0.004,-5.85314 -0.002,-11.70633 0.0864,-17.55897 0.10712,-6.60925 0.30754,-13.21634 0.69263,-19.81592 0.2879,-5.92508 0.35732,-11.85012 0.0772,-17.77829 0,0 13.3078,-6.78066 13.3078,-6.78066 z"
       inkscape:connector-curvature="0" />
    <path
       style="fill:#000000;fill-opacity:1;fill-rule:nonzero;stroke:none"
       id="path3084-2"
       d="m 187.52121,820.62538 c 3.54434,0.0848 7.08992,0.0516 10.63486,0.0475 2.79824,-0.0685 5.5607,0.49229 8.33908,0.76052 2.38345,0.19558 4.77722,0.20943 7.16719,0.22504 2.60458,0.39886 5.21821,0.70676 7.84786,0.87196 2.28445,0.41047 4.56789,0.83009 6.88373,1.01008 1.85551,0.12285 3.71613,0.12057 5.57478,0.12497 2.17774,0.001 4.35542,0.008 6.53317,0.004 2.39386,0.003 4.7877,0.002 7.18156,-0.003 2.1229,-0.005 4.24579,-0.007 6.36869,-0.008 2.02106,-7.6e-4 4.04212,-6.9e-4 6.06318,-6.8e-4 1.78293,-0.003 3.56595,-0.002 5.34883,-0.0158 1.54226,0.16016 2.92603,-0.14112 4.37708,-0.61998 0.57924,-0.29114 1.32379,-0.0792 1.90843,-0.31139 0.13923,-0.0553 0.60387,-0.51092 0.72425,-0.62455 -4.197,2.43405 -8.39401,4.8681 -12.591,7.3022 4.83068,-2.2846 8.63047,-7.07076 13.92673,-7.91656 0,0 -11.93693,9.24126 -11.93693,9.24126 l 0,0 c -4.99454,2.6038 15.71105,-11.62071 12.03864,-6.86579 -9.95746,5.83219 -9.25915,6.86339 -15.98741,8.31979 -1.52044,0.3172 -3.04986,0.3351 -4.59932,0.2949 -1.76835,-0.014 -3.53685,-0.013 -5.30525,-0.016 -2.02041,0 -4.04082,0 -6.06122,-8e-4 -2.11568,0 -4.23136,0 -6.34704,-0.01 -2.39344,0 -4.78685,0 -7.18028,0 -2.19055,8e-4 -4.38102,0.018 -6.57155,0.012 -1.88179,-0.015 -3.767,-0.038 -5.63942,-0.2467 -2.28456,-0.2627 -4.52922,-0.7816 -6.81831,-1.0108 -2.60593,-0.2085 -5.18755,-0.6331 -7.79657,-0.7943 -2.42837,-0.028 -4.863,-0.05 -7.27864,-0.3276 -2.70498,-0.3275 -5.40559,-0.8101 -8.14224,-0.7035 -3.58853,0 -7.17762,-0.036 -10.76558,0.048 0,0 12.1027,-8.79316 12.1027,-8.79316 z"
       inkscape:connector-curvature="0" />
    <path
       style="fill:#000000;fill-opacity:1;fill-rule:nonzero;stroke:none"
       id="path3086-4"
       d="m 190.00018,829.72835 c -1.18889,2.6878 -2.64196,5.2022 -4.4057,7.5494 -1.11729,1.4948 -2.31494,2.9254 -3.53713,4.3347 -0.4801,0.5268 -0.86058,1.1289 -1.35196,1.6593 -0.29241,0.2441 -0.60792,0.4322 -0.90677,0.7121 -0.55008,0.5747 -1.20653,0.9739 -1.76562,1.5565 -3.28044,4.5032 -0.25577,0.4608 -13.47969,8.1003 -0.17711,0.1023 -0.76641,0.2734 -0.58922,0.1713 10.36801,-5.9783 16.99166,-9.5663 12.35265,-7.0514 -0.0873,0.057 -0.17455,0.1136 -0.26182,0.1704 0,0 -14.01965,5.5772 -14.01965,5.5772 l 0,0 c 0.084,-0.072 0.16793,-0.1439 0.2519,-0.2158 4.08637,-3.6259 0.13832,-0.1565 13.53269,-7.8356 0.15695,-0.09 0.60689,-0.3936 0.45054,-0.3026 -4.18155,2.4343 -8.37253,4.8528 -12.53062,7.3269 -0.11798,0.07 0.26507,-0.072 0.39761,-0.1075 0.52523,-0.6079 0.9558,-1.3436 1.69111,-1.636 0.29201,-0.2874 0.51628,-0.6658 0.84513,-0.845 0.6193,-0.3473 1.28137,-0.7669 1.51071,-1.4601 1.31119,-1.3665 2.56963,-2.7831 3.73832,-4.2744 1.73922,-2.2571 3.52939,-4.4855 4.4195,-7.2504 0,0 13.65802,-6.1793 13.65802,-6.1793 z"
       inkscape:connector-curvature="0" />
    <path
       style="fill:#000000;fill-opacity:1;fill-rule:nonzero;stroke:none"
       id="path3088-3"
       d="m 205.23296,835.69075 c -0.72354,2.3369 -1.6148,4.6027 -2.70088,6.7932 -0.68939,1.266 -1.49945,2.5026 -2.58567,3.4626 -0.74125,0.5829 -1.52503,1.1105 -2.29837,1.6582 -0.55651,0.4533 -1.1118,0.8739 -1.70924,1.2642 -0.21321,0.154 -0.11555,0.084 -0.29286,0.211 0,0 -13.9009,5.9436 -13.9009,5.9436 l 0,0 c 0.13489,-0.2625 0.0564,-0.1246 0.24134,-0.4105 0.47586,-0.6212 1.10724,-0.8856 1.6748,-1.4214 0.74619,-0.6281 1.63029,-1.0486 2.28028,-1.758 1.28119,-0.6312 2.15398,-1.6177 2.93339,-2.8186 1.1927,-2.0595 2.26722,-4.2065 2.78078,-6.5479 0,0 13.57733,-6.3764 13.57733,-6.3764 z"
       inkscape:connector-curvature="0" />
    <path
       style="fill:#000000;fill-opacity:1;fill-rule:nonzero;stroke:none"
       id="path3090-1"
       d="m 224.23429,838.87475 c -2.14397,1.6882 -4.24405,3.4381 -6.10926,5.4333 -1.06548,1.4322 -2.21172,2.7608 -3.47748,4.0118 -0.5692,0.7054 -1.25241,1.3599 -1.73507,2.1352 -2.15286,4.9392 -9.76474,7.4561 -13.81479,8.4747 -4.71774,1.1864 8.40346,-4.9032 12.60519,-7.3547 0,0 -13.82273,6.0123 -13.82273,6.0123 l 0,0 c 13.17775,-8.0757 21.31228,-12.8883 0.41532,-0.7469 -0.47128,0.2738 1.12614,-0.4873 0.86952,-0.1835 0.47176,-1.099 0.97906,-1.601 1.60563,-2.5622 1.2309,-1.3269 2.74264,-2.3661 3.62222,-4.012 1.7902,-2.0741 3.8026,-3.8848 5.92227,-5.6221 0,0 13.91918,-5.5859 13.91918,-5.5859 z"
       inkscape:connector-curvature="0" />
    <path
       style="fill:#000000;fill-opacity:1;fill-rule:nonzero;stroke:none"
       id="path3163"
       d="m 233.29217,541.87919 c 3.76635,0.0955 7.53457,0.059 11.30175,0.0542 3.16295,-0.0216 6.32597,-0.0182 9.48896,-0.0246 3.47206,-0.006 6.94399,0.0256 10.41601,0.0365 5.23277,0.0267 10.46559,0.0395 15.69842,0.0474 5.83467,0.018 11.66928,-5.9e-4 17.50391,-0.0118 6.25729,0.0336 12.51451,0.0357 18.7719,0.0256 7.5951,0.007 15.19001,0.0566 22.78508,0.0769 9.2071,0.051 18.41433,0.0289 27.62131,-0.0306 6.20876,-0.0309 12.41756,-0.0515 18.62634,-0.08 5.59387,0.0321 11.19698,0.45164 16.7339,1.24941 6.18719,0.96461 12.37776,1.84757 18.61778,2.38981 5.31408,0.39853 10.64725,0.43656 15.97344,0.4864 7.07768,0.0457 14.15514,-0.004 21.23252,-0.063 4.39673,-0.0428 8.7935,-0.0503 13.19039,-0.0524 4.06871,-0.0236 8.13744,0.006 12.20616,0.0114 4.8437,0.0255 9.68744,0.0137 14.53115,0.003 3.72377,-0.0271 7.44763,-0.0251 11.17145,-0.0368 4.0175,0.0155 8.03494,0.0362 12.05248,0.022 3.17396,-0.0102 6.34815,-0.0163 9.52194,-0.0541 1.23916,0.10717 2.66067,-0.36392 3.77444,0.25927 0.49931,0.31441 0.95783,0.69337 1.29748,1.17852 0.0219,0.0356 0.0798,0.14615 0.0657,0.10681 -0.38541,-1.07426 -0.0118,0.0227 0.79249,0.33888 0.20124,0.0818 0.40763,0.14884 0.61553,0.21115 0,0 -12.56055,8.40971 -12.56055,8.40971 l 0,0 c -0.23021,-0.11493 -0.46033,-0.23038 -0.68145,-0.36236 -0.7039,-0.45377 -0.82519,-0.54777 -1.26654,-1.01197 -0.20185,-0.19142 -0.41589,-0.3448 -0.70638,-0.37282 -1.10497,0.22809 -2.29113,-0.0888 -3.40816,0.0176 -3.12416,-0.0385 -6.24875,-0.0437 -9.3731,-0.0541 -4.0377,-0.0145 -8.07531,0.007 -12.11298,0.022 -3.69001,-0.0117 -7.38007,-0.01 -11.07003,-0.0369 -4.84683,-0.0103 -9.69367,-0.022 -14.54048,0.003 -4.0794,0.006 -8.15881,0.0346 -12.2382,0.0122 -4.35534,-3.3e-4 -8.7106,-0.004 -13.06586,-0.0365 -7.03095,-0.0446 -14.06183,-0.0694 -21.09295,-0.0468 -5.41648,0.0111 -10.85316,0.16273 -16.24501,-0.46401 -6.20334,-0.70947 -12.37501,-1.63973 -18.55942,-2.49259 -5.53606,-0.69998 -11.12039,-1.03047 -16.70103,-1.03157 -6.13535,-0.0286 -12.27073,-0.049 -18.40607,-0.08 -9.17885,-0.0604 -18.35795,-0.0811 -27.53692,-0.0307 -7.66567,0.0204 -15.33119,0.0698 -22.99689,0.077 -6.28085,-0.0102 -12.56151,-0.008 -18.84225,0.0255 -5.82381,-0.0112 -11.64759,-0.0298 -17.47144,-0.0118 -5.27633,0.008 -10.55266,0.0208 -15.82893,0.0474 -3.50553,0.0109 -7.01098,0.0422 -10.51654,0.0365 -3.14041,-0.006 -6.28084,-0.003 -9.42121,-0.0246 -3.81687,-0.005 -7.63469,-0.0399 -11.4508,0.0542 0,0 12.1027,-8.79313 12.1027,-8.79313 z"
       inkscape:connector-curvature="0" />
    <path
       style="fill:#000000;fill-opacity:1;fill-rule:nonzero;stroke:none"
       id="path3171"
       d="m 384.81009,733.50286 c -4.46434,-0.0964 -8.93061,-0.0837 -13.39582,-0.0797 -4.63446,0.01 -9.26892,0.006 -13.90339,0.0126 -3.77157,0.0101 -7.54315,0.0209 -11.3147,0.0358 -3.7503,0.009 -7.50045,-0.0264 -11.2507,-0.0362 -3.84809,-0.006 -7.69606,0.0298 -11.54415,0.0342 -3.81935,-0.002 -7.63866,-0.0173 -11.45797,-0.0336 -4.53161,-0.002 -9.06322,-0.003 -13.59482,-0.003 -4.2285,-0.0237 -8.45678,9.2e-4 -12.68502,0.0437 -3.02347,0.0403 -6.04708,-0.008 -9.07058,-0.0225 -4.36509,-0.002 -8.73014,-0.0237 -13.09522,-0.0279 -4.42744,-0.1405 -8.87593,0.2405 -13.29276,-0.12463 -3.22393,-0.40747 -6.45931,-0.64035 -9.70536,-0.759 -4.08581,-0.12734 -8.17408,-0.1119 -12.26131,-0.10717 -3.4698,0.0136 -6.93965,0.022 -10.40948,0.0189 -4.04906,-0.0237 -8.09821,-0.0199 -12.14732,-0.0192 -3.43545,0.0118 -6.87087,0.0233 -10.30631,0.0342 -2.98359,0.003 -5.96718,-0.004 -8.95076,7.6e-4 -2.78851,0.007 -5.57703,0.004 -8.36554,0.006 -2.78842,-0.37627 -5.57878,-0.69677 -8.38759,-0.86801 -2.66132,-0.1348 -5.32686,-0.14548 -7.99095,-0.14722 -2.68525,0.01 -5.37051,0.002 -8.05576,-0.005 -3.8377,-0.0873 -7.6824,0.11448 -11.5113,-0.1815 -3.74494,-0.4667 -7.53525,-0.43714 -11.27506,-0.91359 -2.98689,-0.44803 -5.9955,-0.70423 -9.01141,-0.8368 -2.40182,-0.0828 -4.80588,-0.0891 -7.20882,-0.0664 -1.96711,0.0202 -3.93424,0.002 -5.90139,0.001 -2.06102,-0.004 -4.12198,0.008 -6.18296,0.0159 -1.57674,0.005 -3.153553,-2.7e-4 -4.73026,0.0106 -0.787884,-0.39267 -1.787161,-0.38397 -2.571155,-0.76823 -0.3599,-0.17639 -0.660496,-0.45551 -1.006391,-0.658 -0.587217,-0.43676 -1.23938,-0.56068 -1.947365,-0.64328 -5.75824,0.27965 7.320668,-8.88039 12.537721,-8.80254 2.46228,-4.55877 0.26731,-0.35611 -12.366933,6.78879 -0.15951,0.0902 0.334458,-0.16273 0.46841,-0.28778 0.747558,-0.69788 1.280297,-1.79656 1.865341,-2.62034 2.469801,-2.87873 4.779089,-5.83913 6.826332,-9.03355 2.25178,-4.04251 4.51727,-8.0447 7.04942,-11.92078 2.13425,-3.10883 4.41153,-6.14031 6.78891,-9.06989 2.2864,-2.4767 4.65437,-4.863 6.65811,-7.58114 2.06211,-2.72917 3.10426,-5.99494 4.69647,-8.99057 2.23671,-3.44013 4.54336,-6.84044 6.87919,-10.21558 2.42634,-3.41871 4.62785,-6.99115 6.79043,-10.5805 2.54346,-4.30077 5.39402,-8.40929 8.31576,-12.45902 3.3695,-4.70191 7.1265,-9.1045 10.74712,-13.61061 3.14808,-3.85572 5.87802,-8.02846 8.97725,-11.91947 2.46979,-2.77864 5.55389,-4.89484 8.46517,-7.1731 2.47224,-1.93498 4.8057,-4.02879 6.91799,-6.35069 1.76805,-2.21721 3.41128,-4.52366 5.23856,-6.69486 1.90939,-2.02802 3.51309,-4.30358 5.1575,-6.54288 1.87214,-2.77725 4.24735,-5.14244 6.51052,-7.59124 2.24691,-2.47234 4.31573,-5.09545 6.35962,-7.73554 2.02337,-2.70067 4.04392,-5.40687 5.80687,-8.28636 1.33462,-2.28182 2.9135,-4.40716 4.33554,-6.63148 0.62497,-1.30933 1.6799,-2.31492 2.5147,-3.47269 0.4584,-0.85143 1.09896,-1.57755 1.41491,-2.49593 0.24441,-1.07447 0.67417,-2.09216 1.06337,-3.12127 0.45766,-0.92443 0.83907,-1.84589 1.5192,-2.63194 10.40533,-7.03846 8.2827,-7.58111 13.86745,-7.65241 0,0 -12.03909,9.11382 -12.03909,9.11382 l 0,0 c -0.30292,0.13857 -0.15234,0.0529 -0.4474,0.26436 4.20405,-2.46006 8.40811,-4.92013 12.61216,-7.3802 -0.88254,0.52072 -1.51756,1.0801 -1.79541,2.10945 -0.59882,0.81699 -0.85149,1.9041 -1.19727,2.83088 -0.24077,1.1037 -0.53321,1.99834 -1.23506,2.89135 -0.70731,1.3005 -1.75865,2.26941 -2.6232,3.46937 -1.25414,2.36952 -3.10237,4.36972 -4.4308,6.7039 -1.75359,2.92602 -3.69263,5.71271 -5.76005,8.43006 -1.98689,2.70498 -4.09955,5.32172 -6.30899,7.84769 -2.15751,2.49774 -4.69813,4.68153 -6.52288,7.45361 -1.68339,2.22461 -3.16326,4.61415 -5.10214,6.63387 -1.88833,2.13803 -3.6415,4.37943 -5.26359,6.72726 -2.08279,2.41352 -4.32477,4.64904 -6.852,6.60766 -2.87715,2.29311 -5.92966,4.37065 -8.6046,6.90727 -3.34608,3.75778 -6.00208,8.07025 -9.18224,11.96632 -3.58281,4.49643 -7.35352,8.84878 -10.70807,13.52264 -2.93127,3.9772 -5.77251,8.03535 -8.2809,12.29473 -2.13261,3.62331 -4.35901,7.19741 -6.7263,10.67195 -2.36335,3.32832 -4.55868,6.77437 -6.9713,10.06934 -0.27803,0.50592 -1.59331,2.86077 -1.848,3.46619 -0.81478,1.93681 -1.22812,4.02116 -2.69734,5.6439 -1.88939,2.83921 -4.18107,5.34049 -6.61817,7.72019 -2.52268,2.79531 -4.64741,5.96245 -6.95069,8.93282 -1.22127,1.86749 -2.56028,3.69567 -3.68884,5.62078 -0.70833,1.20829 -1.56165,3.05206 -2.22574,4.27715 -0.36563,0.67448 -0.76582,1.32965 -1.14873,1.99447 -1.95682,3.2277 -4.07596,6.27865 -6.58752,9.10309 -4.33886,4.98042 -3.1271,13.39428 -15.86639,10.84747 -5.66709,0.0495 7.309137,-10.61355 12.07756,-8.66288 0.76724,0.24862 1.47497,0.60264 2.15005,1.04564 0.93256,0.51627 2.04928,0.77668 3.11019,0.80325 1.56693,0.011 3.13398,0.006 4.70095,0.0105 2.04776,0.008 4.0955,0.019 6.1433,0.0114 1.97432,-0.005 3.94859,-0.0302 5.92292,-0.0122 2.40445,0.0311 4.81019,0.0365 7.21214,0.16534 3.00448,0.20868 5.99526,0.55246 8.97974,0.95532 3.7301,0.34105 7.47276,0.54951 11.20436,0.87908 3.83931,0.18111 7.68535,0.0503 11.52782,0.0542 2.69498,-0.0105 5.39005,-0.0288 8.08501,-0.007 2.68405,0.0224 5.37157,0.0262 8.0497,0.22734 2.77802,0.22696 5.53694,0.64176 8.31988,0.78615 2.78273,0.003 5.56547,-7.6e-4 8.34819,0.006 2.98286,0.004 5.96573,-0.002 8.94859,8.2e-4 3.40405,0.0109 6.80808,0.0226 10.21213,0.0341 4.06828,3.1e-4 8.13661,0.004 12.20482,-0.0235 3.4581,-0.007 6.91626,-0.006 10.37432,0.01 4.10674,0.0154 8.21406,0.0333 12.31974,0.13354 3.25743,0.13443 6.49479,0.42688 9.73399,0.79234 4.37095,0.23502 8.75546,0.0654 13.13075,0.11703 4.39066,-0.004 8.78129,-0.0255 13.17196,-0.0279 3.04413,-0.0147 6.08837,-0.0626 9.13247,-0.0225 4.18812,0.0436 8.3763,0.0672 12.5647,0.0437 4.53465,-8e-4 9.06929,-0.001 13.60394,-0.003 3.85016,-0.0162 7.70034,-0.032 11.55055,-0.0336 3.81674,0.004 7.63336,0.0404 11.45011,0.0342 3.78346,-0.01 7.56683,-0.0455 11.35033,-0.0362 3.73875,0.0149 7.47751,0.0257 11.21627,0.0358 4.62295,0.007 9.24588,0.003 13.86882,0.0126 4.53834,0.004 9.07764,0.0149 13.61517,-0.0797 0,0 -12.08323,8.77898 -12.08323,8.77898 z"
       inkscape:connector-curvature="0" />
    <path
       style="fill:none;stroke:#ff0000;stroke-width:6;stroke-linecap:butt;stroke-linejoin:miter;stroke-opacity:1;stroke-miterlimit:4;stroke-dasharray:none;marker-start:url(#EmptyDiamondL)"
       d="m 231.42857,549.50504 c 0,0 -137.142856,411.42857 5.71429,377.14286"
       id="path6170"
       inkscape:connector-curvature="0" />
    <path
       style="fill:#000000;fill-opacity:1;fill-rule:nonzero;stroke:none"
       id="path3092-7"
       d="m 235.54432,846.22895 c -4.55311,2.4382 -11.41921,6.4026 9.11639,-5.3151 2.83567,-1.618 -2.47112,1.5358 -2.99178,1.9115 -1.12745,0.8548 -2.30383,1.6533 -3.23672,2.726 -0.69892,0.5226 -1.27227,1.1218 -1.86827,1.7521 -0.47223,0.4477 -0.71184,0.9421 -0.80738,1.5837 -0.11057,0.8732 0.0349,1.7476 -0.2372,2.592 -0.2015,0.9685 -0.91555,1.6374 -1.34523,2.4967 -0.46861,0.3129 -0.81659,0.7601 -1.16882,1.1917 -0.23117,0.3296 -0.56864,1.0548 -1.02017,1.0012 -0.0368,0.049 -0.0737,0.098 -0.1105,0.1474 0,0 -13.64454,6.4758 -13.64454,6.4758 l 0,0 c 0.009,-0.1085 0.0173,-0.2169 0.026,-0.3253 -0.0224,-0.6095 0.36584,-0.9375 0.87556,-1.2771 0.33274,-0.5301 0.73087,-1.0145 1.0783,-1.5347 0.62081,-0.1343 1.27514,-1.3243 1.65836,-1.8203 0.0922,-0.2151 0.31419,-0.3609 0.39488,-0.5805 0.17402,-0.4738 -0.14041,-1.1496 -0.006,-1.6384 0.0311,-0.7923 0.0281,-1.6871 0.45646,-2.3743 0.17045,-0.2617 0.27133,-0.5799 0.50048,-0.7922 0.0948,-0.088 0.26241,-0.062 0.35737,-0.1499 0.36384,-0.3355 0.32088,-0.982 0.92686,-1.0899 1.2098,-0.7656 1.91235,-2.2387 3.28617,-2.8405 0.97516,-0.8006 1.91255,-1.4748 3.00757,-2.1065 5.47345,-3.1579 10.86036,-6.4658 16.45824,-9.3975 0,0 -11.70642,9.3641 -11.70642,9.3641 z"
       inkscape:connector-curvature="0" />
    <path
       style="fill:#000000;fill-opacity:1;fill-rule:nonzero;stroke:none"
       id="path3082-2"
       d="m 534.64959,544.92715 c -0.14539,6.02453 -0.23626,12.04578 -0.49802,18.06718 -0.3433,6.57232 -0.52442,13.15056 -0.62174,19.73059 -0.0572,5.83967 -0.0527,11.67985 -0.0586,17.51977 -0.005,5.96403 -0.004,11.92806 -0.005,17.8921 -0.0666,7.56268 -0.0957,15.12554 -0.0818,22.68849 0.0574,6.42123 0.0424,12.84286 0.11481,19.26393 0.33292,5.26736 -0.53729,10.48188 -1.03952,15.70963 -0.88044,12.10982 -1.52305,24.23496 -2.46259,36.3405 -0.59849,8.17301 -1.55176,16.31313 -2.14873,24.48625 -0.50199,4.90002 -0.8897,9.8101 -1.46646,14.70195 -0.48105,4.09056 -0.68224,8.20124 -1.12173,12.29583 -0.36969,4.77401 -0.96322,9.52581 -1.36874,14.29641 -0.32995,4.34252 -0.39664,8.69774 -0.3994,13.05076 -0.008,2.27553 0.0428,4.55052 0.0568,6.82584 0.0159,1.25941 0.0375,2.51895 0.035,3.77849 0.004,1.30681 -0.02,2.61369 -0.0111,3.92049 0.002,1.39751 -0.01,2.79515 0.003,4.19261 -0.004,1.59907 -0.0169,3.19811 -0.0232,4.79718 0.024,1.65956 -0.005,3.31924 0.0112,4.97881 0.0213,1.41737 -0.002,2.83489 0.009,4.25227 -0.0113,1.33091 0.009,2.66174 0.007,3.99262 0.0193,0.76856 0.0154,1.5372 0.0289,2.30578 0.003,0.19116 0.0106,0.38223 0.0183,0.57323 0,0 -13.48688,6.8719 -13.48688,6.8719 l 0,0 c 0.008,-0.1972 0.015,-0.3945 0.0183,-0.5919 0.0134,-0.7783 0.01,-1.5568 0.0289,-2.3352 -0.002,-1.3333 0.0185,-2.6666 0.007,-4 0.0113,-1.42045 -0.0122,-2.84105 0.009,-4.26151 0.0164,-1.66339 -0.0127,-3.32689 0.0112,-4.99027 -0.006,-1.5912 -0.0193,-3.18237 -0.0232,-4.77357 0.0123,-1.39841 6.3e-4,-2.79699 0.003,-4.19544 0.009,-1.30242 -0.0145,-2.60491 -0.0122,-3.90733 -0.004,-1.26846 0.0131,-2.53695 0.0223,-3.80537 0.004,-2.30621 0.045,-4.6123 0.0799,-6.91822 0.0981,-4.40668 0.21765,-8.81465 0.50419,-13.21375 0.34391,-4.77431 0.98604,-9.51635 1.29064,-14.29364 0.38643,-4.10992 0.65584,-8.22804 1.12226,-12.33043 0.61637,-4.89737 1.00932,-9.81419 1.62705,-14.71216 0.69891,-8.26643 1.99839,-16.46712 2.64061,-24.7397 1.08346,-12.04746 1.84305,-24.12261 2.24898,-36.21254 0.2268,-5.15554 0.6737,-10.2941 0.75273,-15.45129 0.0721,-6.46007 0.0577,-12.92068 0.11479,-19.3809 0.0137,-7.53455 -0.015,-15.06902 -0.0848,-22.60327 -0.003,-5.96077 -0.008,-11.92153 -0.016,-17.88228 -0.004,-5.85314 -0.002,-11.70633 0.0864,-17.55897 0.10712,-6.60925 0.30754,-13.21634 0.69263,-19.81592 0.2879,-5.92508 0.35732,-11.85012 0.0772,-17.77829 0,0 13.3078,-6.78066 13.3078,-6.78066 z"
       inkscape:connector-curvature="0" />
    <path
       style="fill:#000000;fill-opacity:1;fill-rule:nonzero;stroke:none"
       id="path3084-4"
       d="m 484.50607,824.66599 c 3.54433,0.0848 7.08992,0.0516 10.63485,0.0475 2.79824,-0.0685 5.56071,0.49229 8.33909,0.76052 2.38344,0.19558 4.77721,0.20943 7.16718,0.22504 2.60458,0.39886 5.21821,0.70676 7.84787,0.87196 2.28444,0.41047 4.56788,0.83009 6.88372,1.01008 1.85551,0.12285 3.71613,0.12057 5.57478,0.12497 2.17774,10e-4 4.35542,0.008 6.53317,0.004 2.39386,0.003 4.7877,0.002 7.18156,-0.003 2.1229,-0.005 4.24579,-0.007 6.36869,-0.008 2.02106,-7.6e-4 4.04212,-6.9e-4 6.06318,-6.8e-4 1.78293,-0.003 3.56596,-0.002 5.34884,-0.0158 1.54226,0.16016 2.92603,-0.14112 4.37708,-0.61998 0.57924,-0.29114 1.32379,-0.0792 1.90843,-0.31139 0.13923,-0.0553 0.60387,-0.51092 0.72425,-0.62455 -4.197,2.43405 -8.39401,4.8681 -12.59101,7.3022 4.83069,-2.2846 8.63048,-7.07076 13.92674,-7.91656 0,0 -11.93694,9.24126 -11.93694,9.24126 l 0,0 c -4.99454,2.6038 15.71106,-11.62071 12.03865,-6.86579 -9.95746,5.83219 -9.25915,6.86339 -15.98742,8.31979 -1.52044,0.3172 -3.04986,0.3351 -4.59932,0.2949 -1.76835,-0.014 -3.53685,-0.013 -5.30525,-0.016 -2.02041,0 -4.04082,0 -6.06122,-8e-4 -2.11568,0 -4.23136,0 -6.34704,-0.01 -2.39344,0 -4.78685,0 -7.18028,0 -2.19055,8e-4 -4.38101,0.018 -6.57155,0.012 -1.88179,-0.015 -3.767,-0.038 -5.63942,-0.2467 -2.28455,-0.2627 -4.52921,-0.7816 -6.8183,-1.0108 -2.60594,-0.2085 -5.18755,-0.6331 -7.79658,-0.7943 -2.42837,-0.028 -4.86299,-0.05 -7.27863,-0.3276 -2.70499,-0.3275 -5.40559,-0.8101 -8.14225,-0.7035 -3.58852,0 -7.17762,-0.036 -10.76557,0.048 0,0 12.1027,-8.79316 12.1027,-8.79316 z"
       inkscape:connector-curvature="0" />
    <path
       style="fill:#000000;fill-opacity:1;fill-rule:nonzero;stroke:none"
       id="path3086-2"
       d="m 486.98504,833.76896 c -1.18889,2.6878 -2.64197,5.2022 -4.4057,7.5494 -1.1173,1.4948 -2.31494,2.9254 -3.53714,4.3347 -0.4801,0.5268 -0.86057,1.1289 -1.35196,1.6593 -0.29241,0.2441 -0.60792,0.4322 -0.90677,0.7121 -0.55008,0.5747 -1.20653,0.9739 -1.76561,1.5565 -3.28044,4.5032 -0.25578,0.4608 -13.4797,8.1003 -0.17711,0.1023 -0.76641,0.2734 -0.58922,0.1713 10.36801,-5.9783 16.99166,-9.5663 12.35266,-7.0514 -0.0873,0.057 -0.17456,0.1136 -0.26183,0.1704 0,0 -14.01964,5.5772 -14.01964,5.5772 l 0,0 c 0.084,-0.072 0.16793,-0.1439 0.25189,-0.2158 4.08638,-3.6259 0.13833,-0.1565 13.53269,-7.8356 0.15695,-0.09 0.6069,-0.3936 0.45055,-0.3026 -4.18156,2.4343 -8.37254,4.8528 -12.53062,7.3269 -0.11799,0.07 0.26506,-0.072 0.3976,-0.1075 0.52523,-0.6079 0.9558,-1.3436 1.69112,-1.636 0.292,-0.2874 0.51627,-0.6658 0.84513,-0.845 0.61929,-0.3473 1.28136,-0.7669 1.5107,-1.4601 1.31119,-1.3665 2.56964,-2.7831 3.73833,-4.2744 1.73921,-2.2571 3.52939,-4.4855 4.4195,-7.2504 0,0 13.65802,-6.1793 13.65802,-6.1793 z"
       inkscape:connector-curvature="0" />
    <path
       style="fill:#fe59d5;stroke:#a700e2;stroke-width:6;stroke-linecap:butt;stroke-linejoin:miter;stroke-opacity:1;fill-opacity:0.44339624000000000;stroke-miterlimit:4;stroke-dasharray:none"
       d="M 104.04571,722.0423 531.34024,554.35698 516.18795,830.12862 91.923882,998.8241 z"
       id="path3983"
       inkscape:connector-curvature="0" />
    <path
       style="fill:#000000;fill-opacity:1;fill-rule:nonzero;stroke:none"
       id="path3082"
       d="m 110.69961,714.68869 c -0.14539,6.02453 -0.23626,12.04578 -0.49802,18.06718 -0.3433,6.57232 -0.52442,13.15056 -0.62174,19.73059 -0.0572,5.83967 -0.0527,11.67985 -0.0586,17.51977 -0.005,5.96403 -0.004,11.92806 -0.005,17.8921 -0.0666,7.56268 -0.0957,15.12554 -0.0818,22.68849 0.0574,6.42123 0.0424,12.84286 0.11481,19.26393 0.33292,5.26736 -0.53729,10.48188 -1.03952,15.70963 -0.88044,12.10982 -1.52305,24.23496 -2.46259,36.3405 -0.59849,8.17301 -1.55176,16.31313 -2.14873,24.48625 -0.50199,4.90002 -0.8897,9.8101 -1.46646,14.70195 -0.48105,4.09056 -0.68224,8.20124 -1.12173,12.29583 -0.36969,4.77401 -0.96322,9.52581 -1.36874,14.29641 -0.329946,4.34252 -0.396644,8.69774 -0.399396,13.05076 -0.0076,2.27553 0.04283,4.55052 0.05675,6.82584 0.01592,1.25941 0.03748,2.51895 0.03496,3.77849 0.0037,1.30681 -0.02,2.61369 -0.01107,3.92049 0.0023,1.39751 -0.0097,2.79515 0.0027,4.19261 -0.0039,1.59907 -0.01692,3.19811 -0.02319,4.79718 0.02403,1.65956 -0.0053,3.31924 0.01124,4.97881 0.02129,1.41737 -0.0023,2.83489 0.0091,4.25227 -0.01126,1.33091 0.0092,2.66174 0.0072,3.99262 0.01931,0.76856 0.01545,1.5372 0.02889,2.30578 0.0032,0.19116 0.01059,0.38223 0.01828,0.57323 0,0 -13.486883,6.8719 -13.486883,6.8719 l 0,0 c 0.0076,-0.1972 0.01497,-0.3945 0.01828,-0.5919 0.01338,-0.7783 0.0097,-1.5568 0.02889,-2.3352 -0.002,-1.3333 0.01849,-2.6666 0.0072,-4 0.01135,-1.42045 -0.01216,-2.84105 0.0091,-4.26151 0.01641,-1.66339 -0.01268,-3.32689 0.01124,-4.99027 -0.0063,-1.5912 -0.01933,-3.18237 -0.02316,-4.77357 0.01233,-1.39841 6.3e-4,-2.79699 0.0028,-4.19544 0.0088,-1.30242 -0.0145,-2.60491 -0.01224,-3.90733 -0.0045,-1.26846 0.0131,-2.53695 0.02231,-3.80537 0.0042,-2.30621 0.04497,-4.6123 0.0799,-6.91822 0.09806,-4.40668 0.21765,-8.81465 0.504192,-13.21375 0.343909,-4.77431 0.986039,-9.51635 1.290642,-14.29364 0.386427,-4.10992 0.655832,-8.22804 1.122257,-12.33043 0.616364,-4.89737 1.00932,-9.81419 1.627044,-14.71216 0.698911,-8.26643 1.998396,-16.46712 2.640616,-24.7397 1.083459,-12.04746 1.843045,-24.12261 2.248977,-36.21254 0.226806,-5.15554 0.673698,-10.2941 0.752728,-15.45129 0.07207,-6.46007 0.05773,-12.92068 0.114798,-19.3809 0.01368,-7.53455 -0.01497,-15.06902 -0.08475,-22.60327 -0.003,-5.96077 -0.0084,-11.92153 -0.01595,-17.88228 -0.0041,-5.85314 -0.002,-11.70633 0.08641,-17.55897 0.107118,-6.60925 0.307539,-13.21634 0.692627,-19.81592 0.287899,-5.92508 0.357322,-11.85012 0.07723,-17.77829 0,0 13.307798,-6.78066 13.307798,-6.78066 z"
       inkscape:connector-curvature="0" />
    <path
       style="fill:#000000;fill-opacity:1;fill-rule:nonzero;stroke:none"
       id="path3084"
       d="m 60.556088,994.42753 c 3.544337,0.0848 7.089918,0.0516 10.634857,0.0475 2.798235,-0.0685 5.560701,0.49229 8.339081,0.76052 2.383447,0.19558 4.777213,0.20943 7.167189,0.22504 2.604576,0.39886 5.218208,0.70676 7.847862,0.87196 2.284443,0.41047 4.567888,0.83009 6.883723,1.01008 1.85551,0.12285 3.71613,0.12057 5.57478,0.12497 2.17774,0.001 4.35542,0.008 6.53317,0.004 2.39386,0.003 4.7877,0.002 7.18156,-0.003 2.1229,-0.005 4.24579,-0.007 6.36869,-0.008 2.02106,-7.6e-4 4.04212,-6.9e-4 6.06318,-6.8e-4 1.78293,-0.003 3.56596,-0.002 5.34884,-0.0158 1.54226,0.16016 2.92603,-0.14112 4.37708,-0.61998 0.57924,-0.29114 1.32379,-0.0792 1.90843,-0.31139 0.13923,-0.0553 0.60387,-0.51092 0.72425,-0.62455 -4.197,2.43405 -8.39401,4.86811 -12.59101,7.30221 4.83069,-2.2846 8.63048,-7.07077 13.92674,-7.91657 0,0 -11.93694,9.24127 -11.93694,9.24127 l 0,0 c -4.99454,2.6038 15.71106,-11.62072 12.03865,-6.8658 -9.95746,5.8322 -9.25915,6.8634 -15.98742,8.3198 -1.52044,0.3172 -3.04986,0.3351 -4.59932,0.2949 -1.76835,-0.014 -3.53685,-0.013 -5.30525,-0.016 -2.02041,0 -4.04082,0 -6.06122,-8e-4 -2.11568,-0 -4.23136,-0 -6.34704,-0.01 -2.39344,-0 -4.78685,-0 -7.18028,0 -2.190551,8e-4 -4.381014,0.018 -6.571549,0.012 -1.881791,-0.015 -3.766997,-0.038 -5.639421,-0.2467 -2.284552,-0.2627 -4.529214,-0.7816 -6.818302,-1.0108 -2.605933,-0.2085 -5.18755,-0.6331 -7.796579,-0.7943 -2.428365,-0.028 -4.862991,-0.05 -7.278632,-0.3276 -2.704982,-0.3275 -5.40559,-0.8101 -8.142248,-0.7035 -3.588522,-0 -7.177617,-0.036 -10.765571,0.048 0,0 12.1027,-8.79317 12.1027,-8.79317 z"
       inkscape:connector-curvature="0" />
    <path
       style="fill:#000000;fill-opacity:1;fill-rule:nonzero;stroke:none"
       id="path3088-9"
       d="m 502.21781,839.73136 c -0.72354,2.3369 -1.6148,4.6027 -2.70088,6.7932 -0.68939,1.266 -1.49945,2.5026 -2.58567,3.4626 -0.74125,0.5829 -1.52502,1.1105 -2.29836,1.6582 -0.55652,0.4533 -1.11181,0.8739 -1.70925,1.2642 -0.21321,0.154 -0.11555,0.084 -0.29285,0.211 0,0 -13.90091,5.9436 -13.90091,5.9436 l 0,0 c 0.13489,-0.2625 0.0564,-0.1246 0.24135,-0.4105 0.47586,-0.6212 1.10724,-0.8856 1.67479,-1.4214 0.74619,-0.6281 1.6303,-1.0486 2.28028,-1.758 1.2812,-0.6312 2.15399,-1.6177 2.9334,-2.8186 1.1927,-2.0595 2.26721,-4.2065 2.78078,-6.5479 0,0 13.57732,-6.3764 13.57732,-6.3764 z"
       inkscape:connector-curvature="0" />
    <path
       style="fill:#000000;fill-opacity:1;fill-rule:nonzero;stroke:none"
       id="path3090-2"
       d="m 521.21914,842.91536 c -2.14397,1.6882 -4.24404,3.4381 -6.10925,5.4333 -1.06548,1.4322 -2.21173,2.7608 -3.47748,4.0118 -0.56921,0.7054 -1.25242,1.3599 -1.73508,2.1352 -2.15286,4.9392 -9.76474,7.4561 -13.81479,8.4747 -4.71773,1.1864 8.40346,-4.9032 12.60519,-7.3547 0,0 -13.82273,6.0123 -13.82273,6.0123 l 0,0 c 13.17776,-8.0757 21.31228,-12.8883 0.41532,-0.7469 -0.47128,0.2738 1.12615,-0.4873 0.86952,-0.1835 0.47177,-1.099 0.97906,-1.601 1.60563,-2.5622 1.2309,-1.3269 2.74264,-2.3661 3.62223,-4.012 1.79019,-2.0741 3.8026,-3.8848 5.92226,-5.6221 0,0 13.91918,-5.5859 13.91918,-5.5859 z"
       inkscape:connector-curvature="0" />
    <path
       style="fill:#000000;fill-opacity:1;fill-rule:nonzero;stroke:none"
       id="path3092-9"
       d="m 532.52917,850.26956 c -4.55311,2.4382 -11.41921,6.4026 9.11639,-5.3151 2.83567,-1.618 -2.47112,1.5358 -2.99178,1.9115 -1.12745,0.8548 -2.30383,1.6533 -3.23672,2.726 -0.69892,0.5226 -1.27227,1.1218 -1.86827,1.7521 -0.47223,0.4477 -0.71184,0.9421 -0.80738,1.5837 -0.11057,0.8732 0.0349,1.7476 -0.2372,2.592 -0.2015,0.9685 -0.91555,1.6374 -1.34523,2.4967 -0.46861,0.3129 -0.81659,0.7601 -1.16882,1.1917 -0.23117,0.3296 -0.56864,1.0548 -1.02017,1.0012 -0.0368,0.049 -0.0737,0.098 -0.1105,0.1474 0,0 -13.64454,6.4758 -13.64454,6.4758 l 0,0 c 0.009,-0.1085 0.0173,-0.2169 0.026,-0.3253 -0.0224,-0.6095 0.36584,-0.9375 0.87556,-1.2771 0.33275,-0.5301 0.73088,-1.0145 1.0783,-1.5347 0.62081,-0.1343 1.27515,-1.3243 1.65836,-1.8203 0.0922,-0.2151 0.31419,-0.3609 0.39488,-0.5805 0.17403,-0.4738 -0.14041,-1.1496 -0.006,-1.6384 0.0311,-0.7923 0.0281,-1.6871 0.45647,-2.3743 0.17045,-0.2617 0.27132,-0.5799 0.50047,-0.7922 0.0948,-0.088 0.26241,-0.062 0.35738,-0.1499 0.36383,-0.3355 0.32088,-0.982 0.92686,-1.0899 1.20979,-0.7656 1.91234,-2.2387 3.28616,-2.8405 0.97516,-0.8006 1.91255,-1.4748 3.00757,-2.1065 5.47345,-3.1579 10.86036,-6.4658 16.45824,-9.3975 0,0 -11.70642,9.3641 -11.70642,9.3641 z"
       inkscape:connector-curvature="0" />
    <path
       style="fill:#000000;fill-opacity:1;fill-rule:nonzero;stroke:none"
       id="path3082-8"
       d="m 399.28915,721.70385 c -0.14539,6.02453 -0.23626,12.04578 -0.49802,18.06718 -0.3433,6.57232 -0.52442,13.15056 -0.62174,19.73059 -0.0572,5.83967 -0.0527,11.67985 -0.0586,17.51977 -0.005,5.96403 -0.004,11.92806 -0.005,17.8921 -0.0666,7.56268 -0.0957,15.12554 -0.0818,22.68849 0.0574,6.42123 0.0424,12.84286 0.11481,19.26393 0.33292,5.26736 -0.53729,10.48188 -1.03952,15.70963 -0.88044,12.10982 -1.52305,24.23496 -2.46259,36.3405 -0.59849,8.17301 -1.55176,16.31313 -2.14873,24.48625 -0.50199,4.90002 -0.8897,9.8101 -1.46646,14.70195 -0.48105,4.09056 -0.68224,8.20124 -1.12173,12.29583 -0.36969,4.77401 -0.96322,9.52581 -1.36874,14.29641 -0.32995,4.34252 -0.39665,8.69774 -0.3994,13.05076 -0.008,2.27553 0.0428,4.55052 0.0567,6.82584 0.0159,1.25941 0.0375,2.51895 0.035,3.77849 0.004,1.30681 -0.02,2.61369 -0.0111,3.92049 0.002,1.39751 -0.01,2.79515 0.003,4.19261 -0.004,1.59907 -0.0169,3.19811 -0.0232,4.79718 0.024,1.65956 -0.005,3.31924 0.0112,4.97881 0.0213,1.41737 -0.002,2.83489 0.009,4.25224 -0.0113,1.3309 0.009,2.6618 0.007,3.9926 0.0193,0.7686 0.0155,1.5372 0.0289,2.3058 0.003,0.1912 0.0106,0.3823 0.0183,0.5733 0,0 -13.48688,6.8719 -13.48688,6.8719 l 0,0 c 0.008,-0.1972 0.015,-0.3945 0.0183,-0.5919 0.0134,-0.7783 0.01,-1.5568 0.0289,-2.3352 -0.002,-1.3333 0.0185,-2.6666 0.007,-4 0.0113,-1.4205 -0.0122,-2.8411 0.009,-4.2616 0.0164,-1.6633 -0.0127,-3.32684 0.0112,-4.99022 -0.006,-1.5912 -0.0193,-3.18237 -0.0232,-4.77357 0.0123,-1.39841 6.3e-4,-2.79699 0.003,-4.19544 0.009,-1.30242 -0.0145,-2.60491 -0.0122,-3.90733 -0.005,-1.26846 0.0131,-2.53695 0.0223,-3.80537 0.004,-2.30621 0.045,-4.6123 0.0799,-6.91822 0.0981,-4.40668 0.21765,-8.81465 0.50419,-13.21375 0.34391,-4.77431 0.98604,-9.51635 1.29064,-14.29364 0.38643,-4.10992 0.65583,-8.22804 1.12226,-12.33043 0.61636,-4.89737 1.00932,-9.81419 1.62704,-14.71216 0.69891,-8.26643 1.9984,-16.46712 2.64062,-24.7397 1.08346,-12.04746 1.84304,-24.12261 2.24898,-36.21254 0.2268,-5.15554 0.67369,-10.2941 0.75272,-15.45129 0.0721,-6.46007 0.0577,-12.92068 0.1148,-19.3809 0.0137,-7.53455 -0.015,-15.06902 -0.0847,-22.60327 -0.003,-5.96077 -0.008,-11.92153 -0.016,-17.88228 -0.004,-5.85314 -0.002,-11.70633 0.0864,-17.55897 0.10712,-6.60925 0.30754,-13.21634 0.69263,-19.81592 0.2879,-5.92508 0.35732,-11.85012 0.0772,-17.77829 0,0 13.3078,-6.78066 13.3078,-6.78066 z"
       inkscape:connector-curvature="0" />
    <path
       style="fill:#000000;fill-opacity:1;fill-rule:nonzero;stroke:none"
       id="path3084-1"
       d="m 349.14562,1001.4427 c 3.54434,0.085 7.08992,0.052 10.63486,0.048 2.79824,-0.068 5.5607,0.4923 8.33908,0.7605 2.38345,0.1956 4.77722,0.2094 7.16719,0.225 2.60458,0.3989 5.21821,0.7068 7.84786,0.872 2.28445,0.4105 4.56789,0.8301 6.88373,1.0101 1.85551,0.1228 3.71613,0.1206 5.57478,0.125 2.17774,10e-4 4.35542,0.01 6.53317,0 2.39386,0 4.7877,0 7.18156,-0 2.1229,-0 4.24579,-0.01 6.36869,-0.01 2.02106,-8e-4 4.04212,-7e-4 6.06318,-7e-4 1.78293,-0 3.56595,-0 5.34883,-0.016 1.54226,0.1601 2.92603,-0.1411 4.37708,-0.62 0.57924,-0.2911 1.32379,-0.079 1.90843,-0.3114 0.13923,-0.055 0.60387,-0.5109 0.72425,-0.6245 -4.197,2.434 -8.39401,4.8681 -12.591,7.3022 4.83068,-2.2846 8.63047,-7.0708 13.92673,-7.9166 0,0 -11.93693,9.2413 -11.93693,9.2413 l 0,0 c -4.99454,2.6038 15.71105,-11.62075 12.03864,-6.8658 -9.95746,5.8322 -9.25915,6.8634 -15.98741,8.3198 -1.52044,0.3172 -3.04986,0.3351 -4.59932,0.2949 -1.76835,-0.014 -3.53685,-0.013 -5.30525,-0.016 -2.02041,0 -4.04082,0 -6.06122,-8e-4 -2.11568,0 -4.23136,0 -6.34704,-0.01 -2.39344,0 -4.78685,0 -7.18028,0 -2.19055,8e-4 -4.38102,0.018 -6.57155,0.012 -1.88179,-0.015 -3.767,-0.038 -5.63942,-0.2467 -2.28456,-0.2627 -4.52922,-0.7816 -6.81831,-1.0108 -2.60593,-0.2085 -5.18755,-0.6331 -7.79657,-0.7943 -2.42837,-0.028 -4.863,-0.05 -7.27864,-0.3276 -2.70498,-0.3275 -5.40559,-0.8101 -8.14224,-0.7035 -3.58853,0 -7.17762,-0.036 -10.76558,0.048 0,0 12.1027,-8.7932 12.1027,-8.7932 z"
       inkscape:connector-curvature="0" />
    <path
       style="fill:#000000;fill-opacity:1;fill-rule:nonzero;stroke:none"
       id="path3086-6"
       d="m 351.62459,1010.5457 c -1.18889,2.6878 -2.64196,5.2022 -4.4057,7.5494 -1.11729,1.4948 -2.31494,2.9254 -3.53713,4.3347 -0.4801,0.5268 -0.86058,1.1289 -1.35196,1.6593 -0.29241,0.2441 -0.60792,0.4322 -0.90677,0.7121 -0.55008,0.5747 -1.20653,0.9739 -1.76562,1.5565 -3.28044,4.5032 -0.25577,0.4608 -13.47969,8.1003 -0.17711,0.1023 -0.76641,0.2734 -0.58922,0.1713 10.36801,-5.9783 16.99166,-9.5663 12.35265,-7.0514 -0.0873,0.057 -0.17455,0.1136 -0.26182,0.1704 0,0 -14.01965,5.5772 -14.01965,5.5772 l 0,0 c 0.084,-0.072 0.16793,-0.1439 0.2519,-0.2158 4.08637,-3.6259 0.13832,-0.1565 13.53269,-7.8356 0.15695,-0.09 0.60689,-0.3936 0.45054,-0.3026 -4.18155,2.4343 -8.37253,4.8528 -12.53062,7.3269 -0.11798,0.07 0.26507,-0.072 0.39761,-0.1075 0.52523,-0.6079 0.9558,-1.3436 1.69111,-1.636 0.29201,-0.2874 0.51628,-0.6658 0.84513,-0.845 0.6193,-0.3473 1.28137,-0.7669 1.51071,-1.4601 1.31119,-1.3665 2.56963,-2.7831 3.73832,-4.2744 1.73922,-2.2571 3.52939,-4.4855 4.4195,-7.2504 0,0 13.65802,-6.1793 13.65802,-6.1793 z"
       inkscape:connector-curvature="0" />
    <path
       style="fill:#000000;fill-opacity:1;fill-rule:nonzero;stroke:none"
       id="path3088-2"
       d="m 366.85737,1016.5081 c -0.72354,2.3369 -1.6148,4.6027 -2.70088,6.7932 -0.68939,1.266 -1.49945,2.5026 -2.58567,3.4626 -0.74125,0.5829 -1.52503,1.1105 -2.29837,1.6582 -0.55651,0.4533 -1.1118,0.8739 -1.70924,1.2642 -0.21321,0.154 -0.11555,0.084 -0.29286,0.211 0,0 -13.9009,5.9436 -13.9009,5.9436 l 0,0 c 0.13489,-0.2625 0.0564,-0.1246 0.24134,-0.4105 0.47586,-0.6212 1.10724,-0.8856 1.6748,-1.4214 0.74619,-0.6281 1.63029,-1.0486 2.28028,-1.758 1.28119,-0.6312 2.15398,-1.6177 2.93339,-2.8186 1.1927,-2.0595 2.26722,-4.2065 2.78078,-6.5479 0,0 13.57733,-6.3764 13.57733,-6.3764 z"
       inkscape:connector-curvature="0" />
    <path
       style="fill:#000000;fill-opacity:1;fill-rule:nonzero;stroke:none"
       id="path3090-6"
       d="m 385.8587,1019.6921 c -2.14397,1.6882 -4.24405,3.4381 -6.10926,5.4333 -1.06548,1.4322 -2.21172,2.7608 -3.47748,4.0118 -0.5692,0.7054 -1.25241,1.3599 -1.73507,2.1352 -2.15286,4.9392 -9.76474,7.4561 -13.81479,8.4747 -4.71774,1.1864 8.40346,-4.9032 12.60519,-7.3547 0,0 -13.82273,6.0123 -13.82273,6.0123 l 0,0 c 13.17775,-8.0757 21.31228,-12.8883 0.41532,-0.7469 -0.47128,0.2738 1.12614,-0.4873 0.86952,-0.1835 0.47176,-1.099 0.97906,-1.601 1.60563,-2.5622 1.2309,-1.3269 2.74264,-2.3661 3.62222,-4.012 1.7902,-2.0741 3.8026,-3.8848 5.92227,-5.6221 0,0 13.91918,-5.5859 13.91918,-5.5859 z"
       inkscape:connector-curvature="0" />
    <path
       style="fill:#000000;fill-opacity:1;fill-rule:nonzero;stroke:none"
       id="path3092-5"
       d="m 397.16873,1027.0463 c -4.55311,2.4382 -11.41921,6.4026 9.11639,-5.3151 2.83567,-1.618 -2.47112,1.5358 -2.99178,1.9115 -1.12745,0.8548 -2.30383,1.6533 -3.23672,2.726 -0.69892,0.5226 -1.27227,1.1218 -1.86827,1.7521 -0.47223,0.4477 -0.71184,0.9421 -0.80738,1.5837 -0.11057,0.8732 0.0349,1.7476 -0.2372,2.592 -0.2015,0.9685 -0.91555,1.6374 -1.34523,2.4967 -0.46861,0.3129 -0.81659,0.7601 -1.16882,1.1917 -0.23117,0.3296 -0.56864,1.0548 -1.02017,1.0012 -0.0368,0.049 -0.0737,0.098 -0.1105,0.1474 0,0 -13.64454,6.4758 -13.64454,6.4758 l 0,0 c 0.009,-0.1085 0.0173,-0.2169 0.026,-0.3253 -0.0224,-0.6095 0.36584,-0.9375 0.87556,-1.2771 0.33274,-0.5301 0.73087,-1.0145 1.0783,-1.5347 0.62081,-0.1343 1.27514,-1.3243 1.65836,-1.8203 0.0922,-0.2151 0.31419,-0.3609 0.39488,-0.5805 0.17402,-0.4738 -0.14041,-1.1496 -0.006,-1.6384 0.0311,-0.7923 0.0281,-1.6871 0.45646,-2.3743 0.17045,-0.2617 0.27133,-0.5799 0.50048,-0.7922 0.0948,-0.088 0.26241,-0.062 0.35737,-0.1499 0.36384,-0.3355 0.32088,-0.982 0.92686,-1.0899 1.2098,-0.7656 1.91235,-2.2387 3.28617,-2.8405 0.97516,-0.8006 1.91255,-1.4748 3.00757,-2.1065 5.47345,-3.1579 10.86036,-6.4658 16.45824,-9.3975 0,0 -11.70642,9.3641 -11.70642,9.3641 z"
       inkscape:connector-curvature="0" />
    <path
       style="fill:#000000;fill-opacity:1;fill-rule:nonzero;stroke:none"
       id="path3169"
       d="m 537.92507,549.991 c -0.35726,3.7688 -1.4879,7.33294 -2.97716,10.78974 -1.78436,3.68437 -3.86853,7.2148 -6.03869,10.68256 -2.53447,3.96594 -5.07239,7.92987 -7.61287,11.8923 -1.94263,3.01201 -4.13885,5.84691 -6.46063,8.57335 -1.69866,2.19404 -2.87688,4.74796 -4.33964,7.11061 -2.01485,3.09935 -4.02713,6.19869 -5.99235,9.32983 -1.79341,2.81027 -4.16214,5.16891 -6.40699,7.60919 -2.73642,2.73467 -4.92056,5.92858 -7.11978,9.09107 -2.88451,4.0668 -6.01401,7.95263 -9.00168,11.94439 -3.11107,4.23168 -6.95008,7.81266 -10.78228,11.37072 -3.72311,3.39858 -6.73972,7.45412 -10.01105,11.26659 -2.40255,2.7128 -4.9764,5.26566 -7.54904,7.81524 -2.6466,2.43616 -4.71808,5.3902 -6.86351,8.25498 -2.67866,3.76785 -5.3136,7.55377 -8.22775,11.14573 -2.34208,2.63112 -4.75052,5.20358 -7.17987,7.7543 -2.2881,2.61527 -4.40525,5.37255 -6.64258,8.03503 -2.02677,2.48145 -4.27157,4.76927 -6.40595,7.15468 -1.48021,1.93934 -3.15561,3.68402 -4.96239,5.31638 -1.37284,1.13842 -2.78513,2.21213 -4.06896,3.45247 -1.16868,1.08009 -2.36321,2.13839 -3.46769,3.28481 -0.63003,0.44112 -1.11087,1.14401 -1.77663,1.53805 -0.20929,0.12387 -34.38675,19.77173 -1.46477,0.86773 -0.71973,0.42092 -1.41598,0.6054 -1.66756,1.44875 -0.44772,0.48803 -0.86399,0.58054 -0.96567,1.32847 -4.58762,-3.93374 -8.52008,7.16965 -13.74665,7.6844 0,0 11.97354,-9.22788 11.97354,-9.22788 l 0,0 c 4.32639,-2.48838 10.11973,-3.02263 -12.25883,7.13519 0.8108,0.41991 0.30421,-1.04723 1.0669,-1.11825 0.70598,-0.0485 0.56162,-1.72613 1.565,-1.83725 4.45551,-2.56646 8.91228,-5.13073 13.36652,-7.69939 0.14405,-0.0831 0.57205,-0.33932 0.42829,-0.25574 -3.88223,2.25697 -15.37452,9.27946 -11.62412,6.80961 0.0551,-0.0363 1.18425,-0.97715 1.21392,-1.0018 1.26141,-0.98521 2.28787,-2.25739 3.47864,-3.32738 1.41984,-1.08548 2.51484,-2.5614 4.10779,-3.44048 1.82133,-1.60694 3.70722,-3.14853 5.10837,-5.16113 2.04582,-2.49194 4.45022,-4.67072 6.48558,-7.17689 2.25145,-2.65513 4.45475,-5.32997 6.55674,-8.10214 2.46982,-2.54947 4.86921,-5.16513 7.34739,-7.70581 2.97368,-3.52687 5.67312,-7.24428 8.24284,-11.07426 2.13918,-2.86167 4.07985,-5.92448 6.66496,-8.41202 2.60821,-2.55838 5.23494,-5.10077 7.72529,-7.77544 3.40312,-3.77109 6.35305,-7.94339 10.05179,-11.44468 3.79518,-3.51261 7.64788,-6.98702 10.82291,-11.09516 2.94487,-3.99612 6.08034,-7.84859 8.96949,-11.88102 2.19301,-3.14988 4.20351,-6.49031 6.94454,-9.20513 2.13388,-2.49433 4.60341,-4.69836 6.51823,-7.38243 1.94013,-3.162 3.99993,-6.24529 6.03774,-9.34471 0.62331,-1.01659 1.28645,-2.00959 1.87409,-3.0472 0.61646,-1.08848 1.01841,-2.29555 1.61025,-3.3823 0.16933,-0.31091 0.41542,-0.57339 0.62313,-0.86008 2.44825,-2.66068 4.75315,-5.45565 6.76644,-8.46371 2.57194,-3.92372 5.02528,-7.92783 7.58855,-11.8569 2.14692,-3.42188 4.19335,-6.89828 6.07782,-10.4737 1.51229,-3.27392 2.86684,-6.65048 2.98702,-10.30864 0,0 13.41132,-6.62465 13.41132,-6.62465 z"
       inkscape:connector-curvature="0" />
    <g
       sodipodi:type="inkscape:box3d"
       style="fill:none;stroke:none"
       id="g4006"
       inkscape:perspectiveID="#perspective4004"
       inkscape:corner0="0.63794382 : -0.41058453 : 0 : 1"
       inkscape:corner7="0.52300039 : -0.45948915 : 0.25 : 1">
      <path
         sodipodi:type="inkscape:box3dside"
         id="path4016"
         style="fill:#afafde;fill-rule:evenodd;stroke:none"
         inkscape:box3dsidetype="13"
         d="m 206.0754,962.92726 18.27239,22.97419 51.09862,-46.16218 -18.96381,-17.12149 z" />
      <path
         sodipodi:type="inkscape:box3dside"
         id="path4008"
         style="fill:#353564;fill-rule:evenodd;stroke:none"
         inkscape:box3dsidetype="6"
         d="m 202.06979,939.47889 4.00561,23.44837 50.4072,-40.30948 -3.47518,-20.34335 z" />
      <path
         sodipodi:type="inkscape:box3dside"
         id="path4018"
         style="fill:#e9e9ff;fill-rule:evenodd;stroke:none"
         inkscape:box3dsidetype="11"
         d="m 253.00742,902.27443 18.73851,15.80263 3.70048,21.66221 -18.96381,-17.12149 z" />
      <path
         sodipodi:type="inkscape:box3dside"
         id="path4010"
         style="fill:#4d4d9f;fill-rule:evenodd;stroke:none"
         inkscape:box3dsidetype="5"
         d="m 202.06979,939.47889 17.97009,21.20451 51.70605,-42.60634 -18.73851,-15.80263 z" />
      <path
         sodipodi:type="inkscape:box3dside"
         id="path4014"
         style="fill:#d7d7ff;fill-rule:evenodd;stroke:none"
         inkscape:box3dsidetype="14"
         d="m 220.03988,960.6834 4.30791,25.21805 51.09862,-46.16218 -3.70048,-21.66221 z" />
      <path
         sodipodi:type="inkscape:box3dside"
         id="path4012"
         style="fill:#8686bf;fill-rule:evenodd;stroke:none"
         inkscape:box3dsidetype="3"
         d="m 202.06979,939.47889 17.97009,21.20451 4.30791,25.21805 -18.27239,-22.97419 z" />
    </g>
    <path
       style="fill:none;stroke:#0000ff;stroke-width:6;stroke-linecap:butt;stroke-linejoin:miter;stroke-opacity:1;stroke-miterlimit:4;stroke-dasharray:none;marker-start:url(#EmptyDiamondL);marker-end:url(#DotM)"
       d="M 107.14286,726.6479 235.71429,928.07647"
       id="path5426"
       inkscape:connector-curvature="0" />
    <path
       style="fill:none;stroke:#0000ff;stroke-width:6;stroke-linecap:butt;stroke-linejoin:miter;stroke-opacity:1;stroke-miterlimit:4;stroke-dasharray:none;marker-start:url(#EmptyDiamondL)"
       d="M 391.42857,733.79075 237.14286,926.6479"
       id="path5798"
       inkscape:connector-curvature="0" />
    <path
       style="fill:none;stroke:#0000ff;stroke-width:6;stroke-linecap:butt;stroke-linejoin:miter;stroke-opacity:1;stroke-miterlimit:4;stroke-dasharray:none;marker-start:url(#EmptyDiamondL)"
       d="M 531.42857,556.6479 232.85714,919.50504"
       id="path5984"
       inkscape:connector-curvature="0" />
  </g>
</svg>
