<?xml version="1.0" encoding="UTF-8" standalone="no"?>
<!-- Created with Inkscape (http://www.inkscape.org/) -->

<svg
   xmlns:dc="http://purl.org/dc/elements/1.1/"
   xmlns:cc="http://creativecommons.org/ns#"
   xmlns:rdf="http://www.w3.org/1999/02/22-rdf-syntax-ns#"
   xmlns:svg="http://www.w3.org/2000/svg"
   xmlns="http://www.w3.org/2000/svg"
   xmlns:sodipodi="http://sodipodi.sourceforge.net/DTD/sodipodi-0.dtd"
   xmlns:inkscape="http://www.inkscape.org/namespaces/inkscape"
   id="svg3172"
   version="1.1"
   inkscape:version="0.48.4 r9939"
   width="744.09447"
   height="1052.3622"
   xml:space="preserve"
   sodipodi:docname="drawing01.svg"><metadata
     id="metadata3178"><rdf:RDF><cc:Work
         rdf:about=""><dc:format>image/svg+xml</dc:format><dc:type
           rdf:resource="http://purl.org/dc/dcmitype/StillImage" /><dc:title></dc:title></cc:Work></rdf:RDF></metadata><defs
     id="defs3176"><marker
       inkscape:stockid="Arrow1Mend"
       orient="auto"
       refY="0.0"
       refX="0.0"
       id="Arrow1Mend"
       style="overflow:visible;"><path
         id="path4410"
         d="M 0.0,0.0 L 5.0,-5.0 L -12.5,0.0 L 5.0,5.0 L 0.0,0.0 z "
         style="fill-rule:evenodd;stroke:#000000;stroke-width:1.0pt;"
         transform="scale(0.4) rotate(180) translate(10,0)" /></marker><clipPath
       clipPathUnits="userSpaceOnUse"
       id="clipPath3188"><path
         d="m 77,78.889771 21,0 0,233.999999 -21,0 0,-233.999999 z"
         id="path3190" /></clipPath><mask
       maskUnits="userSpaceOnUse"
       x="0"
       y="0"
       width="1"
       height="1"
       id="mask3192"><g
         id="g3194"><g
           clip-path="url(#clipPath3188)"
           id="g3196"><path
             d="m 77,78.889771 21,0 0,233.999999 -21,0 0,-233.999999 z"
             style="fill:#000000;fill-opacity:0.01;fill-rule:nonzero;stroke:none"
             id="path3198" /></g></g></mask><clipPath
       clipPathUnits="userSpaceOnUse"
       id="clipPath3204"><path
         d="m 77,78.889771 21,0 0,233.999999 -21,0 0,-233.999999 z"
         id="path3206" /></clipPath><clipPath
       clipPathUnits="userSpaceOnUse"
       id="clipPath3208"><path
         d="m 77,79 21,0 0,234 -21,0 0,-234 z"
         id="path3210" /></clipPath><clipPath
       clipPathUnits="userSpaceOnUse"
       id="clipPath3246"><path
         d="m 159,229.88977 21,0 0,234 -21,0 0,-234 z"
         id="path3248" /></clipPath><mask
       maskUnits="userSpaceOnUse"
       x="0"
       y="0"
       width="1"
       height="1"
       id="mask3250"><g
         id="g3252"><g
           clip-path="url(#clipPath3246)"
           id="g3254"><path
             d="m 159,229.88977 21,0 0,234 -21,0 0,-234 z"
             style="fill:#000000;fill-opacity:0.01;fill-rule:nonzero;stroke:none"
             id="path3256" /></g></g></mask><clipPath
       clipPathUnits="userSpaceOnUse"
       id="clipPath3262"><path
         d="m 159,229.88977 21,0 0,234 -21,0 0,-234 z"
         id="path3264" /></clipPath><clipPath
       clipPathUnits="userSpaceOnUse"
       id="clipPath3266"><path
         d="m 159,230 21,0 0,234 -21,0 0,-234 z"
         id="path3268" /></clipPath><clipPath
       clipPathUnits="userSpaceOnUse"
       id="clipPath3340"><path
         d="m 465,229.88977 22,0 0,234 -22,0 0,-234 z"
         id="path3342" /></clipPath><mask
       maskUnits="userSpaceOnUse"
       x="0"
       y="0"
       width="1"
       height="1"
       id="mask3344"><g
         id="g3346"><g
           clip-path="url(#clipPath3340)"
           id="g3348"><path
             d="m 465,229.88977 22,0 0,234 -22,0 0,-234 z"
             style="fill:#000000;fill-opacity:0.01;fill-rule:nonzero;stroke:none"
             id="path3350" /></g></g></mask><clipPath
       clipPathUnits="userSpaceOnUse"
       id="clipPath3356"><path
         d="m 465,229.88977 22,0 0,234 -22,0 0,-234 z"
         id="path3358" /></clipPath><clipPath
       clipPathUnits="userSpaceOnUse"
       id="clipPath3360"><path
         d="m 465,230 22,0 0,234 -22,0 0,-234 z"
         id="path3362" /></clipPath><marker
       inkscape:stockid="Arrow1Mend"
       orient="auto"
       refY="0"
       refX="0"
       id="Arrow1Mend-7"
       style="overflow:visible"><path
         inkscape:connector-curvature="0"
         id="path4410-1"
         d="M 0,0 5,-5 -12.5,0 5,5 0,0 z"
         style="fill-rule:evenodd;stroke:#000000;stroke-width:1pt"
         transform="matrix(-0.4,0,0,-0.4,-4,0)" /></marker><marker
       inkscape:stockid="Arrow1Mend"
       orient="auto"
       refY="0"
       refX="0"
       id="Arrow1Mend-71"
       style="overflow:visible"><path
         inkscape:connector-curvature="0"
         id="path4410-4"
         d="M 0,0 5,-5 -12.5,0 5,5 0,0 z"
         style="fill-rule:evenodd;stroke:#000000;stroke-width:1pt"
         transform="matrix(-0.4,0,0,-0.4,-4,0)" /></marker><marker
       inkscape:stockid="Arrow1Mend"
       orient="auto"
       refY="0"
       refX="0"
       id="Arrow1Mend-71-6"
       style="overflow:visible"><path
         inkscape:connector-curvature="0"
         id="path4410-4-7"
         d="M 0,0 5,-5 -12.5,0 5,5 0,0 z"
         style="fill-rule:evenodd;stroke:#000000;stroke-width:1pt"
         transform="matrix(-0.4,0,0,-0.4,-4,0)" /></marker></defs><sodipodi:namedview
     pagecolor="#ffffff"
     bordercolor="#666666"
     borderopacity="1"
     objecttolerance="10"
     gridtolerance="10"
     guidetolerance="10"
     inkscape:pageopacity="0"
     inkscape:pageshadow="2"
     inkscape:window-width="1920"
     inkscape:window-height="1128"
     id="namedview3174"
     showgrid="false"
     inkscape:zoom="0.88372617"
     inkscape:cx="174.58789"
     inkscape:cy="621.31019"
     inkscape:window-x="0"
     inkscape:window-y="24"
     inkscape:window-maximized="1"
     inkscape:current-layer="g3180" /><g
     id="g3180"
     inkscape:groupmode="layer"
     inkscape:label="drawing01"
     transform="matrix(1.25,0,0,-1.25,0,1052.3622)"><g
       id="g3184"><g
         id="g3186" /><g
         mask="url(#mask3192)"
         id="g3200"><g
           id="g3202" /><g
           id="g3212"><g
             id="g3214"
             clip-path="url(#clipPath3204)"><g
               id="g3216"
               transform="translate(0,-0.110229)"><g
                 id="g3218" /><g
                 id="g3220"><g
                   id="g3222"
                   clip-path="url(#clipPath3208)"><g
                     id="g3224"><g
                       id="g3226"
                       transform="matrix(1,0,0,-1,0,842)"><path
                         inkscape:connector-curvature="0"
                         id="path3228"
                         style="fill:#fdd99b;fill-opacity:1;fill-rule:nonzero;stroke:#0000ff;stroke-width:2.0882349;stroke-linecap:butt;stroke-linejoin:miter;stroke-miterlimit:4;stroke-opacity:1;stroke-dasharray:none"
                         d="m 95.215,531.027 c -0.43,8.621 -0.348,17.254 -0.18,25.879 0.758,13.668 1.203,27.332 1.207,41.028 -0.199,19.132 -0.043,38.269 0.473,57.398 0.449,8.125 -1.137,16.082 -2.285,24.059 -1.45,12.14 -1.508,24.41 -1.618,36.629 -0.054,8.66 0.122,17.316 0.301,25.972 0.075,2.738 0.239,5.457 -0.203,8.164 -0.265,1.188 -0.379,2.403 -0.707,3.574 l -13.023,6.465 c 0.371,-1.144 0.617,-2.246 0.777,-3.453 0.676,-2.637 0.648,-5.304 0.637,-8.027 0.156,-8.793 0.344,-17.586 0.426,-26.383 0.128,-12.176 0.039,-24.387 1.023,-36.527 1.019,-8.016 2.812,-15.938 2.762,-24.082 0.465,-19.2 0.574,-38.414 -0.028,-57.614 -0.422,-13.593 -0.925,-27.191 -1.64,-40.773 -0.278,-8.481 -0.449,-16.961 -0.727,-25.438 l 12.805,-6.871 z" /></g></g></g></g></g></g></g></g></g><path
       inkscape:connector-curvature="0"
       id="path3230"
       style="fill:#000000;fill-opacity:1;fill-rule:nonzero;stroke:none"
       d="m 73.258,106.566 c 4.66,-0.125 9.324,-0.11 13.988,-0.106 5,0.02 10,0.004 14.996,0.008 4.942,-0.012 9.883,-0.004 14.82,0.016 3.301,0.019 6.602,0.039 9.903,0.062 1.777,0.008 3.555,0.012 5.332,0.043 0.637,-0.008 1.277,0.02 1.918,0.016 l -11.707,-8.961 c -0.629,-0.004 -1.254,0.019 -1.883,0.015 -1.738,0.032 -3.477,0.032 -5.215,0.043 -3.246,0.02 -6.496,0.043 -9.742,0.059 -4.926,0.019 -9.856,0.027 -14.781,0.015 -4.992,0.004 -9.981,-0.007 -14.973,0.012 -4.754,0.004 -9.512,0.016 -14.266,-0.105 l 11.61,8.883 z" /><path
       inkscape:connector-curvature="0"
       id="path3232"
       style="fill:#000000;fill-opacity:1;fill-rule:nonzero;stroke:none"
       d="m 125.051,95.327 c -1.344,-2.414 -2.645,-4.855 -4.004,-7.258 -0.676,-1.214 -1.262,-2.476 -1.938,-3.691 -2.554,-4.719 -8.066,-8.016 -13.211,-8.34 l 11.477,9.297 c 4.605,2.953 -15.148,-11.762 -11.5,-7.078 0.789,1.18 1.492,2.41 2.07,3.723 1.426,2.308 2.684,4.726 4.004,7.105 l 13.102,6.242 z" /><path
       inkscape:connector-curvature="0"
       id="path3234"
       style="fill:#000000;fill-opacity:1;fill-rule:nonzero;stroke:none"
       d="m 97.656,96.46 c -1.34,-2.414 -2.644,-4.855 -4.004,-7.262 -0.675,-1.211 -1.257,-2.472 -1.937,-3.687 -2.555,-4.719 -8.063,-8.016 -13.211,-8.34 l 11.48,9.297 C 94.586,89.421 74.832,74.702 78.48,79.39 c 0.793,1.179 1.493,2.41 2.075,3.722 1.425,2.309 2.683,4.727 4,7.106 l 13.101,6.242 z" /><path
       inkscape:connector-curvature="0"
       id="path3236"
       style="fill:#000000;fill-opacity:1;fill-rule:nonzero;stroke:none"
       d="m 111.219,96.46 c -1.34,-2.414 -2.641,-4.855 -4,-7.262 -0.676,-1.211 -1.262,-2.472 -1.938,-3.687 -2.554,-4.719 -8.066,-8.016 -13.211,-8.34 l 11.477,9.297 c 4.601,2.953 -15.149,-11.766 -11.5,-7.078 0.789,1.179 1.492,2.41 2.07,3.722 1.426,2.309 2.684,4.727 4.004,7.106 l 13.098,6.242 z" /><path
       inkscape:connector-curvature="0"
       id="path3238"
       style="fill:#000000;fill-opacity:1;fill-rule:nonzero;stroke:none"
       d="M 81.961,96.257 C 80.617,93.839 79.316,91.398 77.957,88.995 77.281,87.78 76.695,86.519 76.02,85.308 73.465,80.589 67.957,77.288 62.809,76.968 l 11.48,9.297 c 4.602,2.953 -15.152,-11.766 -11.504,-7.078 0.793,1.179 1.492,2.406 2.07,3.718 1.426,2.313 2.688,4.727 4.004,7.106 l 13.102,6.246 z" /><path
       inkscape:connector-curvature="0"
       id="path3240"
       style="fill:#000000;fill-opacity:1;fill-rule:nonzero;stroke:none"
       d="m 66.844,96.46 c -1.34,-2.414 -2.641,-4.855 -4,-7.262 -0.676,-1.211 -1.262,-2.472 -1.938,-3.687 -2.554,-4.719 -8.066,-8.016 -13.211,-8.34 l 11.477,9.297 c 4.601,2.953 -15.149,-11.766 -11.5,-7.078 0.789,1.179 1.492,2.41 2.07,3.722 1.426,2.309 2.684,4.727 4.004,7.106 l 13.098,6.242 z" /><g
       id="g3242"><g
         id="g3244" /><g
         mask="url(#mask3250)"
         id="g3258"><g
           id="g3260" /><g
           id="g3270"><g
             id="g3272"
             clip-path="url(#clipPath3262)"><g
               id="g3274"
               transform="translate(0,-0.110229)"><g
                 id="g3276" /><g
                 id="g3278"><g
                   id="g3280"
                   clip-path="url(#clipPath3266)"><g
                     id="g3282"><g
                       id="g3284"
                       transform="matrix(1,0,0,-1,0,842)"><path
                         inkscape:connector-curvature="0"
                         id="path3286"
                         style="fill:#fdd99b;fill-opacity:1;fill-rule:nonzero;stroke:#0000ff;stroke-width:2.0882349;stroke-linecap:butt;stroke-linejoin:miter;stroke-miterlimit:4;stroke-opacity:1;stroke-dasharray:none"
                         d="m 177.02,380.426 c -0.43,8.621 -0.344,17.254 -0.176,25.883 0.754,13.668 1.199,27.332 1.203,41.023 -0.195,19.137 -0.043,38.273 0.473,57.398 0.453,8.129 -1.137,16.082 -2.286,24.063 -1.449,12.141 -1.507,24.406 -1.617,36.629 -0.051,8.656 0.121,17.316 0.305,25.973 0.074,2.734 0.238,5.457 -0.207,8.164 -0.266,1.187 -0.375,2.402 -0.707,3.57 l -13.024,6.465 c 0.375,-1.141 0.621,-2.246 0.778,-3.449 0.679,-2.641 0.648,-5.305 0.64,-8.028 0.153,-8.797 0.34,-17.59 0.426,-26.387 0.125,-12.171 0.035,-24.382 1.02,-36.523 1.023,-8.016 2.816,-15.941 2.765,-24.082 0.465,-19.199 0.571,-38.414 -0.027,-57.613 -0.426,-13.598 -0.926,-27.192 -1.641,-40.778 -0.281,-8.476 -0.449,-16.957 -0.73,-25.433 l 12.805,-6.875 z" /></g></g></g></g></g></g></g></g></g><path
       inkscape:connector-curvature="0"
       id="path3288"
       style="fill:#000000;fill-opacity:1;fill-rule:nonzero;stroke:none"
       d="m 184.699,569.546 c -0.125,-1.055 -0.289,-2.109 -0.379,-3.172 -0.953,-11.199 -1.152,-22.469 -1.406,-33.699 -0.402,-17.809 -0.359,-18.863 -0.559,-37.18 -0.296,-43.051 -0.414,-86.101 -0.296,-129.156 -0.008,-27.891 0.648,-55.777 1.05,-83.664 0.036,-5.316 0.286,-10.676 -0.687,-15.922 -0.199,-0.969 -0.395,-1.941 -0.496,-2.93 -0.086,-1.652 -0.086,-3.308 -0.09,-4.964 0.012,-1.497 0.031,-2.997 0.055,-4.493 l -12.86,-6.906 c 0.02,1.516 0.035,3.031 0.043,4.547 -0.012,1.66 -0.043,3.316 -0.062,4.977 0.008,1.101 0.199,2.16 0.476,3.222 1.407,5.293 1.719,10.758 1.965,16.235 1.227,28.273 0.867,56.597 1.274,84.89 0.128,42.988 0.007,85.977 -0.063,128.965 -0.102,24.191 -0.203,48.387 -0.859,72.57 l 12.894,6.68 z" /><path
       inkscape:connector-curvature="0"
       id="path3290"
       style="fill:#000000;fill-opacity:1;fill-rule:nonzero;stroke:none"
       d="m 155.062,257.163 c 4.665,-0.125 9.329,-0.109 13.989,-0.105 5,0.019 10,0.004 15,0.011 4.937,-0.011 9.879,-0.003 14.82,0.016 3.301,0.016 6.602,0.039 9.899,0.059 1.777,0.011 3.554,0.015 5.332,0.043 0.64,-0.004 1.281,0.019 1.921,0.015 l -11.711,-8.961 c -0.624,-0.004 -1.253,0.024 -1.878,0.016 -1.739,0.031 -3.477,0.035 -5.219,0.043 -3.246,0.023 -6.492,0.043 -9.742,0.062 -4.926,0.02 -9.852,0.028 -14.778,0.016 -4.992,0.004 -9.984,-0.012 -14.976,0.008 -4.754,0.004 -9.508,0.019 -14.262,-0.106 l 11.605,8.883 z" /><path
       inkscape:connector-curvature="0"
       id="path3292"
       style="fill:#000000;fill-opacity:1;fill-rule:nonzero;stroke:none"
       d="m 206.855,245.925 c -1.339,-2.414 -2.644,-4.856 -4.003,-7.258 -0.676,-1.215 -1.262,-2.476 -1.938,-3.687 -2.555,-4.719 -8.062,-8.02 -13.211,-8.34 l 11.481,9.297 c 4.601,2.949 -15.153,-11.766 -11.504,-7.082 0.793,1.179 1.492,2.41 2.07,3.722 1.426,2.313 2.688,4.727 4.004,7.106 l 13.101,6.242 z" /><path
       inkscape:connector-curvature="0"
       id="path3294"
       style="fill:#000000;fill-opacity:1;fill-rule:nonzero;stroke:none"
       d="m 179.461,247.058 c -1.34,-2.414 -2.641,-4.856 -4,-7.258 -0.676,-1.215 -1.262,-2.477 -1.941,-3.688 -2.555,-4.718 -8.063,-8.019 -13.208,-8.343 l 11.477,9.297 c 4.602,2.953 -15.152,-11.762 -11.504,-7.079 0.793,1.18 1.496,2.411 2.074,3.723 1.426,2.309 2.684,4.727 4.004,7.106 l 13.098,6.242 z" /><path
       inkscape:connector-curvature="0"
       id="path3302"
       style="fill:#000000;fill-opacity:1;fill-rule:nonzero;stroke:none"
       d="m 193.027,247.058 c -1.343,-2.414 -2.644,-4.856 -4.004,-7.258 -0.675,-1.215 -1.261,-2.477 -1.937,-3.688 -2.555,-4.718 -8.063,-8.019 -13.211,-8.343 l 11.48,9.297 c 4.602,2.953 -15.152,-11.762 -11.503,-7.079 0.793,1.18 1.492,2.411 2.07,3.723 1.426,2.309 2.687,4.727 4.004,7.106 l 13.101,6.242 z" /><path
       inkscape:connector-curvature="0"
       id="path3304"
       style="fill:#000000;fill-opacity:1;fill-rule:nonzero;stroke:none"
       d="m 163.766,246.855 c -1.34,-2.414 -2.641,-4.856 -4.004,-7.262 -0.672,-1.211 -1.258,-2.473 -1.938,-3.688 -2.554,-4.718 -8.062,-8.015 -13.207,-8.339 l 11.477,9.296 c 4.601,2.954 -15.153,-11.765 -11.504,-7.078 0.793,1.18 1.496,2.41 2.074,3.723 1.426,2.309 2.684,4.727 4.004,7.105 l 13.098,6.243 z" /><path
       inkscape:connector-curvature="0"
       id="path3306"
       style="fill:#000000;fill-opacity:1;fill-rule:nonzero;stroke:none"
       d="m 148.652,247.058 c -1.343,-2.414 -2.644,-4.856 -4.004,-7.258 -0.675,-1.215 -1.261,-2.477 -1.937,-3.688 -2.555,-4.718 -8.063,-8.019 -13.211,-8.343 l 11.48,9.297 c 4.602,2.953 -15.152,-11.762 -11.503,-7.079 0.793,1.18 1.492,2.411 2.07,3.723 1.426,2.309 2.687,4.727 4.004,7.106 l 13.101,6.242 z" /><path
       inkscape:connector-curvature="0"
       id="path3314"
       style="fill:#000000;fill-opacity:1;fill-rule:nonzero;stroke:none"
       d="m 102.895,418.948 c -0.129,-1.058 -0.29,-2.113 -0.383,-3.175 -0.95,-11.196 -1.153,-22.469 -1.407,-33.7 -0.402,-17.804 -0.355,-18.859 -0.558,-37.179 -0.297,-43.051 -0.414,-86.102 -0.293,-129.153 -0.008,-27.894 0.648,-55.777 1.051,-83.664 0.035,-5.316 0.285,-10.676 -0.688,-15.922 -0.199,-0.972 -0.398,-1.945 -0.5,-2.929 -0.086,-1.653 -0.082,-3.309 -0.086,-4.965 0.008,-1.496 0.031,-2.996 0.055,-4.492 L 87.223,96.862 c 0.023,1.516 0.039,3.032 0.043,4.547 -0.008,1.657 -0.039,3.317 -0.059,4.977 0.004,1.101 0.199,2.16 0.477,3.223 1.406,5.292 1.718,10.757 1.961,16.234 1.23,28.273 0.871,56.598 1.277,84.891 0.125,42.988 0.008,85.976 -0.067,128.964 -0.097,24.192 -0.199,48.387 -0.855,72.571 l 12.895,6.679 z" /><path
       inkscape:connector-curvature="0"
       id="path3322"
       style="fill:#000000;fill-opacity:1;fill-rule:nonzero;stroke:none"
       d="m 410.258,417.48 c -0.129,-1.059 -0.293,-2.11 -0.383,-3.172 -0.949,-11.199 -1.152,-22.469 -1.406,-33.699 -0.403,-17.809 -0.36,-18.864 -0.559,-37.18 -0.297,-43.051 -0.414,-86.106 -0.293,-129.156 -0.012,-27.891 0.645,-55.778 1.051,-83.664 0.031,-5.317 0.281,-10.676 -0.688,-15.922 -0.199,-0.973 -0.398,-1.942 -0.5,-2.93 -0.085,-1.652 -0.085,-3.309 -0.089,-4.965 0.011,-1.496 0.035,-2.996 0.058,-4.492 l -12.863,-6.906 c 0.023,1.515 0.039,3.031 0.043,4.547 -0.008,1.66 -0.039,3.316 -0.063,4.976 0.008,1.102 0.2,2.16 0.477,3.223 1.406,5.293 1.723,10.758 1.965,16.234 1.23,28.274 0.867,56.598 1.273,84.891 0.129,42.988 0.008,85.976 -0.062,128.965 -0.098,24.191 -0.203,48.386 -0.86,72.57 l 12.899,6.68 z" /><path
       inkscape:connector-curvature="0"
       id="path3324"
       style="fill:#000000;fill-opacity:1;fill-rule:nonzero;stroke:none"
       d="m 380.621,105.097 c 4.66,-0.125 9.324,-0.11 13.988,-0.106 5,0.02 9.996,0.004 14.996,0.012 4.942,-0.012 9.883,-0.004 14.821,0.016 3.301,0.015 6.601,0.039 9.902,0.058 1.777,0.012 3.555,0.016 5.328,0.043 0.641,-0.004 1.282,0.02 1.922,0.016 l -11.707,-8.961 c -0.629,-0.004 -1.254,0.023 -1.883,0.016 -1.738,0.031 -3.476,0.035 -5.215,0.043 -3.25,0.023 -6.496,0.042 -9.746,0.062 -4.925,0.02 -9.851,0.027 -14.777,0.016 -4.992,0.004 -9.984,-0.012 -14.973,0.007 -4.757,0.004 -9.511,0.02 -14.265,-0.105 l 11.609,8.883 z" /><path
       inkscape:connector-curvature="0"
       id="path3326"
       style="fill:#000000;fill-opacity:1;fill-rule:nonzero;stroke:none"
       d="m 432.41,93.859 c -1.34,-2.415 -2.64,-4.856 -4.004,-7.258 -0.672,-1.215 -1.258,-2.477 -1.937,-3.688 -2.555,-4.719 -8.063,-8.019 -13.207,-8.344 l 11.476,9.301 c 4.602,2.949 -15.152,-11.765 -11.504,-7.082 0.793,1.18 1.496,2.41 2.075,3.723 1.425,2.312 2.683,4.726 4.003,7.105 l 13.098,6.243 z" /><path
       inkscape:connector-curvature="0"
       id="path3328"
       style="fill:#000000;fill-opacity:1;fill-rule:nonzero;stroke:none"
       d="m 405.02,94.991 c -1.344,-2.414 -2.645,-4.855 -4.004,-7.261 -0.676,-1.211 -1.262,-2.473 -1.938,-3.688 -2.555,-4.719 -8.066,-8.016 -13.211,-8.34 l 11.481,9.297 c 4.601,2.953 -15.153,-11.762 -11.504,-7.078 0.789,1.18 1.492,2.41 2.07,3.723 1.426,2.308 2.688,4.726 4.004,7.105 l 13.102,6.242 z" /><path
       inkscape:connector-curvature="0"
       id="path3330"
       style="fill:#000000;fill-opacity:1;fill-rule:nonzero;stroke:none"
       d="m 418.582,94.991 c -1.34,-2.414 -2.641,-4.855 -4.004,-7.261 -0.672,-1.211 -1.258,-2.473 -1.937,-3.688 -2.555,-4.719 -8.063,-8.016 -13.207,-8.34 l 11.476,9.297 c 4.602,2.953 -15.152,-11.762 -11.504,-7.078 0.793,1.18 1.496,2.41 2.074,3.723 1.426,2.308 2.684,4.726 4.004,7.105 l 13.098,6.242 z" /><path
       inkscape:connector-curvature="0"
       id="path3332"
       style="fill:#000000;fill-opacity:1;fill-rule:nonzero;stroke:none"
       d="m 389.324,94.788 c -1.344,-2.418 -2.644,-4.855 -4.004,-7.262 -0.675,-1.21 -1.261,-2.476 -1.937,-3.687 -2.555,-4.719 -8.067,-8.016 -13.211,-8.34 l 11.48,9.297 c 4.602,2.953 -15.152,-11.766 -11.504,-7.078 0.79,1.18 1.493,2.41 2.071,3.723 1.426,2.308 2.683,4.726 4.004,7.105 l 13.101,6.242 z" /><path
       inkscape:connector-curvature="0"
       id="path3334"
       style="fill:#000000;fill-opacity:1;fill-rule:nonzero;stroke:none"
       d="m 374.207,94.991 c -1.34,-2.414 -2.641,-4.855 -4.004,-7.261 -0.672,-1.211 -1.258,-2.473 -1.937,-3.688 -2.555,-4.719 -8.063,-8.016 -13.207,-8.34 l 11.476,9.297 c 4.602,2.953 -15.152,-11.762 -11.504,-7.078 0.793,1.18 1.496,2.41 2.074,3.723 1.426,2.308 2.684,4.726 4.004,7.105 l 13.098,6.242 z" /><g
       id="g3336"><g
         id="g3338" /><g
         mask="url(#mask3344)"
         id="g3352"><g
           id="g3354" /><g
           id="g3364"><g
             id="g3366"
             clip-path="url(#clipPath3356)"><g
               id="g3368"
               transform="translate(0,-0.110229)"><g
                 id="g3370" /><g
                 id="g3372"><g
                   id="g3374"
                   clip-path="url(#clipPath3360)"><g
                     id="g3376"><g
                       id="g3378"
                       transform="matrix(1,0,0,-1,0,842)"><path
                         inkscape:connector-curvature="0"
                         id="path3380"
                         style="fill:#fdd99b;fill-opacity:1;fill-rule:nonzero;stroke:#0000ff;stroke-width:2.0882349;stroke-linecap:butt;stroke-linejoin:miter;stroke-miterlimit:4;stroke-opacity:1;stroke-dasharray:none"
                         d="m 483.574,380.426 c -0.429,8.621 -0.344,17.254 -0.176,25.883 0.754,13.668 1.2,27.332 1.207,41.023 -0.199,19.137 -0.046,38.273 0.469,57.398 0.453,8.129 -1.136,16.082 -2.285,24.063 -1.449,12.141 -1.508,24.406 -1.617,36.625 -0.051,8.66 0.121,17.32 0.305,25.977 0.074,2.734 0.238,5.457 -0.207,8.164 -0.266,1.187 -0.375,2.402 -0.708,3.57 l -13.023,6.465 c 0.375,-1.141 0.621,-2.246 0.777,-3.449 0.68,-2.641 0.649,-5.305 0.641,-8.028 0.152,-8.797 0.34,-17.59 0.426,-26.387 0.125,-12.171 0.039,-24.382 1.019,-36.523 1.024,-8.016 2.817,-15.941 2.766,-24.082 0.465,-19.199 0.57,-38.414 -0.027,-57.613 -0.426,-13.598 -0.926,-27.192 -1.641,-40.778 -0.277,-8.476 -0.449,-16.957 -0.73,-25.433 l 12.804,-6.875 z" /></g></g></g></g></g></g></g></g></g><g
       transform="matrix(1,-0.0100438,-0.0100438,-1,0,841.88977)"
       id="g3400"><path
         inkscape:connector-curvature="0"
         id="path3402"
         style="fill:#000000;fill-opacity:1;fill-rule:evenodd;stroke:#000000;stroke-width:2.08330297;stroke-linecap:butt;stroke-linejoin:miter;stroke-miterlimit:4;stroke-opacity:1;stroke-dasharray:none"
         d="m 190.167,272.551 c -0.001,4.598 -3.733,8.33 -8.334,8.334 -4.598,-10e-4 -8.331,-3.733 -8.33,-8.335 -0.003,-4.601 3.733,-8.334 8.33,-8.333 4.602,0 8.335,3.732 8.334,8.334 z" /></g><g
       transform="matrix(1,0,0,-1,0,841.88977)"
       id="g3408"><path
         inkscape:connector-curvature="0"
         id="path3410"
         style="fill:none;stroke:#000000;stroke-width:8.33362961;stroke-linecap:butt;stroke-linejoin:miter;stroke-miterlimit:4;stroke-opacity:1;stroke-dasharray:none"
         d="m 97.168,431.039 305.281,3.066" /></g><g
       transform="matrix(1,-0.0100438,-0.0100438,-1,0,841.88977)"
       id="g3412"><path
         inkscape:connector-curvature="0"
         id="path3414"
         style="fill:#000000;fill-opacity:1;fill-rule:evenodd;stroke:#000000;stroke-width:2.08330297;stroke-linecap:butt;stroke-linejoin:miter;stroke-miterlimit:4;stroke-opacity:1;stroke-dasharray:none"
         d="m 109.655,430.02 c -0.001,4.601 -3.733,8.334 -8.334,8.333 -4.598,0 -8.335,-3.732 -8.334,-8.334 0.001,-4.597 3.733,-8.334 8.334,-8.334 4.602,10e-4 8.335,3.733 8.334,8.335 z" /></g><g
       transform="matrix(1,-0.0100438,-0.0100438,-1,0,841.88977)"
       id="g3416"><path
         inkscape:connector-curvature="0"
         id="path3418"
         style="fill:#000000;fill-opacity:1;fill-rule:evenodd;stroke:#000000;stroke-width:2.08330297;stroke-linecap:butt;stroke-linejoin:miter;stroke-miterlimit:4;stroke-opacity:1;stroke-dasharray:none"
         d="m 414.932,430.02 c 0,4.602 -3.732,8.334 -8.33,8.334 -4.602,-10e-4 -8.334,-3.733 -8.334,-8.335 -0.003,-4.597 3.733,-8.334 8.331,-8.333 4.601,0 8.334,3.732 8.333,8.334 z" /></g><g
       transform="matrix(1,0,0,-1,0,841.88977)"
       id="g3420"><path
         inkscape:connector-curvature="0"
         id="path3422"
         style="fill:none;stroke:#000000;stroke-width:8.35293961;stroke-linecap:butt;stroke-linejoin:miter;stroke-miterlimit:4;stroke-opacity:1;stroke-dasharray:none"
         d="M 177.172,275.402 96.758,431.551" /></g><path
       sodipodi:type="arc"
       style="fill:#e8f8fa;fill-opacity:0.79090911;stroke:#ff0000;stroke-width:3;stroke-miterlimit:4;stroke-opacity:1;stroke-dasharray:9, 9;stroke-dashoffset:0"
       id="path3590"
       sodipodi:cx="277.80099"
       sodipodi:cy="621.79895"
       sodipodi:rx="173.28896"
       sodipodi:ry="170.30162"
       d="M 451.08995,621.79895 A 173.28896,170.30162 0 1 1 110.80314,576.32804"
       transform="matrix(0.38111158,-1.2486003,0.92778201,0.20652256,-571.65709,632.99029)"
       sodipodi:start="0"
       sodipodi:end="3.4118736"
       sodipodi:open="true" /><path
       sodipodi:type="arc"
       style="fill:#fae8e8;fill-opacity:0.79090911;stroke:#ff0000;stroke-width:3;stroke-miterlimit:4;stroke-opacity:1;stroke-dasharray:9, 9;stroke-dashoffset:0"
       id="path3590-9"
       sodipodi:cx="277.80099"
       sodipodi:cy="621.79895"
       sodipodi:rx="173.28896"
       sodipodi:ry="170.30162"
       d="M 451.08995,621.79895 A 173.28896,170.30162 0 1 1 110.80314,576.32804"
       transform="matrix(0.45311496,1.2243103,-0.86329264,0.39768935,786.79855,-194.60273)"
       sodipodi:start="0"
       sodipodi:end="3.4118736"
       sodipodi:open="true" /><path
       sodipodi:type="arc"
       style="fill:#85e37f;fill-opacity:0.79090911;stroke:#ff0000;stroke-width:3;stroke-miterlimit:4;stroke-opacity:1;stroke-dasharray:9, 9;stroke-dashoffset:0"
       id="path3590-6"
       sodipodi:cx="277.80099"
       sodipodi:cy="621.79895"
       sodipodi:rx="181.07787"
       sodipodi:ry="170.30162"
       d="M 457.34509,643.91766 A 181.07787,170.30162 0 1 1 103.29699,576.32804"
       transform="matrix(0.06918904,-1.7856131,0.42558391,-0.42055081,-103.20424,1277.3697)"
       sodipodi:start="0.13024755"
       sodipodi:end="3.4118736"
       sodipodi:open="true" /><path
       style="fill:none;stroke:#000000;stroke-width:3;stroke-linecap:butt;stroke-linejoin:miter;stroke-opacity:1;stroke-miterlimit:4;stroke-dasharray:none;marker-end:url(#Arrow1Mend)"
       d="M 496.76021,537.49681 C 379.0767,337.20853 379.0767,337.20853 379.0767,337.20853"
       id="path4395"
       inkscape:connector-curvature="0"
       transform="matrix(0.8,0,0,-0.8,0,841.88976)" /><path
       style="fill:none;stroke:#000000;stroke-width:3;stroke-linecap:butt;stroke-linejoin:miter;stroke-miterlimit:4;stroke-opacity:1;stroke-dasharray:none;marker-start:none;marker-end:url(#Arrow1Mend-71)"
       d="m 121.07823,538.62839 191.2357,-62.23648"
       id="path4900"
       inkscape:connector-curvature="0"
       sodipodi:nodetypes="cc"
       transform="matrix(0.8,0,0,-0.8,0,841.88976)" /><path
       style="fill:none;stroke:#000000;stroke-width:2.4000001;stroke-linecap:butt;stroke-linejoin:miter;stroke-miterlimit:4;stroke-opacity:1;stroke-dasharray:none;marker-start:none;marker-end:url(#Arrow1Mend-71)"
       d="m 178.21808,565.81696 42.54711,129.45188"
       id="path4900-7"
       inkscape:connector-curvature="0"
       sodipodi:nodetypes="cc" /><flowRoot
       xml:space="preserve"
       id="flowRoot5298"
       style="font-size:40px;font-style:normal;font-weight:normal;line-height:125%;letter-spacing:0px;word-spacing:0px;fill:#000000;fill-opacity:1;stroke:none;font-family:Sans"
       transform="matrix(0.8,0,0,-0.8,75.136397,838.26873)"><flowRegion
         id="flowRegion5300"><rect
           id="rect5302"
           width="131.26239"
           height="57.710186"
           x="1.1315722"
           y="536.36523" /></flowRegion><flowPara
         id="flowPara5304">$A_i$</flowPara></flowRoot><flowRoot
       xml:space="preserve"
       id="flowRoot5298-5"
       style="font-size:40px;font-style:normal;font-weight:normal;line-height:125%;letter-spacing:0px;word-spacing:0px;fill:#000000;fill-opacity:1;stroke:none;font-family:Sans"
       transform="matrix(0.8,0,0,-0.8,408.89197,856.35815)"><flowRegion
         id="flowRegion5300-5"><rect
           id="rect5302-8"
           width="131.26239"
           height="57.710186"
           x="1.1315722"
           y="536.36523" /></flowRegion><flowPara
         id="flowPara5304-4">$A_j$</flowPara></flowRoot><flowRoot
       xml:space="preserve"
       id="flowRoot5298-6"
       style="font-size:40px;font-style:normal;font-weight:normal;line-height:125%;letter-spacing:0px;word-spacing:0px;fill:#000000;fill-opacity:1;stroke:none;font-family:Sans"
       transform="matrix(0.8,0,0,-0.8,107.44113,1018.3993)"><flowRegion
         id="flowRegion5300-8"><rect
           id="rect5302-5"
           width="131.26239"
           height="57.710186"
           x="1.1315722"
           y="536.36523" /></flowRegion><flowPara
         id="flowPara5304-0">$A_k$</flowPara></flowRoot><flowRoot
       xml:space="preserve"
       id="flowRoot5346"
       style="font-size:24px;font-style:normal;font-weight:normal;line-height:125%;letter-spacing:0px;word-spacing:0px;fill:#000000;fill-opacity:1;stroke:none;font-family:Sans"
       transform="matrix(0.76405315,0.23711344,0.23711344,-0.76405315,-105.82191,757.80859)"><flowRegion
         id="flowRegion5348"><rect
           id="rect5350"
           width="106.36779"
           height="44.131317"
           x="181.05156"
           y="456.02362" /></flowRegion><flowPara
         id="flowPara5352">$\rho_i$</flowPara></flowRoot><flowRoot
       xml:space="preserve"
       id="flowRoot5346-7"
       style="font-size:24px;font-style:normal;font-weight:normal;line-height:125%;letter-spacing:0px;word-spacing:0px;fill:#000000;fill-opacity:1;stroke:none;font-family:Sans"
       transform="matrix(0.39733487,-0.69435222,-0.69435222,-0.39733487,603.62819,846.77276)"><flowRegion
         id="flowRegion5348-5"><rect
           id="rect5350-1"
           width="106.36779"
           height="44.131317"
           x="181.05156"
           y="456.02362" /></flowRegion><flowPara
         id="flowPara5352-5">$\rho_j$</flowPara></flowRoot><flowRoot
       xml:space="preserve"
       id="flowRoot5346-9"
       style="font-size:24px;font-style:normal;font-weight:normal;line-height:125%;letter-spacing:0px;word-spacing:0px;fill:#000000;fill-opacity:1;stroke:none;font-family:Sans"
       transform="matrix(0.25303106,0.75893035,0.75893035,-0.25303106,-224.80301,592.7369)"
       inkscape:transform-center-x="-97.315213"><flowRegion
         id="flowRegion5348-1"><rect
           id="rect5350-9"
           width="106.36779"
           height="44.131317"
           x="181.05156"
           y="456.02362" /></flowRegion><flowPara
         id="flowPara5352-4">$\rho_k$</flowPara></flowRoot><path
       sodipodi:type="arc"
       style="fill:#ff0000;fill-opacity:1;stroke:#000000;stroke-width:3;stroke-miterlimit:4;stroke-opacity:1;stroke-dasharray:none;stroke-dashoffset:0"
       id="path5394"
       sodipodi:cx="311.18237"
       sodipodi:cy="427.16852"
       sodipodi:rx="14.710439"
       sodipodi:ry="13.013081"
       d="m 325.76821,428.85865 a 14.710439,13.013081 0 1 1 0.0113,-0.0781 l -14.59714,-1.612 z"
       transform="matrix(0.8,0,0,-0.8,0,841.88976)"
       sodipodi:start="0.13024755"
       sodipodi:end="6.4073798" /><path
       transform="matrix(0.8,0,0,-0.8,-9.9577865,574.38608)"
       sodipodi:type="arc"
       style="fill:#ff0000;fill-opacity:1;stroke:#000000;stroke-width:3;stroke-miterlimit:4;stroke-opacity:1;stroke-dasharray:none;stroke-dashoffset:0"
       id="path5394-6"
       sodipodi:cx="311.18237"
       sodipodi:cy="427.16852"
       sodipodi:rx="14.710439"
       sodipodi:ry="13.013081"
       d="m 325.76821,428.85865 a 14.710439,13.013081 0 1 1 0.0113,-0.0781 l -14.59714,-1.612 z"
       sodipodi:start="0.13024755"
       sodipodi:end="6.4073798" /></g></svg>